<?xml version="1.0" encoding="UTF-8" standalone="no"?>
<!-- Created with Inkscape (http://www.inkscape.org/) -->

<svg
   width="44.565365mm"
   height="37.823227mm"
   viewBox="0 0 44.565365 37.823227"
   version="1.1"
   id="svg1"
   inkscape:version="1.3.1 (91b66b0783, 2023-11-16, custom)"
   sodipodi:docname="award_4.svg"
   xmlns:inkscape="http://www.inkscape.org/namespaces/inkscape"
   xmlns:sodipodi="http://sodipodi.sourceforge.net/DTD/sodipodi-0.dtd"
   xmlns="http://www.w3.org/2000/svg"
   xmlns:svg="http://www.w3.org/2000/svg">
  <sodipodi:namedview
     id="namedview1"
     pagecolor="#ffffff"
     bordercolor="#000000"
     borderopacity="0.25"
     inkscape:showpageshadow="2"
     inkscape:pageopacity="0.0"
     inkscape:pagecheckerboard="0"
     inkscape:deskcolor="#d1d1d1"
     inkscape:document-units="mm"
     inkscape:zoom="2.4936065"
     inkscape:cx="114.29229"
     inkscape:cy="72.585629"
     inkscape:window-width="1456"
     inkscape:window-height="784"
     inkscape:window-x="0"
     inkscape:window-y="0"
     inkscape:window-maximized="1"
     inkscape:current-layer="layer1" />
  <defs
     id="defs1" />
  <g
     inkscape:label="Layer 1"
     inkscape:groupmode="layer"
     id="layer1"
     transform="translate(-76.200007,-99.218744)">
    <path
       id="path160"
       d="m 116.38351,115.28998 c -1.92828,-2.29306 -2.98203,-4.78085 -3.26319,-7.76429 -0.2473,-2.62854 -1.52224,-3.76766 -4.18677,-3.97439 -2.78059,-0.21555 -5.11669,-1.17546 -7.24535,-2.96898 -2.138183,-1.801636 -3.917947,-1.8288 -6.060367,-0.0169 -2.178756,1.84256 -4.572,2.77601 -7.401631,2.99437 -2.580922,0.19968 -3.88232,1.50954 -4.097514,4.08129 -0.230011,2.74532 -1.116542,5.08847 -2.928056,7.22524 -1.958622,2.3107 -1.9304,3.96381 0.02399,6.28051 1.724378,2.0447 2.616906,4.28625 2.871611,6.91903 0.286809,2.96298 1.510242,4.1529 4.499681,4.40372 2.54635,0.21343 4.742039,1.01106 6.688314,2.69314 0.888295,0.76691 2.063751,1.2058 3.260726,1.87925 1.21038,-0.63115 2.423586,-1.01244 3.304116,-1.7738 2.03129,-1.75472 4.30883,-2.60703 6.97477,-2.81023 2.73332,-0.20743 4.08481,-1.3589 4.30671,-4.04883 0.24906,-3.01308 1.40159,-5.45465 3.28471,-7.75229 1.52542,-1.86161 1.53741,-3.49991 -0.0318,-5.36681"
       style="fill:#f79517;fill-opacity:1;fill-rule:nonzero;stroke:none;stroke-width:0.0352778" />
    <path
       id="path161"
       d="m 107.95248,117.98167 c 0,5.14068 -4.16737,9.30769 -9.307338,9.30769 -5.140326,0 -9.307337,-4.16701 -9.307337,-9.30769 0,-5.13997 4.167011,-9.30698 9.307337,-9.30698 5.139968,0 9.307338,4.16701 9.307338,9.30698"
       style="fill:#ffffff;fill-opacity:1;fill-rule:nonzero;stroke:none;stroke-width:0.0352778" />
    <path
       id="path162"
       d="m 98.849047,102.69934 0.493889,1.00012 1.103494,0.16052 -0.798694,0.77858 0.188736,1.09925 -0.987425,-0.51893 -0.987425,0.51893 0.188383,-1.09925 -0.798688,-0.77858 1.103841,-0.16052 0.493889,-1.00012"
       style="fill:#1a1417;fill-opacity:1;fill-rule:nonzero;stroke:none;stroke-width:0.0352778" />
    <path
       id="path163"
       d="m 94.552214,104.29531 0.478719,0.54222 0.717903,-0.0875 -0.367242,0.623 0.3048,0.65582 -0.705908,-0.15734 -0.52952,0.49283 -0.06879,-0.71967 -0.632178,-0.35137 0.663575,-0.28821 0.138642,-0.70979"
       style="fill:#1a1417;fill-opacity:1;fill-rule:nonzero;stroke:none;stroke-width:0.0352778" />
    <path
       id="path164"
       d="m 103.02699,104.46041 0.13159,0.71084 0.6604,0.29457 -0.63535,0.34502 -0.0762,0.71896 -0.52423,-0.49777 -0.70767,0.14993 0.3115,-0.65264 -0.36124,-0.62618 0.71684,0.0946 0.48436,-0.53728"
       style="fill:#1a1417;fill-opacity:1;fill-rule:nonzero;stroke:none;stroke-width:0.0352778" />
    <path
       id="path165"
       d="m 98.919603,133.38395 0.493889,-0.9973 1.103838,-0.15981 -0.799038,-0.77611 0.188736,-1.09608 -0.987425,0.51717 -0.987425,-0.51717 0.188736,1.09608 -0.799042,0.77611 1.103842,0.15981 0.493889,0.9973"
       style="fill:#1a1417;fill-opacity:1;fill-rule:nonzero;stroke:none;stroke-width:0.0352778" />
    <path
       id="path166"
       d="m 94.623122,131.43203 0.478719,-0.5401 0.71755,0.0871 -0.367241,-0.62125 0.3048,-0.65334 -0.705909,0.15628 -0.529519,-0.49071 -0.06879,0.71755 -0.631825,0.34995 0.663222,0.28716 0.138995,0.70732"
       style="fill:#1a1417;fill-opacity:1;fill-rule:nonzero;stroke:none;stroke-width:0.0352778" />
    <path
       id="path167"
       d="m 103.09755,131.62818 0.13159,-0.70873 0.6604,-0.29387 -0.63536,-0.3436 -0.0758,-0.7172 -0.52458,0.49636 -0.70768,-0.14958 0.31151,0.65052 -0.3609,0.62477 0.7165,-0.0942 0.48436,0.53552"
       style="fill:#1a1417;fill-opacity:1;fill-rule:nonzero;stroke:none;stroke-width:0.0352778" />
    <path
       id="path168"
       d="m 109.21331,118.042 h -0.14746 c 0,2.86985 -1.16276,5.46664 -3.04342,7.34765 -1.88066,1.88031 -4.47745,3.04307 -7.347302,3.04307 -2.869848,0 -5.466645,-1.16276 -7.347656,-3.04307 -1.880659,-1.88101 -3.043414,-4.4778 -3.043414,-7.34765 0,-2.86985 1.162755,-5.46665 3.043414,-7.34766 1.881011,-1.88066 4.477808,-3.04341 7.347656,-3.04341 2.869852,0 5.466642,1.16275 7.347302,3.04341 1.88066,1.88101 3.04342,4.47781 3.04342,7.34766 h 0.14746 0.14746 c 0,-5.90162 -4.78402,-10.68564 -10.685642,-10.68599 -5.90162,3.5e-4 -10.68564,4.78437 -10.685993,10.68599 3.53e-4,5.90162 4.784373,10.68564 10.685993,10.68564 5.901622,0 10.685642,-4.78402 10.685642,-10.68564 h -0.14746"
       style="fill:#1a1417;fill-opacity:1;fill-rule:nonzero;stroke:none;stroke-width:0.0352778" />
    <path
       id="path169"
       d="m 115.25039,115.48718 0.0956,-0.0801 c -1.8027,-2.14489 -2.78307,-4.45982 -3.04659,-7.24852 -0.11748,-1.25519 -0.48472,-2.17841 -1.15747,-2.80776 -0.67274,-0.62971 -1.63265,-0.9518 -2.90265,-1.05022 -2.59715,-0.20214 -4.76815,-1.09432 -6.75711,-2.76895 -1.02517,-0.86431 -1.981199,-1.31445 -2.950986,-1.31445 -0.958144,0 -1.905705,0.43956 -2.921,1.29857 -2.034822,1.71979 -4.259086,2.58763 -6.904214,2.79294 -1.234017,0.0949 -2.182284,0.45826 -2.8448,1.12042 -0.663223,0.66182 -1.028348,1.60938 -1.131006,2.83916 -0.2159,2.56646 -1.039989,4.7438 -2.730147,6.73876 -0.924984,1.09114 -1.400881,2.04717 -1.401234,3.01907 7.06e-4,0.98461 0.488597,1.95192 1.423459,3.06035 1.609019,1.90888 2.4384,3.99168 2.677583,6.45231 0.136172,1.40934 0.49777,2.42146 1.201914,3.11044 0.70485,0.68792 1.730375,1.03223 3.15207,1.15147 2.380192,0.20037 4.417836,0.94121 6.23182,2.50754 0.861483,0.74256 1.976261,1.1557 3.093155,1.78576 l 0.05891,0.0328 0.05997,-0.031 c 1.127831,-0.5902 2.278236,-0.9482 3.137606,-1.68734 1.89441,-1.63618 4.00896,-2.42817 6.50028,-2.61832 1.30246,-0.0991 2.29553,-0.42404 2.99156,-1.06327 0.69673,-0.63994 1.07667,-1.5815 1.18215,-2.86667 0.23319,-2.8127 1.30493,-5.08459 3.06741,-7.23689 0.72707,-0.88688 1.10701,-1.73743 1.10701,-2.5982 0,-0.86607 -0.38488,-1.72332 -1.1377,-2.61797 l -0.0956,0.0801 -0.0952,0.0801 c 0.73061,0.8696 1.07915,1.66864 1.07915,2.45781 0,0.78422 -0.34466,1.57832 -1.05057,2.44016 -1.78612,2.17876 -2.88678,4.5085 -3.12279,7.37447 -0.10407,1.24989 -0.46567,2.11772 -1.10243,2.70333 -0.63677,0.58597 -1.56845,0.90135 -2.84198,0.99836 -2.53259,0.19156 -4.71064,1.00613 -6.64422,2.67829 -0.80116,0.69427 -1.93639,1.0552 -3.089974,1.65492 l 0.0575,0.11081 0.06138,-0.10873 c -1.139119,-0.63955 -2.240492,-1.05339 -3.052586,-1.75683 -1.854553,-1.60373 -3.954992,-2.36573 -6.373989,-2.56787 -1.395237,-0.11712 -2.354792,-0.45156 -2.998612,-1.08127 -0.643819,-0.629 -0.994127,-1.57339 -1.128183,-2.95592 -0.2413,-2.50261 -1.093964,-4.64467 -2.735086,-6.58883 -0.918634,-1.08973 -1.364898,-2.00343 -1.364545,-2.89984 -3.53e-4,-0.88476 0.433564,-1.78611 1.341967,-2.85785 1.724025,-2.03235 2.571044,-4.27179 2.788356,-6.87917 0.100541,-1.1938 0.449791,-2.07539 1.058686,-2.68358 0.608894,-0.60783 1.490133,-0.95532 2.688167,-1.04845 2.688166,-0.20673 4.974872,-1.09855 7.046031,-2.8508 0.991658,-0.8382 1.882069,-1.23966 2.75978,-1.23966 0.888295,-3.5e-4 1.788238,0.41134 2.790478,1.25554 2.02318,1.70568 4.25485,2.6229 6.89857,2.82716 1.24072,0.0963 2.13712,0.40816 2.75131,0.98354 0.61383,0.57503 0.96414,1.42699 1.07985,2.64901 0.26565,2.83422 1.27177,5.20806 3.10374,7.3854 l 0.0952,-0.0801"
       style="fill:#1a1417;fill-opacity:1;fill-rule:nonzero;stroke:none;stroke-width:0.0352778" />
    <path
       id="path170"
       d="m 119.94269,123.62612 c -0.9338,-1.40335 -1.49507,-3.15842 -1.49507,-5.06977 0,-2.00801 0.61348,-3.84951 1.63442,-5.28532 H 77.023037 c 0.933803,1.40335 1.495073,3.15842 1.495073,5.06977 0,2.00801 -0.613481,3.84951 -1.63442,5.28532 h 43.059"
       style="fill:#f79517;fill-opacity:1;fill-rule:nonzero;stroke:none;stroke-width:0.0352778" />
    <path
       id="path171"
       d="m 119.94269,123.62612 0.29386,-0.19544 c -0.89535,-1.34479 -1.43615,-3.03213 -1.43615,-4.87433 -3.6e-4,-1.93605 0.59196,-3.70664 1.56915,-5.08106 l 0.39582,-0.55704 H 76.364754 l 0.36442,0.54822 c 0.894997,1.34479 1.436158,3.03213 1.436158,4.87433 3.53e-4,1.93605 -0.591608,3.70664 -1.569156,5.08106 l -0.396169,0.55704 h 44.401323 l -0.36478,-0.54822 -0.29386,0.19544 v -0.35278 h -43.059 v 0.35278 l 0.287514,0.20461 c 1.064684,-1.49754 1.699684,-3.40995 1.699684,-5.48993 0,-1.98085 -0.581378,-3.8033 -1.554339,-5.26521 l -0.293512,0.19544 v 0.35278 h 43.059003 v -0.35278 l -0.28752,-0.20461 c -1.06468,1.49754 -1.69968,3.40995 -1.69968,5.48993 0,1.98085 0.58138,3.8033 1.55434,5.26521 l 0.29351,-0.19544 v -0.35278 0.35278"
       style="fill:#1a1417;fill-opacity:1;fill-rule:nonzero;stroke:none;stroke-width:0.0352778" />
    <path
       id="path172"
       d="m 82.203401,119.22031 h 1.293978 c 0.921907,0 1.51722,-0.65732 1.51722,-1.67845 0,-1.00872 -0.574642,-1.55856 -1.620573,-1.55856 h -2.224154 v 5.03122 h 1.033529 z m 0,-0.86403 v -1.51309 h 0.967383 c 0.553971,0 0.810286,0.24392 0.810286,0.75241 0,0.5209 -0.256315,0.76068 -0.810286,0.76068 z m 4.591968,0.66146 h 1.18649 c 0.450619,0 0.644922,0.1819 0.644922,0.59531 v 0.20671 c -0.0083,0.13229 -0.0083,0.25631 -0.0083,0.33073 0,0.47542 0.02894,0.62425 0.152962,0.86403 h 1.112077 v -0.18604 c -0.161231,-0.0909 -0.223242,-0.1943 -0.223242,-0.41341 -0.02894,-1.48415 -0.05374,-1.55443 -0.698666,-1.83141 0.566374,-0.21911 0.851628,-0.62839 0.851628,-1.24024 0,-0.40101 -0.14056,-0.76894 -0.380338,-1.01699 -0.227377,-0.23564 -0.545703,-0.34313 -0.971518,-0.34313 H 85.76184 v 5.03122 h 1.033529 z m 0,-0.8599 v -1.31465 h 1.248502 c 0.297656,0 0.417546,0.0289 0.545703,0.1323 0.124024,0.10335 0.186035,0.27698 0.186035,0.51263 0,0.23977 -0.06201,0.43408 -0.186035,0.53743 -0.115755,0.0951 -0.248047,0.13229 -0.545703,0.13229 z m 4.970238,0.6904 h 2.410189 v -0.86403 h -2.410189 v -1.14102 H 94.3701 v -0.85989 h -3.638021 v 5.03122 h 3.762044 v -0.86403 h -2.728516 z m 4.434872,-1.757 0.901237,3.92328 h 1.037662 l 0.888835,-3.92328 v 3.92328 h 1.037667 v -5.03122 h -1.5627 l -0.880566,4.00182 -0.913639,-4.00182 h -1.546159 v 5.03122 h 1.037663 z m 7.001121,-1.10794 h -1.03766 v 5.03122 h 1.03766 z m 4.84725,0 v 3.41064 c 0,0.60772 -0.31006,0.89711 -0.95911,0.89711 -0.64906,0 -0.96325,-0.28939 -0.96325,-0.89711 v -3.41064 h -1.03353 v 3.41064 c 0,0.56224 0.15296,0.96325 0.48782,1.26918 0.36794,0.33072 0.90124,0.50849 1.50896,0.50849 0.60771,0 1.13688,-0.17777 1.50481,-0.50849 0.33487,-0.30593 0.48783,-0.70694 0.48783,-1.26918 v -3.41064 z m 3.14089,1.10794 0.90124,3.92328 h 1.03766 l 0.88884,-3.92328 v 3.92328 h 1.03766 v -5.03122 h -1.56269 l -0.88057,4.00182 -0.91364,-4.00182 h -1.54616 v 5.03122 h 1.03766 z m 0,0"
       style="fill:#ffffff;fill-opacity:1;fill-rule:nonzero;stroke:none;stroke-width:0.352778"
       aria-label="PREMIUM" />
  </g>
</svg>
