<?xml version="1.0" encoding="UTF-8" standalone="no"?>
<!-- Created with Inkscape (http://www.inkscape.org/) -->

<svg
   width="39.001701mm"
   height="38.163448mm"
   viewBox="0 0 39.001701 38.163448"
   version="1.1"
   id="svg1"
   inkscape:version="1.3.1 (91b66b0783, 2023-11-16, custom)"
   sodipodi:docname="award_2.svg"
   xmlns:inkscape="http://www.inkscape.org/namespaces/inkscape"
   xmlns:sodipodi="http://sodipodi.sourceforge.net/DTD/sodipodi-0.dtd"
   xmlns="http://www.w3.org/2000/svg"
   xmlns:svg="http://www.w3.org/2000/svg">
  <sodipodi:namedview
     id="namedview1"
     pagecolor="#ffffff"
     bordercolor="#000000"
     borderopacity="0.25"
     inkscape:showpageshadow="2"
     inkscape:pageopacity="0.0"
     inkscape:pagecheckerboard="0"
     inkscape:deskcolor="#d1d1d1"
     inkscape:document-units="mm"
     inkscape:zoom="2.3477928"
     inkscape:cx="68.362081"
     inkscape:cy="56.648952"
     inkscape:window-width="1456"
     inkscape:window-height="784"
     inkscape:window-x="0"
     inkscape:window-y="0"
     inkscape:window-maximized="1"
     inkscape:current-layer="layer1" />
  <defs
     id="defs1">
    <clipPath
       clipPathUnits="userSpaceOnUse"
       id="clipPath214">
      <path
         d="m 4271.72,3213.73 c 173.14,0.35 313.76,-135.58 314.51,-304.03 0.76,-171.95 -140.08,-310.14 -315.85,-309.93 -169.65,0.22 -310.59,138.16 -311.4,304.76 -0.83,171.02 138.58,308.84 312.74,309.2"
         id="path214" />
    </clipPath>
    <clipPath
       clipPathUnits="userSpaceOnUse"
       id="clipPath216">
      <path
         d="m 4271.72,3213.73 c 173.14,0.35 313.76,-135.58 314.51,-304.03 0.76,-171.95 -140.08,-310.14 -315.85,-309.93 -169.65,0.22 -310.59,138.16 -311.4,304.76 -0.83,171.02 138.58,308.84 312.74,309.2"
         id="path216" />
    </clipPath>
    <clipPath
       clipPathUnits="userSpaceOnUse"
       id="clipPath218">
      <path
         d="m 4271.72,3213.73 c 173.14,0.35 313.76,-135.58 314.51,-304.03 0.76,-171.95 -140.08,-310.14 -315.85,-309.93 -169.65,0.22 -310.59,138.16 -311.4,304.76 -0.83,171.02 138.58,308.84 312.74,309.2"
         id="path218" />
    </clipPath>
    <clipPath
       clipPathUnits="userSpaceOnUse"
       id="clipPath220">
      <path
         d="m 4271.72,3213.73 c 173.14,0.35 313.76,-135.58 314.51,-304.03 0.76,-171.95 -140.08,-310.14 -315.85,-309.93 -169.65,0.22 -310.59,138.16 -311.4,304.76 -0.83,171.02 138.58,308.84 312.74,309.2"
         id="path220" />
    </clipPath>
    <clipPath
       clipPathUnits="userSpaceOnUse"
       id="clipPath222">
      <path
         d="m 4271.72,3213.73 c 173.14,0.35 313.76,-135.58 314.51,-304.03 0.76,-171.95 -140.08,-310.14 -315.85,-309.93 -169.65,0.22 -310.59,138.16 -311.4,304.76 -0.83,171.02 138.58,308.84 312.74,309.2"
         id="path222" />
    </clipPath>
    <clipPath
       clipPathUnits="userSpaceOnUse"
       id="clipPath224">
      <path
         d="m 4271.72,3213.73 c 173.14,0.35 313.76,-135.58 314.51,-304.03 0.76,-171.95 -140.08,-310.14 -315.85,-309.93 -169.65,0.22 -310.59,138.16 -311.4,304.76 -0.83,171.02 138.58,308.84 312.74,309.2"
         id="path224" />
    </clipPath>
    <clipPath
       clipPathUnits="userSpaceOnUse"
       id="clipPath226">
      <path
         d="m 4271.72,3213.73 c 173.14,0.35 313.76,-135.58 314.51,-304.03 0.76,-171.95 -140.08,-310.14 -315.85,-309.93 -169.65,0.22 -310.59,138.16 -311.4,304.76 -0.83,171.02 138.58,308.84 312.74,309.2"
         id="path226" />
    </clipPath>
    <clipPath
       clipPathUnits="userSpaceOnUse"
       id="clipPath228">
      <path
         d="m 4271.72,3213.73 c 173.14,0.35 313.76,-135.58 314.51,-304.03 0.76,-171.95 -140.08,-310.14 -315.85,-309.93 -169.65,0.22 -310.59,138.16 -311.4,304.76 -0.83,171.02 138.58,308.84 312.74,309.2"
         id="path228" />
    </clipPath>
    <clipPath
       clipPathUnits="userSpaceOnUse"
       id="clipPath230">
      <path
         d="m 4271.72,3213.73 c 173.14,0.35 313.76,-135.58 314.51,-304.03 0.76,-171.95 -140.08,-310.14 -315.85,-309.93 -169.65,0.22 -310.59,138.16 -311.4,304.76 -0.83,171.02 138.58,308.84 312.74,309.2"
         id="path230" />
    </clipPath>
    <clipPath
       clipPathUnits="userSpaceOnUse"
       id="clipPath232">
      <path
         d="m 4271.72,3213.73 c 173.14,0.35 313.76,-135.58 314.51,-304.03 0.76,-171.95 -140.08,-310.14 -315.85,-309.93 -169.65,0.22 -310.59,138.16 -311.4,304.76 -0.83,171.02 138.58,308.84 312.74,309.2"
         id="path232" />
    </clipPath>
    <clipPath
       clipPathUnits="userSpaceOnUse"
       id="clipPath234">
      <path
         d="m 4271.72,3213.73 c 173.14,0.35 313.76,-135.58 314.51,-304.03 0.76,-171.95 -140.08,-310.14 -315.85,-309.93 -169.65,0.22 -310.59,138.16 -311.4,304.76 -0.83,171.02 138.58,308.84 312.74,309.2"
         id="path234" />
    </clipPath>
    <clipPath
       clipPathUnits="userSpaceOnUse"
       id="clipPath236">
      <path
         d="m 4271.72,3213.73 c 173.14,0.35 313.76,-135.58 314.51,-304.03 0.76,-171.95 -140.08,-310.14 -315.85,-309.93 -169.65,0.22 -310.59,138.16 -311.4,304.76 -0.83,171.02 138.58,308.84 312.74,309.2"
         id="path236" />
    </clipPath>
  </defs>
  <g
     inkscape:label="Layer 1"
     inkscape:groupmode="layer"
     id="layer1"
     transform="translate(-56.620851,-113.24166)">
    <path
       id="path209"
       d="m 94.786116,133.78673 c 0.312209,-0.3489 0.565856,-0.63147 0.836437,-0.9331 -0.293512,-0.37042 -0.548923,-0.69285 -0.797631,-1.00683 0.271286,-0.38558 0.506236,-0.72002 0.748594,-1.06539 -0.343958,-0.31608 -0.625827,-0.57538 -0.932391,-0.85725 0.230716,-0.38523 0.446616,-0.74541 0.667455,-1.11372 -0.35313,-0.29104 -0.672747,-0.55456 -1.001536,-0.8255 0.182034,-0.43603 0.340078,-0.81491 0.494242,-1.18392 -0.397933,-0.23318 -0.73025,-0.42756 -1.104195,-0.64664 0.13582,-0.4191 0.26282,-0.81209 0.403931,-1.24813 -0.400756,-0.19156 -0.773995,-0.37006 -1.158875,-0.55386 0.08572,-0.46566 0.160514,-0.86995 0.237419,-1.28623 -0.422275,-0.15275 -0.779639,-0.28257 -1.166989,-0.42262 0,-0.45191 0,-0.86325 0,-1.28835 -0.405341,-0.115 -0.766939,-0.21731 -1.134886,-0.32138 -0.03563,-0.46002 -0.06738,-0.86783 -0.09737,-1.25483 -0.47872,-0.0942 -0.884767,-0.17357 -1.261181,-0.24765 -0.0695,-0.45685 -0.125942,-0.82973 -0.191558,-1.26118 -0.435681,0 -0.814917,0 -1.230137,0 -0.132644,-0.44873 -0.249414,-0.84349 -0.363361,-1.22873 -0.468136,0 -0.881591,0 -1.300692,0 -0.142875,-0.40569 -0.269169,-0.76341 -0.400755,-1.13735 -0.457553,0.067 -0.867128,0.127 -1.291872,0.18874 -0.206728,-0.41593 -0.388409,-0.78105 -0.561623,-1.1296 -0.476955,0.11889 -0.874183,0.21766 -1.262944,0.31433 -0.244828,-0.39547 -0.4445,-0.71791 -0.662164,-1.06998 -0.428978,0.17851 -0.811036,0.33796 -1.184981,0.49389 -0.313972,-0.375 -0.578203,-0.69074 -0.851958,-1.01741 -0.3937,0.21943 -0.72637,0.40463 -1.15182,0.6417 -0.269169,-0.35489 -0.523875,-0.69144 -0.779286,-1.02835 -0.453672,0.29669 -0.797278,0.52141 -1.160286,0.75883 -0.359128,-0.28751 -0.681567,-0.5454 -1.017411,-0.81456 -0.340784,0.29739 -0.627592,0.54715 -0.947209,0.8255 -0.380647,-0.24624 -0.724605,-0.46849 -1.212144,-0.78388 -0.233892,0.35278 -0.468842,0.70697 -0.68192,1.0287 -0.5207,-0.25153 -0.890058,-0.42968 -1.2446,-0.60113 -0.324555,0.375 -0.594077,0.68686 -0.852664,0.98531 -0.422627,-0.18309 -0.77223,-0.33479 -1.141941,-0.4953 -0.252942,0.38805 -0.478367,0.73519 -0.716139,1.09996 -0.441325,-0.121 -0.837848,-0.22931 -1.218142,-0.33338 -0.228953,0.42298 -0.425097,0.78529 -0.621594,1.14865 -0.454731,-0.0847 -0.826206,-0.15417 -1.217789,-0.22719 -0.170745,0.42827 -0.323145,0.81033 -0.480484,1.20474 -0.443794,-0.0275 -0.824089,-0.0512 -1.228372,-0.0766 -0.13335,0.43286 -0.254706,0.82656 -0.37077,1.20368 -0.471311,0.0557 -0.879475,0.10407 -1.274586,0.15064 -0.06385,0.45579 -0.115711,0.82832 -0.164747,1.17792 -0.468136,0.10019 -0.872067,0.18627 -1.267883,0.27094 -0.0314,0.45614 -0.05821,0.83502 -0.08572,1.2326 -0.400756,0.11677 -0.764823,0.22225 -1.168401,0.33973 0,0.44626 0,0.85866 0,1.28058 -0.39758,0.14746 -0.751063,0.27834 -1.119011,0.41487 0.0762,0.46637 0.141464,0.86924 0.202848,1.2453 -0.432153,0.2353 -0.792692,0.4318 -1.141589,0.6216 0.158044,0.43356 0.287513,0.78845 0.428977,1.1751 -0.403577,0.24518 -0.759177,0.46073 -1.125361,0.68333 0.18415,0.42792 0.346075,0.80539 0.518231,1.20579 -0.367947,0.28505 -0.69215,0.53587 -1.013884,0.78458 0.242359,0.42439 0.446264,0.78105 0.733073,1.28306 -0.384881,0.23389 -0.744714,0.45296 -1.07562,0.65405 0.363714,0.48401 0.592667,0.78845 0.842081,1.12042 -0.289631,0.35066 -0.550686,0.66675 -0.827617,1.00189 0.320322,0.33584 0.582436,0.6103 0.885825,0.92886 -0.284339,0.42333 -0.4953,0.73766 -0.717903,1.06892 0.348545,0.31679 0.658284,0.59866 0.964848,0.877 -0.205317,0.41346 -0.389114,0.78387 -0.56762,1.143 0.385939,0.28575 0.718256,0.53164 1.034345,0.76588 -0.158398,0.43956 -0.28822,0.79869 -0.414867,1.15041 0.388408,0.24765 0.738011,0.47061 1.089731,0.69497 -0.113948,0.43322 -0.208845,0.79658 -0.312209,1.18851 0.428978,0.19544 0.802922,0.36548 1.205089,0.54892 -0.07303,0.43075 -0.135819,0.80116 -0.204964,1.20862 0.442384,0.1517 0.834673,0.28646 1.236134,0.42439 0,0.44909 0,0.85337 0,1.26542 0.456141,0.10759 0.855486,0.20179 1.225902,0.28927 0.0501,0.46003 0.09066,0.83468 0.130176,1.20157 0.475191,0.0741 0.881591,0.13793 1.258005,0.19649 0.100542,0.45262 0.183445,0.8248 0.266347,1.19557 0.4699,0.0261 0.884414,0.0483 1.292931,0.0709 0.128764,0.42227 0.237772,0.78034 0.357364,1.17228 0.471311,-0.0579 0.877358,-0.1076 1.286228,-0.15734 0.173566,0.42016 0.318911,0.77258 0.476955,1.1557 0.452614,-0.0843 0.864659,-0.16122 1.303162,-0.24307 0.204258,0.37889 0.399344,0.74084 0.599016,1.11125 0.459317,-0.15134 0.853017,-0.28081 1.242484,-0.40887 0.281164,0.39829 0.522111,0.73943 0.746125,1.05622 0.435328,-0.20002 0.813505,-0.37359 1.206147,-0.55351 0.285397,0.34996 0.527403,0.64664 0.794808,0.97473 0.392642,-0.22754 0.753181,-0.43709 1.141237,-0.66252 0.327025,0.30304 0.630061,0.58385 0.948266,0.87842 0.378884,-0.28787 0.708025,-0.53834 1.016,-0.77259 0.403578,0.28364 0.740481,0.52035 1.081617,0.75918 0.335492,-0.31785 0.613833,-0.58138 0.918281,-0.86995 0.390172,0.22754 0.750005,0.4378 1.116189,0.65158 0.306211,-0.33972 0.584553,-0.64876 0.861483,-0.95567 0.430389,0.19791 0.802922,0.36865 1.157111,0.53128 0.30092,-0.40534 0.548923,-0.74013 0.782461,-1.05445 0.433564,0.16051 0.792692,0.29351 1.180748,0.43709 0.230716,-0.40252 0.437444,-0.76412 0.649464,-1.13489 0.452966,0.0917 0.855839,0.17322 1.2573,0.254 0.195086,-0.43462 0.363008,-0.80856 0.522111,-1.16205 0.456142,0.06 0.832555,0.10936 1.229078,0.16122 0.162278,-0.44097 0.302683,-0.82197 0.452614,-1.22872 0.439561,0 0.819855,0 1.245658,0 0.09066,-0.44344 0.172508,-0.84561 0.250825,-1.22767 0.48507,-0.0776 0.891117,-0.14252 1.272117,-0.20355 0.04868,-0.45861 0.08855,-0.83467 0.126294,-1.1878 0.467784,-0.11501 0.86607,-0.21344 1.225903,-0.30163 0,-0.46884 0,-0.8449 0,-1.26118 0.415572,-0.13088 0.808214,-0.25435 1.216025,-0.38276 -0.06244,-0.4625 -0.117122,-0.86784 -0.170039,-1.25766 0.442736,-0.20426 0.812095,-0.37535 1.164873,-0.53834 -0.10795,-0.45049 -0.195792,-0.81668 -0.283634,-1.18321 0.392995,-0.26388 0.731309,-0.49177 1.064684,-0.71544 -0.143228,-0.43038 -0.261761,-0.78598 -0.386998,-1.16099 0.362303,-0.25576 0.672042,-0.47413 1.02482,-0.72249 -0.201083,-0.39899 -0.385233,-0.76552 -0.578203,-1.14794 0.354895,-0.32138 0.660047,-0.59725 0.955322,-0.86501 -0.250472,-0.4004 -0.469194,-0.75 -0.674864,-1.07879"
       style="fill:#f79517;fill-opacity:1;fill-rule:nonzero;stroke:none;stroke-width:0.0352778" />
    <path
       id="path210"
       d="m 76.101593,121.35801 c 6.194425,-0.0127 11.225742,4.8507 11.252201,10.87755 0.02716,6.15174 -5.011562,11.09628 -11.300179,11.08816 -6.069542,-0.007 -11.112148,-4.94241 -11.141075,-10.9033 -0.02963,-6.11858 4.957939,-11.04971 11.189053,-11.06241"
       style="fill:#1a1417;fill-opacity:1;fill-rule:nonzero;stroke:none;stroke-width:0.0352778" />
    <path
       id="path211"
       d="m 76.101593,121.35801 3.53e-4,0.12736 h 0.02364 c 6.116109,0 11.075106,4.80448 11.100859,10.7509 l 3.53e-4,0.049 c -3.53e-4,6.05155 -4.961114,10.91036 -11.158009,10.91106 h -0.01517 c -5.999692,-0.007 -10.986559,-4.88915 -11.013723,-10.77666 v -0.0536 c 0,-6.02191 4.917017,-10.86767 11.062054,-10.88072 l -3.53e-4,-0.12736 -3.53e-4,-0.12735 c -6.280856,0.0123 -11.316406,4.97029 -11.316053,11.13543 v 0.055 c 0.03069,6.03391 5.129036,11.02148 11.268428,11.02995 h 0.01517 c 3.165828,0 6.019447,-1.24213 8.081081,-3.25896 2.06128,-2.01684 3.331633,-4.80978 3.331633,-7.90681 l -3.52e-4,-0.0501 c -0.02716,-6.09212 -5.104695,-11.0049 -11.355565,-11.00455 h -0.02434 l 3.53e-4,0.12735"
       style="fill:#ffffff;fill-opacity:1;fill-rule:nonzero;stroke:none;stroke-width:0.0352778" />
    <path
       id="path212"
       d="m 93.463552,133.64915 0.131234,0.11782 c 0.291394,-0.32526 0.528108,-0.58878 0.780344,-0.8703 l 0.09913,-0.11042 -0.09207,-0.11677 c -0.273756,-0.34537 -0.512233,-0.64629 -0.744009,-0.93909 l -0.138288,0.10971 0.144286,0.10125 c 0.252589,-0.35948 0.472016,-0.67169 0.6985,-0.99378 l 0.0889,-0.12664 -0.113947,-0.10478 c -0.321028,-0.29457 -0.583848,-0.53622 -0.870303,-0.79939 l -0.119239,0.12982 0.151341,0.0907 c 0.215548,-0.35913 0.416631,-0.69532 0.622653,-1.03858 l 0.07832,-0.13017 -0.117475,-0.0967 c -0.329142,-0.27129 -0.627592,-0.51717 -0.933803,-0.76976 l -0.112183,0.13617 0.162983,0.0677 c 0.169333,-0.40675 0.316795,-0.75988 0.460375,-1.10419 l 0.05927,-0.14252 -0.132997,-0.0776 c -0.37077,-0.21731 -0.680509,-0.39899 -1.029053,-0.60325 l -0.08925,0.1524 0.167569,0.0543 c 0.126648,-0.39123 0.245181,-0.75741 0.376767,-1.16416 l 0.04762,-0.14711 -0.139347,-0.0663 c -0.373945,-0.17886 -0.722136,-0.34502 -1.081264,-0.51647 l -0.07585,0.1591 0.173214,0.0321 c 0.08043,-0.43497 0.14993,-0.81174 0.221544,-1.19979 l 0.02716,-0.14711 -0.140406,-0.0508 c -0.3937,-0.14252 -0.727427,-0.26353 -1.088319,-0.39441 l -0.05997,0.16616 h 0.176389 c 0,-0.42157 0,-0.80539 0,-1.20191 v -0.13335 l -0.128412,-0.0363 c -0.378177,-0.10724 -0.715433,-0.20285 -1.058686,-0.29951 l -0.04798,0.16969 0.175684,-0.0138 c -0.03351,-0.42898 -0.06279,-0.80927 -0.09066,-1.17016 l -0.01023,-0.13371 -0.131586,-0.0257 c -0.446969,-0.0878 -0.825147,-0.16192 -1.176514,-0.23107 l -0.03387,0.17322 0.174272,-0.0265 c -0.06456,-0.42651 -0.117475,-0.774 -0.178506,-1.17652 l -0.02258,-0.14993 h -0.151694 c -0.406753,0 -0.759883,0 -1.147586,0 v 0.17639 l 0.169333,-0.0501 c -0.123825,-0.4184 -0.232833,-0.7867 -0.338666,-1.14583 l -0.03739,-0.12629 h -0.131939 c -0.436386,0 -0.821972,0 -1.213203,0 v 0.17639 l 0.166159,-0.0586 c -0.13335,-0.37853 -0.250825,-0.71226 -0.373239,-1.0608 l -0.04833,-0.13724 -0.14358,0.0212 c -0.426862,0.0624 -0.80892,0.11818 -1.205089,0.17604 l 0.0254,0.17462 0.158044,-0.0787 c -0.192969,-0.38805 -0.362655,-0.72848 -0.523522,-1.05339 l -0.06315,-0.127 -0.137584,0.0342 c -0.445205,0.11077 -0.815975,0.20285 -1.178278,0.29316 l 0.04269,0.17109 0.14993,-0.0928 c -0.228247,-0.369 -0.414161,-0.66957 -0.617361,-0.99801 l -0.07902,-0.1277 -0.138995,0.0579 c -0.399697,0.16652 -0.756003,0.31504 -1.1049,0.46038 l 0.06773,0.16263 0.135113,-0.11324 c -0.293158,-0.3496 -0.539397,-0.64382 -0.795161,-0.94862 l -0.09349,-0.11183 -0.127353,0.0709 c -0.366889,0.20461 -0.67698,0.37747 -1.073855,0.59831 l 0.08573,0.15416 0.140758,-0.10654 c -0.250825,-0.3309 -0.48895,-0.64452 -0.727075,-0.95885 l -0.09948,-0.13123 -0.137584,0.0903 c -0.42298,0.27658 -0.743655,0.48613 -1.082322,0.70767 l 0.09666,0.14746 0.11042,-0.13758 c -0.335139,-0.26846 -0.635706,-0.5087 -0.949325,-0.75988 l -0.115006,-0.0921 -0.111125,0.097 c -0.317853,0.27728 -0.585258,0.50976 -0.883356,0.76976 l 0.116064,0.13299 0.0956,-0.14816 c -0.354894,-0.22966 -0.675569,-0.43674 -1.1303,-0.73096 l -0.146403,-0.0949 -0.09631,0.14534 c -0.21837,0.32914 -0.437445,0.65934 -0.636764,0.95956 l 0.147108,0.0974 0.07691,-0.15875 c -0.48507,-0.2346 -0.829734,-0.40075 -1.160286,-0.56056 l -0.121709,-0.0589 -0.08855,0.10196 c -0.303036,0.34995 -0.554214,0.64099 -0.795514,0.91934 l 0.13335,0.11535 0.0702,-0.16157 c -0.3937,-0.1711 -0.72002,-0.31256 -1.064683,-0.46214 l -0.136878,-0.0596 -0.08114,0.12489 c -0.236008,0.3623 -0.446617,0.6858 -0.668161,1.02623 l 0.147814,0.096 0.04657,-0.17004 c -0.411691,-0.11253 -0.781403,-0.21378 -1.13665,-0.31079 l -0.135114,-0.0367 -0.06632,0.12312 c -0.21343,0.39405 -0.396169,0.73201 -0.579614,1.07103 l 0.155222,0.084 0.0321,-0.17321 c -0.424039,-0.079 -0.770467,-0.14394 -1.135592,-0.21202 l -0.142522,-0.0268 -0.05362,0.13476 c -0.159456,0.39934 -0.301625,0.756 -0.448028,1.12395 l 0.164042,0.0653 0.01094,-0.17603 c -0.414161,-0.0261 -0.768703,-0.048 -1.145822,-0.0716 l -0.138642,-0.009 -0.04092,0.133 c -0.124531,0.40358 -0.23742,0.77082 -0.346075,1.12254 l 0.168628,0.0522 -0.02081,-0.17533 c -0.439561,0.0519 -0.820209,0.097 -1.188509,0.14041 l -0.135114,0.0159 -0.0187,0.13476 c -0.05962,0.4251 -0.108303,0.77258 -0.153811,1.0989 l 0.174625,0.0243 -0.03669,-0.17251 c -0.436739,0.0935 -0.813858,0.17392 -1.182864,0.25259 l -0.129822,0.0279 -0.0092,0.13229 c -0.02963,0.4258 -0.05397,0.77928 -0.08008,1.15005 l 0.176036,0.012 -0.04904,-0.16934 c -0.374297,0.10866 -0.713317,0.20744 -1.08973,0.3168 l -0.127353,0.0367 v 0.13264 c 0,0.41628 0,0.80081 0,1.19451 h 0.176389 l -0.06103,-0.16545 c -0.371122,0.13723 -0.700969,0.25964 -1.043869,0.38664 l -0.136173,0.0504 0.02328,0.14358 c 0.07091,0.43497 0.131939,0.81068 0.189089,1.16169 l 0.174272,-0.0282 -0.08467,-0.15487 c -0.402519,0.21908 -0.739069,0.40217 -1.064683,0.57926 l -0.133703,0.0727 0.05221,0.14287 c 0.147814,0.40428 0.268464,0.73554 0.40005,1.09608 l 0.165806,-0.0603 -0.09172,-0.15099 c -0.376061,0.2286 -0.707672,0.42968 -1.049161,0.63711 l -0.131233,0.0794 0.06068,0.14111 c 0.17145,0.39935 0.322791,0.75142 0.483305,1.12501 l 0.161925,-0.0699 -0.10795,-0.13935 c -0.3429,0.26564 -0.645583,0.49954 -0.945444,0.73166 l -0.121356,0.0938 0.0762,0.133 c 0.226131,0.39582 0.416278,0.72849 0.683684,1.19662 l 0.153105,-0.0875 -0.09172,-0.15063 c -0.358775,0.21837 -0.69462,0.42227 -1.0033,0.60995 l -0.166158,0.10125 0.117122,0.15557 c 0.339372,0.45156 0.55245,0.73519 0.78493,1.04493 l 0.141112,-0.10583 -0.136173,-0.11254 c -0.269875,0.32738 -0.513291,0.62195 -0.771172,0.93486 l -0.09984,0.12065 0.108303,0.11324 c 0.29845,0.31327 0.542925,0.56939 0.825852,0.86643 l 0.127706,-0.12171 -0.146403,-0.0984 c -0.265641,0.39476 -0.462139,0.68792 -0.669925,0.9966 l -0.08502,0.12665 0.112889,0.1023 c 0.325261,0.29563 0.613833,0.55845 0.899936,0.81845 l 0.118886,-0.13053 -0.158044,-0.0787 c -0.191559,0.38559 -0.363362,0.7306 -0.52952,1.06574 l -0.06597,0.13229 0.118886,0.0878 c 0.360186,0.26706 0.669925,0.49636 0.964847,0.71473 l 0.105128,-0.14146 -0.165806,-0.0603 c -0.148166,0.40993 -0.269169,0.74507 -0.38735,1.07315 l -0.04798,0.13265 0.118887,0.0759 c 0.362655,0.23106 0.688975,0.43885 1.016705,0.6484 l 0.0949,-0.14887 -0.170744,-0.0448 c -0.105833,0.40428 -0.195086,0.74259 -0.291395,1.10842 l -0.03775,0.14358 0.135467,0.0617 c 0.40005,0.18239 0.748947,0.34114 1.12395,0.51188 l 0.07303,-0.16051 -0.173919,-0.0296 c -0.06809,0.40182 -0.126648,0.74789 -0.191206,1.12748 l -0.02505,0.14746 0.141816,0.0487 c 0.412398,0.14181 0.778228,0.2674 1.152878,0.39617 l 0.05715,-0.16687 h -0.176389 c 0,0.41875 0,0.79552 0,1.18004 v 0.1397 l 0.13582,0.0321 c 0.425803,0.10018 0.798336,0.18803 1.143353,0.26987 l 0.04057,-0.1718 -0.17533,0.019 c 0.04657,0.42898 0.08467,0.77858 0.121708,1.12042 l 0.01446,0.13441 0.133703,0.0212 c 0.443088,0.0691 0.822325,0.12841 1.172986,0.18309 l 0.02716,-0.17428 -0.172156,0.0385 c 0.09419,0.42227 0.171097,0.76941 0.248356,1.11548 l 0.02928,0.13053 0.13335,0.007 c 0.438503,0.0236 0.825147,0.0448 1.206148,0.0653 l 0.0095,-0.17604 -0.168628,0.0515 c 0.120297,0.39405 0.221897,0.72778 0.333375,1.09361 l 0.04339,0.14147 0.146756,-0.018 c 0.439561,-0.054 0.818092,-0.0998 1.199444,-0.14675 l -0.02152,-0.17533 -0.162983,0.0674 c 0.161925,0.39229 0.297744,0.72072 0.444853,1.07809 l 0.05468,0.13229 0.140758,-0.0261 c 0.422275,-0.0787 0.80645,-0.15028 1.215673,-0.22683 l -0.03246,-0.17322 -0.155222,0.0836 c 0.1905,0.35349 0.37218,0.69109 0.558447,1.03646 l 0.06985,0.13018 0.140406,-0.0462 c 0.428625,-0.14075 0.795866,-0.26176 1.159228,-0.38135 l -0.05503,-0.16757 -0.143933,0.1016 c 0.262114,0.37148 0.486481,0.68968 0.695678,0.98531 l 0.08431,0.11924 0.132997,-0.061 c 0.4064,-0.18627 0.759178,-0.34819 1.125008,-0.51647 l -0.07373,-0.16016 -0.136525,0.11148 c 0.266347,0.32667 0.491772,0.60325 0.741891,0.90946 l 0.09525,0.11677 0.130175,-0.0755 c 0.365831,-0.21272 0.702028,-0.40816 1.063978,-0.61806 l -0.0889,-0.15275 -0.119591,0.12946 c 0.305152,0.28293 0.587727,0.54469 0.884766,0.81951 l 0.108656,0.10089 0.117828,-0.09 c 0.35313,-0.26846 0.6604,-0.502 0.947561,-0.72072 l -0.106892,-0.14005 -0.101247,0.14428 c 0.376414,0.26423 0.690386,0.48507 1.008592,0.70838 l 0.117827,0.0825 0.104775,-0.0991 c 0.312914,-0.29669 0.572559,-0.54257 0.856898,-0.8121 l -0.121356,-0.1277 -0.0889,0.15205 c 0.363714,0.21272 0.699206,0.40887 1.041047,0.60819 l 0.123825,0.0723 0.09596,-0.10653 c 0.28575,-0.31715 0.545042,-0.60502 0.803275,-0.89112 l -0.13088,-0.11818 -0.07338,0.16016 c 0.401108,0.1845 0.748594,0.34396 1.078794,0.49565 l 0.130175,0.0596 0.08502,-0.115 c 0.280811,-0.37818 0.512233,-0.69004 0.729897,-0.98355 l -0.141817,-0.10513 -0.06103,0.16546 c 0.404636,0.14993 0.739422,0.27375 1.101372,0.40781 l 0.140053,0.0519 0.07408,-0.12947 c 0.215195,-0.37606 0.408164,-0.71297 0.606072,-1.05869 l -0.153105,-0.0878 -0.03493,0.17286 c 0.422628,0.0857 0.798336,0.16157 1.172633,0.23707 l 0.137936,0.0279 0.0575,-0.12841 c 0.182386,-0.40535 0.338667,-0.75424 0.487186,-1.08374 l -0.160866,-0.0723 -0.02293,0.17498 c 0.42545,0.0557 0.776464,0.10195 1.146175,0.15028 l 0.1397,0.0187 0.04868,-0.13264 c 0.151695,-0.41134 0.282575,-0.76659 0.422275,-1.14653 l -0.165452,-0.0607 v 0.17639 c 0.41028,0 0.764469,0 1.16205,0 h 0.143933 l 0.02857,-0.14111 c 0.08467,-0.41346 0.16122,-0.78811 0.233892,-1.14512 l -0.172509,-0.0349 0.02787,0.17392 c 0.452261,-0.0723 0.831144,-0.133 1.186392,-0.1898 l 0.13335,-0.0212 0.01411,-0.1344 c 0.04551,-0.42757 0.08255,-0.77858 0.117828,-1.10773 l -0.175331,-0.0187 0.04198,0.17109 c 0.436386,-0.10724 0.807861,-0.19861 1.143705,-0.28116 l 0.134056,-0.0332 v -0.13829 c 0,-0.43709 0,-0.78775 0,-1.17581 H 90.35585 l 0.05327,0.16828 c 0.38735,-0.12242 0.753886,-0.23742 1.133828,-0.35737 l 0.141817,-0.0444 -0.02011,-0.14746 c -0.05821,-0.43109 -0.109361,-0.80962 -0.158397,-1.17298 l -0.174625,0.0236 0.07408,0.16016 c 0.412397,-0.19085 0.757414,-0.34995 1.086202,-0.502 l 0.131587,-0.0607 -0.03387,-0.1404 c -0.100895,-0.42051 -0.182739,-0.762 -0.264583,-1.10384 l -0.17145,0.0409 0.09843,0.1464 c 0.366183,-0.24589 0.681919,-0.45861 0.992716,-0.6671 l 0.111478,-0.0748 -0.04233,-0.12735 c -0.133703,-0.40147 -0.244475,-0.73308 -0.361245,-1.08303 l -0.167216,0.0557 0.1016,0.14428 c 0.338313,-0.23848 0.626886,-0.44203 0.956027,-0.6738 l 0.124178,-0.0875 -0.06844,-0.13617 c -0.187325,-0.37183 -0.35948,-0.71367 -0.539397,-1.07068 l -0.157692,0.0794 0.118534,0.13088 c 0.330905,-0.29986 0.615597,-0.55704 0.891116,-0.80645 l 0.109714,-0.0991 -0.07832,-0.12524 c -0.233539,-0.37359 -0.43815,-0.69991 -0.629709,-1.00647 l -0.149578,0.0935 0.131234,0.11782 -0.131234,-0.11782 -0.149577,0.0935 c 0.191911,0.30692 0.396169,0.63324 0.629708,1.00648 l 0.149578,-0.0935 -0.118533,-0.13088 c -0.27552,0.24941 -0.560212,0.50694 -0.891117,0.80645 l -0.09948,0.0903 0.06033,0.11995 c 0.179917,0.35701 0.352073,0.69885 0.539398,1.07068 l 0.157691,-0.0794 -0.1016,-0.14393 c -0.329141,0.23177 -0.617714,0.43533 -0.956027,0.6738 l -0.107245,0.0755 0.04127,0.12453 c 0.117122,0.34995 0.227542,0.68121 0.361245,1.08267 l 0.167216,-0.0557 -0.09843,-0.1464 c -0.310797,0.20885 -0.626533,0.42122 -0.992717,0.6671 l -0.1016,0.0684 0.02857,0.11924 c 0.08185,0.34149 0.163337,0.68333 0.264584,1.10384 l 0.17145,-0.0413 -0.07408,-0.16016 c -0.328789,0.15205 -0.673806,0.31115 -1.086556,0.502 l -0.118181,0.0547 0.01729,0.12912 c 0.04904,0.36336 0.100189,0.74189 0.158398,1.17298 l 0.174977,-0.0236 -0.05327,-0.16828 c -0.379589,0.11995 -0.746125,0.23495 -1.133828,0.35737 l -0.123472,0.0388 v 0.12947 c 0,0.38806 0,0.73872 0,1.17581 h 0.176389 l -0.04233,-0.1711 c -0.335138,0.0825 -0.706966,0.17392 -1.143352,0.28117 l -0.119945,0.0296 -0.01305,0.12312 c -0.03528,0.32949 -0.07232,0.68051 -0.117827,1.10807 l 0.17533,0.0187 -0.02787,-0.17427 c -0.355247,0.0568 -0.734131,0.11747 -1.186392,0.18979 l -0.12065,0.0194 -0.02434,0.11959 c -0.07267,0.3563 -0.149577,0.73131 -0.233891,1.14476 l 0.172861,0.0353 V 145.816 c -0.397228,0 -0.75177,0 -1.16205,0 h -0.12312 l -0.04269,0.11536 c -0.139347,0.37959 -0.270228,0.73484 -0.421922,1.14653 l 0.165453,0.061 0.02293,-0.17498 c -0.369358,-0.0487 -0.720725,-0.0949 -1.146175,-0.15064 l -0.129822,-0.0169 -0.05397,0.11959 c -0.14852,0.32985 -0.3048,0.67839 -0.487186,1.08374 l 0.160866,0.0723 0.03493,-0.17287 c -0.373944,-0.0755 -0.7493,-0.15169 -1.17228,-0.23706 l -0.124884,-0.025 -0.06315,0.11042 c -0.197555,0.34572 -0.390878,0.68263 -0.606072,1.05869 l 0.153106,0.0875 0.06138,-0.16546 c -0.361597,-0.1337 -0.696736,-0.25788 -1.101372,-0.40781 l -0.124178,-0.0459 -0.07867,0.10619 c -0.218016,0.29351 -0.449086,0.60536 -0.729897,0.98354 l 0.141817,0.10513 0.07338,-0.16016 c -0.3302,-0.1517 -0.677334,-0.31115 -1.078795,-0.49566 l -0.117828,-0.054 -0.08678,0.0963 c -0.258586,0.28645 -0.517878,0.57432 -0.803275,0.89147 l 0.13088,0.11783 0.0889,-0.1524 c -0.341841,-0.19932 -0.677333,-0.39547 -1.041047,-0.60784 l -0.1143,-0.0667 -0.09596,0.091 c -0.284339,0.26917 -0.543984,0.51541 -0.856898,0.8121 l 0.121356,0.1277 0.101247,-0.14429 c -0.317853,-0.2233 -0.632178,-0.44414 -1.008592,-0.70837 l -0.10548,-0.0741 -0.102659,0.0783 c -0.286808,0.21837 -0.59443,0.45191 -0.947561,0.72073 l 0.106892,0.1404 0.119944,-0.12947 c -0.297038,-0.27517 -0.579613,-0.53693 -0.884766,-0.8195 l -0.0956,-0.0889 -0.112889,0.0656 c -0.361597,0.21025 -0.697794,0.40534 -1.063625,0.61806 l 0.08855,0.1524 0.136525,-0.11148 c -0.250119,-0.30621 -0.475544,-0.58278 -0.741892,-0.90946 l -0.08643,-0.10583 -0.124178,0.0572 c -0.36583,0.16792 -0.718255,0.32985 -1.124655,0.51647 l 0.07373,0.16016 0.143933,-0.10196 c -0.208844,-0.29492 -0.433211,-0.61348 -0.695325,-0.9846 l -0.07549,-0.10689 -0.123825,0.0409 c -0.363714,0.11959 -0.730956,0.2406 -1.159228,0.38136 l 0.05503,0.16756 0.155223,-0.0836 c -0.185914,-0.34573 -0.367948,-0.68333 -0.558448,-1.03682 l -0.06103,-0.11324 -0.126647,0.0236 c -0.409223,0.0765 -0.793398,0.14816 -1.21532,0.22683 l 0.03246,0.17322 0.162983,-0.0674 c -0.147461,-0.35701 -0.283281,-0.6858 -0.445206,-1.07774 l -0.05115,-0.12418 -0.13335,0.0162 c -0.381353,0.0469 -0.759531,0.0931 -1.199092,0.14676 l 0.02152,0.17497 0.168628,-0.0515 c -0.11183,-0.36513 -0.21343,-0.69921 -0.333728,-1.09326 l -0.03598,-0.11783 -0.123119,-0.007 c -0.381001,-0.0208 -0.767292,-0.042 -1.206148,-0.0656 l -0.0095,0.17604 0.172156,-0.0381 c -0.07691,-0.34643 -0.154164,-0.69321 -0.248356,-1.11549 l -0.02611,-0.11747 -0.118886,-0.0187 c -0.350662,-0.0547 -0.729898,-0.11394 -1.172987,-0.18309 l -0.02716,0.17427 0.175331,-0.019 c -0.03704,-0.34219 -0.07514,-0.69179 -0.121708,-1.12077 l -0.01341,-0.12383 -0.121355,-0.0289 c -0.345017,-0.0815 -0.71755,-0.16934 -1.143353,-0.26953 l -0.04057,0.17145 H 61.9728 c 0,-0.38452 0,-0.76129 0,-1.18004 v -0.12629 l -0.119239,-0.0406 c -0.374297,-0.12877 -0.740128,-0.25436 -1.152525,-0.39582 l -0.0575,0.16686 0.17392,0.0293 c 0.06456,-0.37959 0.123119,-0.72567 0.191205,-1.12713 l 0.02293,-0.1337 -0.123472,-0.0565 c -0.375356,-0.17074 -0.7239,-0.32949 -1.124303,-0.51188 l -0.07303,0.16052 0.170392,0.0448 c 0.09631,-0.36583 0.185561,-0.70415 0.291747,-1.10843 l 0.03245,-0.12418 -0.108302,-0.0691 c -0.328084,-0.20955 -0.654403,-0.41734 -1.016706,-0.64841 l -0.0949,0.14888 0.166158,0.0596 c 0.118181,-0.32809 0.238831,-0.66323 0.386997,-1.07245 l 0.0448,-0.12382 -0.105833,-0.078 c -0.29457,-0.21837 -0.604309,-0.44803 -0.964848,-0.71508 l -0.104775,0.14182 0.157692,0.0787 c 0.166511,-0.33514 0.337961,-0.68016 0.52952,-1.06574 l 0.05927,-0.11924 -0.09842,-0.0896 c -0.286102,-0.26 -0.574675,-0.52282 -0.900289,-0.81844 l -0.118533,0.13052 0.146403,0.0984 c 0.207786,-0.30903 0.404283,-0.60184 0.669925,-0.9966 l 0.07902,-0.11783 -0.09772,-0.1023 c -0.283281,-0.29704 -0.527403,-0.55316 -0.826206,-0.86642 l -0.127706,0.1217 0.136173,0.11219 c 0.25788,-0.31256 0.501297,-0.60713 0.771525,-0.93451 l 0.08819,-0.10724 -0.08326,-0.11113 c -0.232834,-0.30974 -0.445912,-0.59302 -0.785284,-1.04493 l -0.141111,0.10584 0.09172,0.15063 c 0.308328,-0.18732 0.644173,-0.39158 1.0033,-0.60995 l 0.146403,-0.0889 -0.08502,-0.14923 c -0.267406,-0.46813 -0.457553,-0.8008 -0.683684,-1.19662 l -0.153105,0.0875 0.107597,0.1397 c 0.300214,-0.23213 0.602897,-0.46602 0.945797,-0.73166 l 0.10795,-0.0836 -0.05362,-0.12559 c -0.160514,-0.37359 -0.311855,-0.72566 -0.483305,-1.12501 l -0.162278,0.0695 0.09172,0.15099 c 0.341489,-0.20743 0.6731,-0.40852 1.049161,-0.63712 l 0.123825,-0.0751 -0.04974,-0.13617 c -0.131586,-0.36019 -0.251883,-0.69145 -0.399697,-1.09608 l -0.165805,0.0603 0.08431,0.15523 c 0.325613,-0.1771 0.662163,-0.36019 1.065036,-0.57962 l 0.109714,-0.06 -0.02011,-0.12347 c -0.05715,-0.35102 -0.11818,-0.72672 -0.189089,-1.1617 l -0.174272,0.0282 0.06138,0.16546 c 0.343253,-0.127 0.672748,-0.24942 1.04387,-0.38665 l 0.115006,-0.0427 v -0.12276 c 0,-0.3937 0,-0.77823 0,-1.19451 H 61.21783 l 0.04939,0.16934 c 0.376413,-0.10937 0.715433,-0.20779 1.08973,-0.31645 l 0.118181,-0.0346 0.0085,-0.12276 c 0.02575,-0.37077 0.05045,-0.72426 0.08008,-1.14971 l -0.176036,-0.0123 0.03669,0.1725 c 0.369005,-0.0787 0.745772,-0.15945 1.182864,-0.25259 l 0.12065,-0.0257 0.01729,-0.12241 c 0.04516,-0.32597 0.09384,-0.67381 0.153458,-1.09855 l -0.174625,-0.0243 0.02046,0.17497 c 0.368653,-0.0434 0.7493,-0.0885 1.188861,-0.1404 l 0.113948,-0.0134 0.03387,-0.10971 c 0.108303,-0.35172 0.221545,-0.71896 0.345723,-1.12289 l -0.168628,-0.0519 -0.01094,0.17603 c 0.377472,0.0236 0.732014,0.0455 1.145822,0.0716 l 0.127706,0.008 0.04727,-0.11853 c 0.146403,-0.36795 0.288572,-0.72461 0.448028,-1.12395 l -0.164042,-0.0653 -0.03246,0.17357 c 0.365125,0.0681 0.711906,0.133 1.135945,0.21202 l 0.126294,0.0233 0.06138,-0.11289 c 0.183091,-0.33902 0.366183,-0.67698 0.579261,-1.07138 l -0.155222,-0.0836 -0.04621,0.17004 c 0.354894,0.097 0.724605,0.19791 1.136297,0.31079 l 0.124178,0.0339 0.0702,-0.10795 c 0.221544,-0.34043 0.432152,-0.66393 0.667808,-1.02588 l -0.147461,-0.0963 -0.0702,0.16192 c 0.344664,0.14958 0.670983,0.29104 1.064683,0.46214 l 0.118887,0.0515 0.08467,-0.0977 c 0.2413,-0.2787 0.492831,-0.56974 0.795514,-0.91934 l -0.13335,-0.11536 -0.0769,0.15875 c 0.330905,0.15981 0.675569,0.32632 1.160639,0.56056 l 0.138288,0.067 0.08537,-0.12806 c 0.198966,-0.30021 0.418041,-0.63077 0.636411,-0.95955 l -0.146756,-0.0977 -0.09596,0.14816 c 0.45473,0.29422 0.775053,0.50165 1.130653,0.73131 l 0.111477,0.072 0.09984,-0.0871 c 0.298098,-0.26 0.565503,-0.49248 0.883356,-0.77011 l -0.115711,-0.13265 -0.11042,0.13759 c 0.31362,0.25082 0.614187,0.49142 0.949326,0.75988 l 0.09984,0.0797 0.106891,-0.0699 c 0.338667,-0.2219 0.658989,-0.4311 1.08197,-0.70767 l -0.09631,-0.14782 -0.140759,0.10654 c 0.238125,0.31433 0.47625,0.62795 0.727075,0.95885 l 0.09243,0.12206 0.133703,-0.0744 c 0.396875,-0.22084 0.707319,-0.3937 1.074208,-0.59832 l -0.08608,-0.15416 -0.135114,0.11324 c 0.255412,0.3048 0.502003,0.59902 0.795162,0.94897 l 0.08325,0.0991 0.119592,-0.0498 c 0.348897,-0.14534 0.705203,-0.29351 1.105253,-0.46037 l -0.06773,-0.16298 -0.14993,0.0928 c 0.2032,0.32843 0.388761,0.629 0.617361,0.998 l 0.06773,0.10972 0.124884,-0.031 c 0.362302,-0.0903 0.733072,-0.18238 1.177925,-0.29315 l -0.04233,-0.17145 -0.158044,0.0787 c 0.161219,0.32491 0.330553,0.6657 0.523522,1.0534 l 0.05715,0.11465 0.126295,-0.0187 c 0.396169,-0.0579 0.778227,-0.11359 1.205089,-0.17603 l -0.0254,-0.17427 -0.166511,0.0586 c 0.122766,0.34854 0.240241,0.68227 0.373591,1.0608 l 0.04163,0.11783 h 0.124883 c 0.391231,0 0.776817,0 1.213203,0 v -0.17639 l -0.16898,0.0501 c 0.105833,0.35878 0.214841,0.72743 0.338666,1.14583 l 0.03704,0.12629 h 0.131939 c 0.387703,0 0.740833,0 1.147586,0 v -0.17639 l -0.174272,0.0265 c 0.06068,0.40252 0.113594,0.75036 0.178153,1.17651 l 0.0187,0.12277 0.122061,0.024 c 0.351367,0.0688 0.729544,0.14287 1.176514,0.23072 l 0.03387,-0.17322 -0.176037,0.0138 c 0.02787,0.36089 0.05715,0.74119 0.09066,1.17016 l 0.0095,0.12277 0.118534,0.0335 c 0.3429,0.097 0.680155,0.19261 1.058333,0.2995 l 0.04833,-0.16968 h -0.176389 c 0,0.39652 0,0.78034 0,1.20191 v 0.12347 l 0.116064,0.0423 c 0.361244,0.13052 0.694619,0.25153 1.088319,0.39405 l 0.06033,-0.16581 -0.173567,-0.0321 c -0.07161,0.38841 -0.141463,0.76518 -0.221544,1.1998 l -0.02469,0.133 0.122061,0.0582 c 0.359127,0.17145 0.707319,0.33797 1.081264,0.51647 l 0.07585,-0.1591 -0.167922,-0.0543 c -0.131586,0.40675 -0.25012,0.77294 -0.376414,1.16417 l -0.04375,0.13476 0.122414,0.0716 c 0.348545,0.20426 0.658284,0.38594 1.029406,0.60325 l 0.08925,-0.1524 -0.162984,-0.0677 c -0.14358,0.34431 -0.291041,0.69744 -0.460728,1.10419 l -0.05009,0.12065 0.100894,0.0833 c 0.306212,0.25259 0.604662,0.49883 0.934156,0.77011 l 0.111831,-0.13617 -0.150989,-0.0907 c -0.206023,0.34325 -0.407459,0.67909 -0.623006,1.03857 l -0.07408,0.12312 0.106186,0.0974 c 0.286103,0.26317 0.548922,0.50483 0.86995,0.79975 l 0.119592,-0.12982 -0.144286,-0.1016 c -0.226484,0.32208 -0.445912,0.63394 -0.698501,0.99377 l -0.07549,0.10795 0.08149,0.10301 c 0.231775,0.29281 0.470252,0.59373 0.744008,0.9391 l 0.138289,-0.10936 -0.131586,-0.11783 c -0.251884,0.28116 -0.488597,0.54504 -0.780345,0.86995 l -0.08855,0.0988 0.07056,0.11253 0.149577,-0.0935"
       style="fill:#1a1417;fill-opacity:1;fill-rule:nonzero;stroke:none;stroke-width:0.0352778" />
    <path
       id="path213"
       d="m 4405.21,2986.74 c 0,0 27.6,-85.87 -3.06,-174.19 -20.01,-57.63 -74.84,-179.1 -41.71,-291.97 18.4,-42.93 34.35,-71.15 9.81,-80.96 -24.54,-9.81 -121.44,-29.44 -180.33,9.81 -7.36,13.5 17.18,46.62 24.53,77.29 7.37,30.67 -2.45,176.65 -45.39,268.65 -42.93,92.01 -12.26,190.15 -12.26,190.15 l 248.41,1.22"
       style="fill:#ffffff;fill-opacity:1;fill-rule:nonzero;stroke:none"
       transform="matrix(0.03527778,0,0,-0.03527778,-74.581447,234.90096)"
       clip-path="url(#clipPath214)" />
    <path
       id="path215"
       d="m 4390.22,2922.95 c 0,0 11.93,-44.8 -34.69,-174.95 -17.68,-49.35 -23.94,-180.55 -19.02,-219.15 4.23,-33.14 -1.23,-35.74 -1.23,-35.74 0,0 -34.96,-42.11 -108.56,-1.91 9.21,82.3 12.55,177.58 -8.28,238.61 -20.24,59.34 -59.8,125.06 -39.56,192.05 60.72,-9.57 156.4,-15.31 211.34,1.09"
       style="fill:#fab20f;fill-opacity:1;fill-rule:nonzero;stroke:none"
       transform="matrix(0.03527778,0,0,-0.03527778,-74.581447,234.90096)"
       clip-path="url(#clipPath216)" />
    <path
       id="path217"
       d="m 4358.44,2946.57 c 0,0 14.72,-33.89 -4.07,-133.23 -8.29,-34.83 -18.3,-82.7 -18.3,-82.7 0,0 53.75,127.69 43.62,208.1 -0.5,6.11 -21.25,7.83 -21.25,7.83"
       style="fill:#ffffff;fill-opacity:1;fill-rule:nonzero;stroke:none"
       transform="matrix(0.03527778,0,0,-0.03527778,-74.581447,234.90096)"
       clip-path="url(#clipPath218)" />
    <path
       id="path219"
       d="m 4199.12,2826.66 c 0,0 17.18,-41.1 33.13,-92.01 13.14,-41.97 21.76,-152.43 6.43,-256.08 22.08,-6.13 22.08,-6.13 22.08,-6.13 0,0 9.2,171.12 -10.12,243.81 -16.34,61.48 -51.52,110.41 -51.52,110.41"
       style="fill:#ffffff;fill-opacity:1;fill-rule:nonzero;stroke:none"
       transform="matrix(0.03527778,0,0,-0.03527778,-74.581447,234.90096)"
       clip-path="url(#clipPath220)" />
    <path
       id="path221"
       d="m 4383.7,3049.63 c -3.1,0 -6.04,-0.59 -8.89,-1.42 -2.96,13.12 -15.34,22.17 -28.98,20.48 -5.85,-0.72 -10.97,-3.36 -14.94,-7.13 l -0.33,0.02 c -1,9.5 -6.73,18.27 -16.06,22.52 -10.9,4.98 -23.27,2.28 -31.27,-5.74 -5.5,18.41 -23.58,30.73 -43.28,28.29 -21.72,-2.68 -37.19,-22.26 -34.93,-43.93 -2.63,3.24 -5.93,5.99 -9.97,7.84 -14.01,6.4 -30.57,0.22 -36.96,-13.79 -3.86,-8.46 -3.08,-17.8 1.18,-25.32 -12.06,-4.44 -20.72,-15.93 -20.72,-29.54 0,-14.87 10.31,-27.25 24.15,-30.6 -3.07,-5.43 -4.97,-11.61 -4.97,-18.29 0,-20.67 16.76,-37.43 37.44,-37.43 20.66,0 37.42,16.76 37.42,37.43 v 0.04 l 1.04,-0.62 c 12.06,-5.51 25.96,-1.66 33.69,8.44 2.89,-2.36 6.1,-4.43 9.65,-6.05 16.74,-7.64 35.74,-4.08 48.56,7.53 5.59,-6.48 14.2,-10.15 23.34,-9.02 14.53,1.8 24.86,15.03 23.06,29.57 -0.29,2.41 -1,4.64 -1.88,6.79 4.14,-2.01 8.74,-3.23 13.65,-3.23 17.44,0 31.58,14.14 31.58,31.58 0,17.44 -14.14,31.58 -31.58,31.58"
       style="fill:#ffffff;fill-opacity:1;fill-rule:nonzero;stroke:none"
       transform="matrix(0.03527778,0,0,-0.03527778,-74.581447,234.90096)"
       clip-path="url(#clipPath222)" />
    <path
       id="path223"
       d="m 4383.7,3049.63 v 2.6 c -3.44,0 -6.63,-0.65 -9.62,-1.53 l 0.73,-2.49 2.54,0.57 c -3,13.24 -14.72,22.71 -28.26,22.71 -1.18,0 -2.38,-0.07 -3.58,-0.22 -6.44,-0.79 -12.07,-3.71 -16.41,-7.83 l 1.79,-1.88 0.19,2.59 -0.33,0.02 -0.19,-2.59 2.58,0.27 c -1.08,10.35 -7.35,19.96 -17.56,24.61 -4.07,1.86 -8.35,2.75 -12.55,2.75 -8.08,-0.01 -15.89,-3.25 -21.64,-9.01 l 1.84,-1.84 2.49,0.75 c -5.36,17.94 -21.94,30.44 -40.82,30.45 -1.74,0 -3.5,-0.11 -5.27,-0.33 -21.62,-2.67 -37.43,-21.06 -37.43,-42.31 0,-1.48 0.08,-2.97 0.24,-4.47 l 2.58,0.27 2.02,1.64 c -2.84,3.5 -6.46,6.53 -10.91,8.56 -4.1,1.87 -8.41,2.77 -12.65,2.77 -11.57,0 -22.64,-6.63 -27.76,-17.84 -1.85,-4.07 -2.73,-8.33 -2.73,-12.53 0,-5.34 1.42,-10.56 4.02,-15.15 l 2.26,1.28 -0.9,2.44 c -13.04,-4.8 -22.41,-17.24 -22.41,-31.98 0,-16.1 11.15,-29.5 26.12,-33.13 l 0.62,2.53 -2.27,1.27 c -3.25,-5.76 -5.29,-12.39 -5.29,-19.56 0,-22.11 17.92,-40.03 40.03,-40.03 22.1,0 40.01,17.92 40.01,40.03 v 0.04 h -2.59 l -1.32,-2.24 1.05,-0.62 0.11,-0.07 0.12,-0.05 c 4.09,-1.87 8.38,-2.75 12.6,-2.75 9.38,0 18.4,4.36 24.24,11.97 l -2.07,1.58 -1.64,-2.01 c 3.04,-2.49 6.44,-4.68 10.22,-6.41 6.35,-2.9 13.02,-4.27 19.59,-4.27 11.71,0 23.08,4.37 31.78,12.25 l -1.74,1.92 -1.97,-1.7 c 5.4,-6.25 13.35,-10.12 22.03,-10.12 1.19,0 2.39,0.07 3.59,0.22 14.75,1.83 25.55,14.36 25.55,28.86 0,1.19 -0.07,2.4 -0.22,3.61 -0.33,2.71 -1.13,5.18 -2.06,7.45 l -2.4,-0.98 -1.13,-2.34 c 4.44,-2.16 9.44,-3.48 14.78,-3.48 18.88,0 34.18,15.29 34.18,34.17 0,18.88 -15.3,34.18 -34.18,34.18 v -2.6 -2.59 c 16.01,-0.03 28.96,-12.98 28.99,-28.99 -0.03,-16.01 -12.98,-28.95 -28.99,-28.98 -4.48,0 -8.68,1.11 -12.52,2.96 l -6.11,2.96 2.58,-6.28 c 0.82,-2.01 1.45,-4.02 1.71,-6.12 0.12,-1 0.18,-1.99 0.18,-2.97 0,-11.89 -8.88,-22.21 -20.99,-23.7 -1,-0.13 -1.99,-0.19 -2.96,-0.19 -7.11,0 -13.65,3.18 -18.1,8.33 l -1.74,2.01 -1.97,-1.78 c -7.73,-7.01 -17.87,-10.91 -28.29,-10.91 -5.84,0 -11.77,1.22 -17.44,3.81 -3.33,1.52 -6.34,3.46 -9.08,5.7 l -2.08,1.69 -1.63,-2.12 c -4.83,-6.32 -12.34,-9.94 -20.11,-9.94 -3.49,0 -7.04,0.73 -10.44,2.28 l -1.08,-2.36 1.32,2.24 -1.04,0.61 -3.92,2.31 v -4.58 c -0.03,-19.24 -15.6,-34.8 -34.82,-34.83 -19.24,0.03 -34.8,15.59 -34.84,34.83 0,6.18 1.75,11.91 4.63,17.01 l 1.69,2.99 -3.34,0.81 c -12.71,3.08 -22.16,14.45 -22.16,28.08 0,12.48 7.93,23.02 19.02,27.11 l 2.86,1.05 -1.5,2.66 c -2.17,3.83 -3.34,8.17 -3.34,12.59 0,3.48 0.72,6.99 2.26,10.37 4.24,9.31 13.42,14.8 23.03,14.8 3.51,0 7.08,-0.73 10.49,-2.29 3.64,-1.66 6.62,-4.14 9.03,-7.11 l 5.52,-6.8 -0.92,8.7 c -0.14,1.32 -0.2,2.63 -0.2,3.93 0,18.65 13.88,34.82 32.87,37.16 1.56,0.19 3.1,0.28 4.63,0.28 16.55,0.01 31.14,-10.99 35.84,-26.74 l 1.25,-4.18 3.08,3.09 c 4.77,4.78 11.28,7.48 17.96,7.48 3.48,0 7.01,-0.72 10.39,-2.27 8.45,-3.85 13.64,-11.78 14.55,-20.43 l 0.23,-2.16 2.5,-0.18 1.14,-0.09 0.84,0.79 c 3.61,3.43 8.21,5.8 13.47,6.45 0.99,0.12 1.97,0.18 2.94,0.18 11.08,0 20.73,-7.77 23.19,-18.67 l 0.61,-2.69 2.66,0.77 c 2.69,0.8 5.38,1.33 8.15,1.33 v 2.59"
       style="fill:#1a1417;fill-opacity:1;fill-rule:nonzero;stroke:none"
       transform="matrix(0.03527778,0,0,-0.03527778,-74.581447,234.90096)"
       clip-path="url(#clipPath224)" />
    <path
       id="path225"
       d="m 4188,3003.22 c -5.84,10.94 0.1,26.96 12.98,31.38 12.94,4.35 28.13,-4.52 30.86,-18.3 l -5.11,-0.81 c -0.88,7.3 4.47,13.46 10.98,15.11 6.63,1.45 13.05,-1.24 17.52,-5.35 l -4.12,-2.86 c -4.78,12.6 1.18,27.68 13.05,33.35 11.81,5.68 26.76,0.65 32.62,-9.95 -7.39,9.52 -21.36,12.04 -30.93,6.69 -9.48,-5.47 -13.97,-18.4 -9.94,-28.19 l 4.22,-10.28 -8.35,7.42 c -3.56,3.17 -8.57,4.9 -12.79,3.8 -4.06,-0.84 -7.7,-5.14 -7.13,-9.04 l -5.11,-0.8 c -1.69,10.47 -14.04,18.44 -24.69,15.68 -10.65,-2.89 -18.11,-16.23 -14.06,-27.85"
       style="fill:#1a1417;fill-opacity:1;fill-rule:nonzero;stroke:none"
       transform="matrix(0.03527778,0,0,-0.03527778,-74.581447,234.90096)"
       clip-path="url(#clipPath226)" />
    <path
       id="path227"
       d="m 4289.02,2989.96 c -5.04,4.41 -6.73,11.95 -5.64,18.74 1.07,6.8 6.22,13.8 13.81,15.38 7.67,1.76 15.31,-2.08 19.84,-7.75 4.7,-5.82 6.17,-13.35 5.67,-20.3 l -4.97,1.29 c 1.8,3.48 3.91,7.36 7.64,10.05 3.75,2.58 9.08,3.47 13.2,0.55 4,-3.16 4.32,-8.14 3.63,-12 -0.69,-4.01 -2.56,-7.76 -5.38,-10.45 2.09,3.26 3.3,6.97 3.32,10.65 0.03,3.6 -0.98,7.45 -3.53,8.94 -2.48,1.49 -6.19,0.63 -8.47,-1.37 -2.49,-2.03 -4.18,-5.2 -5.7,-8.62 l -5.66,-12.77 0.7,14.06 c 0.3,5.99 -1.21,12.07 -4.72,16.55 -3.46,4.44 -9.24,7.37 -14.6,6.43 -5.52,-0.89 -10.18,-5.4 -11.75,-11.34 -1.54,-5.75 -1.3,-12.76 2.61,-18.04"
       style="fill:#1a1417;fill-opacity:1;fill-rule:nonzero;stroke:none"
       transform="matrix(0.03527778,0,0,-0.03527778,-74.581447,234.90096)"
       clip-path="url(#clipPath228)" />
    <path
       id="path229"
       d="m 4306.64,2828.04 c 10.26,0 10.28,15.94 0,15.94 -10.26,0 -10.28,-15.94 0,-15.94"
       style="fill:#ffffff;fill-opacity:1;fill-rule:nonzero;stroke:none"
       transform="matrix(0.03527778,0,0,-0.03527778,-74.581447,234.90096)"
       clip-path="url(#clipPath230)" />
    <path
       id="path231"
       d="m 4292.98,2700.24 v 1.36 l -0.34,1.53 -0.82,1.28 -1.29,0.83 -1.54,0.34 -1.06,-0.14 -1.76,-1.03 -0.62,-0.8 -0.54,-2.01 v -1.36 l 0.34,-1.54 0.82,-1.28 1.29,-0.83 1.53,-0.34 1.07,0.14 1.76,1.03 0.62,0.8 0.54,2.02"
       style="fill:#ffffff;fill-opacity:1;fill-rule:nonzero;stroke:none"
       transform="matrix(0.03527778,0,0,-0.03527778,-74.581447,234.90096)"
       clip-path="url(#clipPath232)" />
    <path
       id="path233"
       d="m 4231.97,2849.67 c 5.13,0 5.14,7.97 0,7.97 -5.13,0 -5.14,-7.97 0,-7.97"
       style="fill:#ffffff;fill-opacity:1;fill-rule:nonzero;stroke:none"
       transform="matrix(0.03527778,0,0,-0.03527778,-74.581447,234.90096)"
       clip-path="url(#clipPath234)" />
    <path
       id="path235"
       d="m 4340.59,2884.97 c 5.13,0 5.13,7.98 0,7.98 -5.14,0 -5.14,-7.98 0,-7.98"
       style="fill:#ffffff;fill-opacity:1;fill-rule:nonzero;stroke:none"
       transform="matrix(0.03527778,0,0,-0.03527778,-74.581447,234.90096)"
       clip-path="url(#clipPath236)" />
    <path
       id="path237"
       d="m 65.05612,142.63193 c -0.208139,-1.15182 -1.4986,-2.21051 -2.701925,-2.1777 0.575028,1.23084 1.382536,2.03835 2.701925,2.1777"
       style="fill:#1a1417;fill-opacity:1;fill-rule:nonzero;stroke:none;stroke-width:0.0352778" />
    <path
       id="path238"
       d="m 64.274717,123.9407 c -0.867833,1.00542 -1.304572,2.18863 -1.442508,3.64808 1.086203,-0.53446 1.717675,-2.1262 1.442508,-3.64808"
       style="fill:#1a1417;fill-opacity:1;fill-rule:nonzero;stroke:none;stroke-width:0.0352778" />
    <path
       id="path239"
       d="m 62.444506,129.58973 c 1.043164,-0.17745 2.137481,-1.74272 2.039761,-2.909 -1.063272,0.56656 -1.713441,1.52153 -2.039761,2.909"
       style="fill:#1a1417;fill-opacity:1;fill-rule:nonzero;stroke:none;stroke-width:0.0352778" />
    <path
       id="path240"
       d="m 62.048337,137.92128 c 0.03493,1.26013 0.99695,2.53048 2.017889,2.66277 -0.09842,-1.22061 -1.060803,-2.49132 -2.017889,-2.66277"
       style="fill:#1a1417;fill-opacity:1;fill-rule:nonzero;stroke:none;stroke-width:0.0352778" />
    <path
       id="path241"
       d="m 61.079962,127.57043 c -0.348898,1.29046 0.07726,3.07517 0.848783,3.64525 0.278342,-1.38818 -0.02011,-2.57457 -0.848783,-3.64525"
       style="fill:#1a1417;fill-opacity:1;fill-rule:nonzero;stroke:none;stroke-width:0.0352778" />
    <path
       id="path242"
       d="m 61.866656,124.73798 c -0.523169,1.39629 -0.440972,2.63384 0.162983,4.05341 0.472723,-1.44074 0.550687,-2.68322 -0.162983,-4.05341"
       style="fill:#1a1417;fill-opacity:1;fill-rule:nonzero;stroke:none;stroke-width:0.0352778" />
    <path
       id="path243"
       d="m 60.237175,130.38278 c -0.03775,1.34725 0.772584,2.8074 1.77165,3.21521 -0.1778,-1.41993 -0.70485,-2.50825 -1.77165,-3.21521"
       style="fill:#1a1417;fill-opacity:1;fill-rule:nonzero;stroke:none;stroke-width:0.0352778" />
    <path
       id="path244"
       d="m 60.493645,132.9891 c 0.09595,1.40829 0.889,2.59926 1.983669,3.03212 -0.208138,-1.43333 -0.902405,-2.34421 -1.983669,-3.03212"
       style="fill:#1a1417;fill-opacity:1;fill-rule:nonzero;stroke:none;stroke-width:0.0352778" />
    <path
       id="path245"
       d="m 60.525395,135.52945 c 0.452614,1.23719 1.617486,2.16006 2.669469,2.11773 -0.620888,-1.25554 -1.443214,-1.99637 -2.669469,-2.11773"
       style="fill:#1a1417;fill-opacity:1;fill-rule:nonzero;stroke:none;stroke-width:0.0352778" />
    <path
       id="path246"
       d="m 64.020717,131.27707 c -1.094316,0.63006 -1.749778,1.98755 -1.605139,3.31752 0.983545,-0.80927 1.397706,-1.92476 1.605139,-3.31752"
       style="fill:#1a1417;fill-opacity:1;fill-rule:nonzero;stroke:none;stroke-width:0.0352778" />
    <path
       id="path247"
       d="m 62.930634,134.28979 c -0.221545,1.53317 0.08749,2.72556 0.935919,3.90031 0.21202,-1.52576 -0.05221,-2.73332 -0.935919,-3.90031"
       style="fill:#1a1417;fill-opacity:1;fill-rule:nonzero;stroke:none;stroke-width:0.0352778" />
    <path
       id="path248"
       d="m 64.340687,137.83062 c 0.819503,0.8061 1.188861,2.53647 0.853722,3.85868 -0.767644,-0.47131 -1.195211,-2.34244 -0.853722,-3.85868"
       style="fill:#1a1417;fill-opacity:1;fill-rule:nonzero;stroke:none;stroke-width:0.0352778" />
    <path
       id="path249"
       d="m 62.327737,132.26343 c 0.993422,-0.36442 1.783997,-2.1029 1.475669,-3.23215 -0.941917,0.75072 -1.407936,1.80834 -1.475669,3.23215"
       style="fill:#1a1417;fill-opacity:1;fill-rule:nonzero;stroke:none;stroke-width:0.0352778" />
    <path
       id="path250"
       d="m 87.100499,143.07784 c 0.207786,-1.15217 1.498953,-2.21086 2.701925,-2.17805 -0.575027,1.23084 -1.382536,2.0387 -2.701925,2.17805"
       style="fill:#1a1417;fill-opacity:1;fill-rule:nonzero;stroke:none;stroke-width:0.0352778" />
    <path
       id="path251"
       d="m 87.881549,124.38696 c 0.867834,1.00507 1.304925,2.18828 1.443214,3.64737 -1.086555,-0.5341 -1.718028,-2.12548 -1.443214,-3.64737"
       style="fill:#1a1417;fill-opacity:1;fill-rule:nonzero;stroke:none;stroke-width:0.0352778" />
    <path
       id="path252"
       d="m 89.712113,130.03564 c -1.043164,-0.17744 -2.13748,-1.74272 -2.039761,-2.909 1.06292,0.56656 1.713795,1.52153 2.039761,2.909"
       style="fill:#1a1417;fill-opacity:1;fill-rule:nonzero;stroke:none;stroke-width:0.0352778" />
    <path
       id="path253"
       d="m 90.108283,138.3672 c -0.03493,1.26047 -0.99695,2.53012 -2.017536,2.66276 0.09807,-1.22096 1.06045,-2.49131 2.017536,-2.66276"
       style="fill:#1a1417;fill-opacity:1;fill-rule:nonzero;stroke:none;stroke-width:0.0352778" />
    <path
       id="path254"
       d="m 91.076658,128.01634 c 0.348897,1.29046 -0.07761,3.07517 -0.848784,3.64526 -0.278341,-1.38783 0.02011,-2.57458 0.848784,-3.64526"
       style="fill:#1a1417;fill-opacity:1;fill-rule:nonzero;stroke:none;stroke-width:0.0352778" />
    <path
       id="path255"
       d="m 90.289963,125.18389 c 0.523523,1.39629 0.440973,2.63384 -0.16263,4.05377 -0.473075,-1.44075 -0.550686,-2.68323 0.16263,-4.05377"
       style="fill:#1a1417;fill-opacity:1;fill-rule:nonzero;stroke:none;stroke-width:0.0352778" />
    <path
       id="path256"
       d="m 91.919797,130.82869 c 0.03739,1.34726 -0.772936,2.8074 -1.772003,3.21521 0.1778,-1.41993 0.705203,-2.50825 1.772003,-3.21521"
       style="fill:#1a1417;fill-opacity:1;fill-rule:nonzero;stroke:none;stroke-width:0.0352778" />
    <path
       id="path257"
       d="m 91.662975,133.43501 c -0.0956,1.40794 -0.889,2.59927 -1.98367,3.03248 0.208139,-1.43404 0.902406,-2.34456 1.98367,-3.03248"
       style="fill:#1a1417;fill-opacity:1;fill-rule:nonzero;stroke:none;stroke-width:0.0352778" />
    <path
       id="path258"
       d="m 91.630872,135.97501 c -0.452261,1.23754 -1.617134,2.16006 -2.669117,2.11808 0.621242,-1.25554 1.443567,-1.99637 2.669117,-2.11808"
       style="fill:#1a1417;fill-opacity:1;fill-rule:nonzero;stroke:none;stroke-width:0.0352778" />
    <path
       id="path259"
       d="m 88.135902,131.72298 c 1.094317,0.63006 1.749778,1.98755 1.605139,3.31787 -0.983544,-0.80962 -1.397706,-1.9251 -1.605139,-3.31787"
       style="fill:#1a1417;fill-opacity:1;fill-rule:nonzero;stroke:none;stroke-width:0.0352778" />
    <path
       id="path260"
       d="m 89.226338,134.73605 c 0.221545,1.53247 -0.08784,2.72521 -0.936272,3.89961 -0.212019,-1.52541 0.05256,-2.73297 0.936272,-3.89961"
       style="fill:#1a1417;fill-opacity:1;fill-rule:nonzero;stroke:none;stroke-width:0.0352778" />
    <path
       id="path261"
       d="m 87.815933,138.27653 c -0.81915,0.8061 -1.188862,2.53647 -0.853723,3.85904 0.767998,-0.47202 1.195212,-2.3428 0.853723,-3.85904"
       style="fill:#1a1417;fill-opacity:1;fill-rule:nonzero;stroke:none;stroke-width:0.0352778" />
    <path
       id="path262"
       d="m 89.829236,132.70935 c -0.993775,-0.36442 -1.784703,-2.10291 -1.476376,-3.23215 0.94227,0.75071 1.408289,1.80833 1.476376,3.23215"
       style="fill:#1a1417;fill-opacity:1;fill-rule:nonzero;stroke:none;stroke-width:0.0352778" />
    <path
       id="path263"
       d="m 92.940383,143.13287 c 0.117828,-0.41628 0.205669,-0.83432 0.280106,-1.25271 -3.926417,-2.04329 -9.476318,-3.37785 -15.655221,-3.49779 -6.97477,-0.13512 -13.209765,1.30633 -17.244484,3.65548 0.06562,2.14524 1.237897,4.12432 2.666647,5.83812 3.875617,-1.54693 8.951031,-2.43417 14.492112,-2.32657 5.030259,0.0974 9.64424,0.99977 13.304662,2.43381 0.896056,-1.53317 1.671461,-3.13478 2.156178,-4.85034"
       style="fill:#ffffff;fill-opacity:1;fill-rule:nonzero;stroke:none;stroke-width:0.0352778" />
    <path
       id="path264"
       d="m 68.172559,140.94812 0.602192,0.87912 1.065742,0.002 -0.65017,0.8442 0.327025,1.01423 -1.004005,-0.35736 -0.863248,0.62406 0.02963,-1.06503 -0.860778,-0.6283 1.02235,-0.30092 0.331258,-1.01247"
       style="fill:#1a1417;fill-opacity:1;fill-rule:nonzero;stroke:none;stroke-width:0.0352778" />
    <path
       id="path265"
       d="m 85.513705,141.03067 0.303741,1.02164 1.013531,0.32879 -0.877358,0.60431 3.52e-4,1.06574 -0.845961,-0.64805 -1.01353,0.32949 0.354894,-1.00436 -0.626533,-0.86218 1.065036,0.0272 0.625828,-0.86254"
       style="fill:#1a1417;fill-opacity:1;fill-rule:nonzero;stroke:none;stroke-width:0.0352778" />
    <path
       id="path266"
       d="m 88.480919,142.78891 0.121355,0.71402 0.657578,0.30445 -0.641703,0.33655 -0.08678,0.71932 -0.518231,-0.50659 -0.710141,0.14005 0.321028,-0.64911 -0.352778,-0.63253 0.716844,0.10477 0.492831,-0.53093"
       style="fill:#1a1417;fill-opacity:1;fill-rule:nonzero;stroke:none;stroke-width:0.0352778" />
    <path
       id="path267"
       d="m 64.924534,142.79209 0.494947,0.52881 0.716139,-0.1076 -0.349955,0.6343 0.32385,0.6477 -0.7112,-0.13723 -0.516114,0.50835 -0.08961,-0.71896 -0.642761,-0.33373 0.655814,-0.30691 0.118886,-0.71473"
       style="fill:#1a1417;fill-opacity:1;fill-rule:nonzero;stroke:none;stroke-width:0.0352778" />
    <text
       xml:space="preserve"
       style="font-size:3.96875px;line-height:1.6px;font-family:Onion;-inkscape-font-specification:Onion;text-align:center;letter-spacing:0.108479px;word-spacing:0.0132292px;text-anchor:middle;fill:#000000;fill-opacity:1;stroke:#000000;stroke-width:0.275;stroke-dasharray:none;stroke-opacity:1"
       x="76.762321"
       y="143.6369"
       id="text1"><tspan
         sodipodi:role="line"
         id="tspan1"
         style="font-style:normal;font-variant:normal;font-weight:normal;font-stretch:normal;font-size:3.96875px;line-height:1.6px;font-family:rob;-inkscape-font-specification:rob;fill:#000000;fill-opacity:1;stroke-width:0.275"
         x="76.816559"
         y="143.6369">2021</tspan></text>
  </g>
</svg>
