<?xml version="1.0" encoding="UTF-8" standalone="no"?>
<!-- Created with Inkscape (http://www.inkscape.org/) -->

<svg
   width="39.949623mm"
   height="39.923519mm"
   viewBox="0 0 39.949623 39.923519"
   version="1.1"
   id="svg1"
   inkscape:version="1.3.1 (91b66b0783, 2023-11-16, custom)"
   sodipodi:docname="award_1.svg"
   xmlns:inkscape="http://www.inkscape.org/namespaces/inkscape"
   xmlns:sodipodi="http://sodipodi.sourceforge.net/DTD/sodipodi-0.dtd"
   xmlns="http://www.w3.org/2000/svg"
   xmlns:svg="http://www.w3.org/2000/svg">
  <sodipodi:namedview
     id="namedview1"
     pagecolor="#ffffff"
     bordercolor="#000000"
     borderopacity="0.25"
     inkscape:showpageshadow="2"
     inkscape:pageopacity="0.0"
     inkscape:pagecheckerboard="0"
     inkscape:deskcolor="#d1d1d1"
     inkscape:document-units="mm"
     inkscape:zoom="2.9944796"
     inkscape:cx="58.774819"
     inkscape:cy="86.49249"
     inkscape:window-width="1456"
     inkscape:window-height="784"
     inkscape:window-x="0"
     inkscape:window-y="0"
     inkscape:window-maximized="1"
     inkscape:current-layer="layer1" />
  <defs
     id="defs1">
    <clipPath
       clipPathUnits="userSpaceOnUse"
       id="clipPath82">
      <path
         d="m 3174.9,4234.2 c 0,-170.03 -137.84,-307.87 -307.88,-307.87 -170.03,0 -307.87,137.84 -307.87,307.87 0,170.04 137.84,307.88 307.87,307.88 170.04,0 307.88,-137.84 307.88,-307.88"
         id="path82" />
    </clipPath>
    <clipPath
       clipPathUnits="userSpaceOnUse"
       id="clipPath84">
      <path
         d="m 3174.9,4234.2 c 0,-170.03 -137.84,-307.87 -307.88,-307.87 -170.03,0 -307.87,137.84 -307.87,307.87 0,170.04 137.84,307.88 307.87,307.88 170.04,0 307.88,-137.84 307.88,-307.88"
         id="path84" />
    </clipPath>
    <clipPath
       clipPathUnits="userSpaceOnUse"
       id="clipPath86">
      <path
         d="m 3174.9,4234.2 c 0,-170.03 -137.84,-307.87 -307.88,-307.87 -170.03,0 -307.87,137.84 -307.87,307.87 0,170.04 137.84,307.88 307.87,307.88 170.04,0 307.88,-137.84 307.88,-307.88"
         id="path86" />
    </clipPath>
    <clipPath
       clipPathUnits="userSpaceOnUse"
       id="clipPath88">
      <path
         d="m 3174.9,4234.2 c 0,-170.03 -137.84,-307.87 -307.88,-307.87 -170.03,0 -307.87,137.84 -307.87,307.87 0,170.04 137.84,307.88 307.87,307.88 170.04,0 307.88,-137.84 307.88,-307.88"
         id="path88" />
    </clipPath>
    <clipPath
       clipPathUnits="userSpaceOnUse"
       id="clipPath90">
      <path
         d="m 3174.9,4234.2 c 0,-170.03 -137.84,-307.87 -307.88,-307.87 -170.03,0 -307.87,137.84 -307.87,307.87 0,170.04 137.84,307.88 307.87,307.88 170.04,0 307.88,-137.84 307.88,-307.88"
         id="path90" />
    </clipPath>
    <clipPath
       clipPathUnits="userSpaceOnUse"
       id="clipPath92">
      <path
         d="m 3174.9,4234.2 c 0,-170.03 -137.84,-307.87 -307.88,-307.87 -170.03,0 -307.87,137.84 -307.87,307.87 0,170.04 137.84,307.88 307.87,307.88 170.04,0 307.88,-137.84 307.88,-307.88"
         id="path92" />
    </clipPath>
    <clipPath
       clipPathUnits="userSpaceOnUse"
       id="clipPath94">
      <path
         d="m 3174.9,4234.2 c 0,-170.03 -137.84,-307.87 -307.88,-307.87 -170.03,0 -307.87,137.84 -307.87,307.87 0,170.04 137.84,307.88 307.87,307.88 170.04,0 307.88,-137.84 307.88,-307.88"
         id="path94" />
    </clipPath>
    <clipPath
       clipPathUnits="userSpaceOnUse"
       id="clipPath96">
      <path
         d="m 3174.9,4234.2 c 0,-170.03 -137.84,-307.87 -307.88,-307.87 -170.03,0 -307.87,137.84 -307.87,307.87 0,170.04 137.84,307.88 307.87,307.88 170.04,0 307.88,-137.84 307.88,-307.88"
         id="path96" />
    </clipPath>
    <clipPath
       clipPathUnits="userSpaceOnUse"
       id="clipPath98">
      <path
         d="m 3174.9,4234.2 c 0,-170.03 -137.84,-307.87 -307.88,-307.87 -170.03,0 -307.87,137.84 -307.87,307.87 0,170.04 137.84,307.88 307.87,307.88 170.04,0 307.88,-137.84 307.88,-307.88"
         id="path98" />
    </clipPath>
    <clipPath
       clipPathUnits="userSpaceOnUse"
       id="clipPath100">
      <path
         d="m 3174.9,4234.2 c 0,-170.03 -137.84,-307.87 -307.88,-307.87 -170.03,0 -307.87,137.84 -307.87,307.87 0,170.04 137.84,307.88 307.87,307.88 170.04,0 307.88,-137.84 307.88,-307.88"
         id="path100" />
    </clipPath>
    <clipPath
       clipPathUnits="userSpaceOnUse"
       id="clipPath102">
      <path
         d="m 3174.9,4234.2 c 0,-170.03 -137.84,-307.87 -307.88,-307.87 -170.03,0 -307.87,137.84 -307.87,307.87 0,170.04 137.84,307.88 307.87,307.88 170.04,0 307.88,-137.84 307.88,-307.88"
         id="path102" />
    </clipPath>
    <clipPath
       clipPathUnits="userSpaceOnUse"
       id="clipPath104">
      <path
         d="m 3174.9,4234.2 c 0,-170.03 -137.84,-307.87 -307.88,-307.87 -170.03,0 -307.87,137.84 -307.87,307.87 0,170.04 137.84,307.88 307.87,307.88 170.04,0 307.88,-137.84 307.88,-307.88"
         id="path104" />
    </clipPath>
    <clipPath
       clipPathUnits="userSpaceOnUse"
       id="clipPath106">
      <path
         d="m 3174.9,4234.2 c 0,-170.03 -137.84,-307.87 -307.88,-307.87 -170.03,0 -307.87,137.84 -307.87,307.87 0,170.04 137.84,307.88 307.87,307.88 170.04,0 307.88,-137.84 307.88,-307.88"
         id="path106" />
    </clipPath>
    <clipPath
       clipPathUnits="userSpaceOnUse"
       id="clipPath108">
      <path
         d="m 3174.9,4234.2 c 0,-170.03 -137.84,-307.87 -307.88,-307.87 -170.03,0 -307.87,137.84 -307.87,307.87 0,170.04 137.84,307.88 307.87,307.88 170.04,0 307.88,-137.84 307.88,-307.88"
         id="path108" />
    </clipPath>
    <clipPath
       clipPathUnits="userSpaceOnUse"
       id="clipPath110">
      <path
         d="m 3174.9,4234.2 c 0,-170.03 -137.84,-307.87 -307.88,-307.87 -170.03,0 -307.87,137.84 -307.87,307.87 0,170.04 137.84,307.88 307.87,307.88 170.04,0 307.88,-137.84 307.88,-307.88"
         id="path110" />
    </clipPath>
    <clipPath
       clipPathUnits="userSpaceOnUse"
       id="clipPath112">
      <path
         d="m 3174.9,4234.2 c 0,-170.03 -137.84,-307.87 -307.88,-307.87 -170.03,0 -307.87,137.84 -307.87,307.87 0,170.04 137.84,307.88 307.87,307.88 170.04,0 307.88,-137.84 307.88,-307.88"
         id="path112" />
    </clipPath>
    <clipPath
       clipPathUnits="userSpaceOnUse"
       id="clipPath114">
      <path
         d="m 3174.9,4234.2 c 0,-170.03 -137.84,-307.87 -307.88,-307.87 -170.03,0 -307.87,137.84 -307.87,307.87 0,170.04 137.84,307.88 307.87,307.88 170.04,0 307.88,-137.84 307.88,-307.88"
         id="path114" />
    </clipPath>
  </defs>
  <g
     inkscape:label="Layer 1"
     inkscape:groupmode="layer"
     id="layer1"
     transform="translate(-53.710424,-87.577066)">
    <path
       id="path75"
       d="m 93.021369,106.22832 c -0.680509,-0.72532 -1.105253,-1.50495 -1.26365,-2.33434 h -0.01376 c -0.135819,-0.84948 -0.01976,-1.74907 0.306564,-2.69345 0.306917,-0.89006 0.160514,-1.652415 -0.823383,-2.099384 -1.908881,-0.866775 -2.96545,-2.333626 -3.017661,-4.466167 -0.02752,-1.116542 -0.654403,-1.583973 -1.714853,-1.635831 -1.967442,-0.09596 -3.42265,-0.995186 -4.226984,-2.825397 -0.512586,-1.165931 -1.361017,-1.39065 -2.470856,-0.963084 -1.825272,0.703086 -3.419475,0.279753 -4.815064,-1.008592 -0.906992,-0.837494 -1.799167,-0.834319 -2.647244,0.01552 -1.465792,1.468966 -3.177117,1.523294 -4.990042,0.903816 -1.047398,-0.358069 -1.754364,-0.06562 -2.197453,0.912989 -0.8509,1.879248 -2.325159,2.838803 -4.360334,2.919589 -1.116189,0.0441 -1.643592,0.595137 -1.688747,1.676753 -0.08608,2.053167 -1.065389,3.495323 -2.941462,4.343753 -0.963788,0.436034 -1.305277,1.111955 -0.906638,2.181225 0.41275,1.10737 0.479425,2.16394 0.181327,3.14713 l 0.04798,3.6e-4 c -0.208139,0.69144 -0.596194,1.3469 -1.165578,1.96779 -0.758472,0.82656 -0.842433,1.66053 -0.01729,2.50896 1.453797,1.49472 1.634067,3.22403 0.978253,5.13679 -0.305506,0.89042 -0.156986,1.65277 0.827969,2.09727 1.910292,0.86289 2.969684,2.32727 3.026834,4.45982 0.02999,1.11654 0.657578,1.58256 1.718733,1.63195 1.967442,0.0921 3.424062,0.98813 4.232628,2.81657 0.515056,1.16488 1.364192,1.38748 2.472973,0.9578 1.823861,-0.70697 3.419122,-0.28681 4.817181,0.99836 0.908755,0.83537 1.801283,0.83044 2.647244,-0.0212 1.46297,-1.47214 3.173942,-1.53035 4.987926,-0.91475 1.048455,0.35595 1.754716,0.0621 2.195689,-0.91758 0.847019,-1.88101 2.319161,-2.84409 4.353983,-2.92911 1.115836,-0.0466 1.642181,-0.59867 1.68522,-1.68064 0.08149,-2.05316 1.057628,-3.49743 2.932289,-4.3501 0.962731,-0.4378 1.302456,-1.11442 0.9017,-2.18263 -0.711553,-1.89689 -0.414867,-3.64843 1.015294,-5.13469 0.849137,-0.883 0.685095,-1.7152 -0.06879,-2.51953"
       style="fill:#f79517;fill-opacity:1;fill-rule:nonzero;stroke:none;stroke-width:0.0352778" />
    <path
       id="path76"
       d="m 90.459849,107.71527 h -0.159103 c 0,4.58223 -1.857022,8.72879 -4.859514,11.73198 -3.003197,3.00249 -7.149747,4.85916 -11.731978,4.85916 -4.581878,0 -8.728781,-1.85667 -11.731626,-4.85916 -3.002492,-3.00319 -4.859514,-7.14975 -4.859514,-11.73198 0,-4.58187 1.857022,-8.728424 4.859514,-11.731622 3.002845,-3.002492 7.149748,-4.859161 11.731626,-4.859161 4.582231,0 8.728781,1.856669 11.731978,4.859161 3.002492,3.003198 4.859514,7.149752 4.859514,11.731622 h 0.159103 0.159103 c -3.53e-4,-9.33873 -7.570964,-16.908989 -16.909698,-16.908989 -9.338734,0 -16.908993,7.570259 -16.908993,16.908989 0,9.33909 7.570259,16.90935 16.908993,16.90935 9.338734,0 16.909345,-7.57026 16.909698,-16.90935 h -0.159103"
       style="fill:#1a1417;fill-opacity:1;fill-rule:nonzero;stroke:none;stroke-width:0.0352778" />
    <path
       id="path77"
       d="m 59.922445,106.93181 h -1.021127 c 0.06615,-0.12816 0.14056,-0.19844 0.49196,-0.45475 0.417546,-0.30593 0.541569,-0.48369 0.541569,-0.81442 0,-0.46302 -0.322461,-0.76068 -0.826823,-0.76068 -0.496094,0 -0.789616,0.29352 -0.789616,0.80202 v 0.0868 h 0.458887 v -0.0786 c 0,-0.26872 0.124023,-0.42582 0.343131,-0.42582 0.21084,0 0.338998,0.1447 0.338998,0.38861 0,0.26872 -0.08268,0.3638 -0.620117,0.74414 -0.405144,0.28112 -0.529167,0.49196 -0.549838,0.93845 h 1.632976 z m 1.244368,-2.02985 c -0.256315,0 -0.479557,0.10749 -0.624251,0.30593 -0.14056,0.18603 -0.202572,0.49196 -0.202572,0.96324 0,0.42582 0.05374,0.72347 0.169499,0.90951 0.14056,0.23151 0.376204,0.35553 0.657324,0.35553 0.260449,0 0.475423,-0.10748 0.624251,-0.30592 0.136426,-0.18604 0.202572,-0.49609 0.202572,-0.94671 0,-0.44235 -0.05374,-0.74001 -0.169499,-0.92604 -0.14056,-0.23152 -0.376204,-0.35554 -0.657324,-0.35554 z m 0,0.38034 c 0.124023,0 0.219108,0.0703 0.276986,0.1943 0.04961,0.10336 0.07855,0.36381 0.07855,0.69453 0,0.27286 -0.02481,0.53744 -0.06201,0.63666 -0.05374,0.14056 -0.157096,0.21911 -0.293522,0.21911 -0.124023,0 -0.219108,-0.062 -0.276986,-0.18604 -0.04961,-0.0992 -0.07441,-0.3514 -0.07441,-0.67386 0,-0.28525 0.02067,-0.55811 0.06201,-0.65732 0.04961,-0.1447 0.152962,-0.22738 0.289388,-0.22738 z m 26.339476,1.67638 h -1.021126 c 0.06615,-0.12815 0.14056,-0.19843 0.491959,-0.45475 0.417546,-0.30592 0.54157,-0.48369 0.54157,-0.81442 0,-0.46302 -0.322461,-0.76068 -0.826823,-0.76068 -0.496094,0 -0.789616,0.29353 -0.789616,0.80202 v 0.0868 h 0.458887 v -0.0786 c 0,-0.26872 0.124023,-0.42581 0.343131,-0.42581 0.21084,0 0.338997,0.14469 0.338997,0.3886 0,0.26872 -0.08268,0.3638 -0.620117,0.74414 -0.405143,0.28112 -0.529166,0.49196 -0.549837,0.93845 h 1.632975 z m 1.124479,-1.23196 v 1.65778 h 0.475424 v -2.40606 h -0.314193 c -0.07441,0.28526 -0.322461,0.42995 -0.735873,0.42995 v 0.31833 z m 0,0"
       style="fill:#ffffff;fill-opacity:1;fill-rule:nonzero;stroke:none;stroke-width:0.352778"
       aria-label="20&#10;21" />
    <path
       id="path78"
       d="m 60.142478,102.10082 0.548922,0.17815 0.458258,-0.35137 v 0.57715 l 0.475898,0.32737 -0.548923,0.17851 -0.164041,0.55351 -0.339372,-0.46673 -0.577498,0.0148 0.339373,-0.46708 -0.192617,-0.54433"
       style="fill:#1a1417;fill-opacity:1;fill-rule:nonzero;stroke:none;stroke-width:0.0352778" />
    <path
       id="path79"
       d="m 84.758254,107.83275 c 0,5.99863 -4.862689,10.86132 -10.861323,10.86132 -5.998633,0 -10.861322,-4.86269 -10.861322,-10.86132 0,-5.99863 4.862689,-10.861324 10.861322,-10.861324 5.998634,0 10.861323,4.862694 10.861323,10.861324"
       style="fill:#1a1417;fill-opacity:1;fill-rule:nonzero;stroke:none;stroke-width:0.0352778" />
    <path
       id="path80"
       d="m 84.758254,107.83275 h -0.127352 c -3.53e-4,2.96439 -1.201209,5.64727 -3.143956,7.59001 -1.942747,1.94275 -4.625623,3.14396 -7.590015,3.14396 -2.964391,0 -5.647267,-1.20121 -7.590014,-3.14396 -1.942747,-1.94274 -3.143956,-4.62562 -3.143956,-7.59001 0,-2.96439 1.201209,-5.64727 3.143956,-7.59002 1.942747,-1.942743 4.625623,-3.143951 7.590014,-3.143951 2.964392,0 5.647268,1.201208 7.590015,3.143951 1.942747,1.94275 3.143603,4.62563 3.143956,7.59002 h 0.127352 0.127353 c -3.53e-4,-6.06884 -4.919839,-10.988677 -10.988676,-10.988677 -6.068836,0 -10.988675,4.919837 -10.988675,10.988677 0,6.06884 4.919839,10.98867 10.988675,10.98867 6.068837,0 10.988323,-4.91983 10.988676,-10.98867 h -0.127353"
       style="fill:#ffffff;fill-opacity:1;fill-rule:nonzero;stroke:none;stroke-width:0.0352778" />
    <path
       id="path81"
       d="m 2725.42,4241.28 -20.75,-338.74 c 0,0 -4.14,-26.27 29.04,-38.72 33.18,-12.44 127.89,-33.87 229.51,-3.46 20.74,4.16 34.57,26.28 33.19,47.71 -1.38,21.43 -21.43,408.56 -21.43,408.56 l -241.27,1.39 -8.29,-76.74"
       style="fill:#ffffff;fill-opacity:1;fill-rule:nonzero;stroke:none"
       transform="matrix(0.03527778,0,0,-0.03527778,-27.209186,257.12655)"
       clip-path="url(#clipPath82)" />
    <path
       id="path83"
       d="m 2741.4,4223.06 -18.08,-267.36 c 0,0 -3.62,-20.73 25.31,-30.56 28.93,-9.81 111.5,-26.73 200.1,-2.72 18.08,3.27 30.14,20.73 28.93,37.65 -1.2,16.91 -18.69,322.47 -18.69,322.47 l -210.34,1.09 -7.23,-60.57"
       style="fill:#fab20f;fill-opacity:1;fill-rule:nonzero;stroke:none"
       transform="matrix(0.03527778,0,0,-0.03527778,-27.209186,257.12655)"
       clip-path="url(#clipPath84)" />
    <path
       id="path85"
       d="m 2918.29,4303.5 20.05,-241.96 4.15,244.03 z"
       style="fill:#ffffff;fill-opacity:1;fill-rule:nonzero;stroke:none"
       transform="matrix(0.03527778,0,0,-0.03527778,-27.209186,257.12655)"
       clip-path="url(#clipPath86)" />
    <path
       id="path87"
       d="m 2798.05,4145.35 c -0.05,-2.24 -11.11,-241.43 -11.11,-241.43 l 15.9,-1.38 -4.79,242.81"
       style="fill:#ffffff;fill-opacity:1;fill-rule:nonzero;stroke:none"
       transform="matrix(0.03527778,0,0,-0.03527778,-27.209186,257.12655)"
       clip-path="url(#clipPath88)" />
    <path
       id="path89"
       d="m 2761.36,4170.77 -15.21,-253.02 30.42,-5.53 -8.99,170.75 -6.22,87.8"
       style="fill:#ffffff;fill-opacity:1;fill-rule:nonzero;stroke:none"
       transform="matrix(0.03527778,0,0,-0.03527778,-27.209186,257.12655)"
       clip-path="url(#clipPath90)" />
    <path
       id="path91"
       d="m 2803.53,4235.19 c 0,-6.61 -5.36,-11.97 -11.97,-11.97 -6.61,0 -11.97,5.36 -11.97,11.97 0,6.61 5.36,11.97 11.97,11.97 6.61,0 11.97,-5.36 11.97,-11.97"
       style="fill:#ffffff;fill-opacity:1;fill-rule:nonzero;stroke:none"
       transform="matrix(0.03527778,0,0,-0.03527778,-27.209186,257.12655)"
       clip-path="url(#clipPath92)" />
    <path
       id="path93"
       d="m 2827.73,4210.4 c 5.26,0 5.27,8.18 0,8.18 -5.27,0 -5.28,-8.18 0,-8.18"
       style="fill:#ffffff;fill-opacity:1;fill-rule:nonzero;stroke:none"
       transform="matrix(0.03527778,0,0,-0.03527778,-27.209186,257.12655)"
       clip-path="url(#clipPath94)" />
    <path
       id="path95"
       d="m 2757.39,4193.3 c 3.92,0 3.92,6.09 0,6.09 -3.92,0 -3.93,-6.09 0,-6.09"
       style="fill:#ffffff;fill-opacity:1;fill-rule:nonzero;stroke:none"
       transform="matrix(0.03527778,0,0,-0.03527778,-27.209186,257.12655)"
       clip-path="url(#clipPath96)" />
    <path
       id="path97"
       d="m 2902.04,3998.22 h -1.03 l -1.18,-0.26 -0.97,-0.63 -0.64,-0.98 -0.26,-1.18 0.11,-0.81 0.79,-1.34 0.61,-0.48 1.54,-0.41 h 1.03 l 1.17,0.26 0.99,0.63 0.62,0.98 0.27,1.17 -0.11,0.81 -0.78,1.35 -0.62,0.47 -1.54,0.42"
       style="fill:#ffffff;fill-opacity:1;fill-rule:nonzero;stroke:none"
       transform="matrix(0.03527778,0,0,-0.03527778,-27.209186,257.12655)"
       clip-path="url(#clipPath98)" />
    <path
       id="path99"
       d="m 2846.05,4109.31 c 3.92,0 3.93,6.08 0,6.08 -3.92,0 -3.93,-6.08 0,-6.08"
       style="fill:#ffffff;fill-opacity:1;fill-rule:nonzero;stroke:none"
       transform="matrix(0.03527778,0,0,-0.03527778,-27.209186,257.12655)"
       clip-path="url(#clipPath100)" />
    <path
       id="path101"
       d="m 2906.53,4058.9 c 7.85,0 7.86,12.19 0,12.19 -7.83,0 -7.85,-12.19 0,-12.19"
       style="fill:#ffffff;fill-opacity:1;fill-rule:nonzero;stroke:none"
       transform="matrix(0.03527778,0,0,-0.03527778,-27.209186,257.12655)"
       clip-path="url(#clipPath102)" />
    <path
       id="path103"
       d="m 3076.53,4069.37 c -0.72,-5.51 -4.19,-12.03 -8.48,-15.45 -8.75,-6.94 -18.65,-12.64 -28.6,-17.83 -9.9,-5.18 -18.14,-0.44 -18.52,10.63 -2.03,60.35 -3.65,120.71 -5.61,181.06 -0.3,9.07 -1.29,28.19 8.57,29.23 9.39,0.99 16.56,1.96 25.92,0.52 6.74,-1.04 13.48,-9.86 17.38,-31.79 2.91,-16.41 4.69,-34.31 6.34,-50.87 1.69,-17.29 5.65,-85.23 3,-105.5 z m -0.69,201.4 c -23.09,33.42 -50.58,29.44 -86.91,24.55 l 21.17,-337.2 c 0,0 88.5,44.93 93.07,97.78 4.56,52.85 -12.55,193.5 -27.33,214.87"
       style="fill:#ffffff;fill-opacity:1;fill-rule:nonzero;stroke:none"
       transform="matrix(0.03527778,0,0,-0.03527778,-27.209186,257.12655)"
       clip-path="url(#clipPath104)" />
    <path
       id="path105"
       d="m 2973.56,4381.24 c -9.26,1.62 -18.33,-0.18 -25.88,-4.48 l -1.42,0.73 c -2.87,10.89 -11.86,19.7 -23.74,21.78 -7.63,1.34 -15.07,-0.36 -21.12,-4.18 -4.52,11.63 -14.84,20.72 -28.08,23.04 -8.28,1.45 -16.38,0 -23.3,-3.55 -7.18,10.49 -20.02,17.5 -34.74,17.5 -21.67,0 -39.34,-15.19 -40.66,-34.36 -5.43,3.78 -12.01,6.02 -19.14,6.02 -18.51,0 -33.52,-15.01 -33.52,-33.53 0,-1.54 0.14,-3.05 0.34,-4.54 -13.79,-4.16 -23.85,-16.95 -23.85,-32.1 0,-17.01 12.68,-31.03 29.1,-33.2 -3.31,-5.2 -5.25,-11.34 -5.25,-17.95 0,-18.53 15.01,-33.53 33.53,-33.53 3.7,0 7.24,0.62 10.56,1.72 9.77,2.14 18.19,8.45 22.95,17.26 4.92,-5.29 11.92,-8.61 19.72,-8.61 5.71,0 10.98,1.77 15.34,4.8 3.22,-14.5 15.81,-25.42 31.09,-26.16 0.47,-8.7 7.24,-15.93 16.17,-16.62 9.71,-0.74 18.17,6.52 18.93,16.23 0.44,5.77 -2,11.07 -6.05,14.6 2.58,3.67 4.45,7.86 5.39,12.4 3.14,-1.14 6.51,-1.8 10.04,-1.8 11.46,0 21.35,6.57 26.2,16.13 3.77,-0.28 7.43,0.29 10.8,1.54 3.46,-5.32 9.42,-8.85 16.23,-8.85 10.69,0 19.36,8.66 19.36,19.35 0,5.61 -2.42,10.62 -6.23,14.15 18.71,-0.35 35.4,12.81 38.71,31.69 3.66,20.9 -10.43,40.83 -31.48,44.52"
       style="fill:#ffffff;fill-opacity:1;fill-rule:nonzero;stroke:none"
       transform="matrix(0.03527778,0,0,-0.03527778,-27.209186,257.12655)"
       clip-path="url(#clipPath106)" />
    <path
       id="path107"
       d="m 2973.56,4381.24 0.5,2.83 c -2.44,0.42 -4.87,0.63 -7.26,0.63 -7.37,0 -14.42,-1.96 -20.54,-5.44 l 1.42,-2.5 1.31,2.55 -1.41,0.73 -1.32,-2.55 2.77,0.74 c -3.14,11.94 -13,21.58 -26.01,23.87 -1.91,0.33 -3.81,0.49 -5.68,0.49 -6.33,0 -12.36,-1.85 -17.47,-5.07 l 1.53,-2.43 2.67,1.04 c -4.85,12.53 -15.99,22.33 -30.25,24.83 -2.32,0.4 -4.62,0.6 -6.9,0.6 -6.48,0 -12.7,-1.6 -18.21,-4.43 l 1.31,-2.55 2.37,1.62 c -7.75,11.31 -21.48,18.75 -37.11,18.75 -22.98,0.01 -42.05,-16.14 -43.52,-37.04 l 2.86,-0.19 1.64,2.35 c -5.88,4.11 -13.05,6.54 -20.78,6.54 -20.1,0 -36.39,-16.3 -36.39,-36.4 0,-1.72 0.15,-3.36 0.37,-4.93 l 2.84,0.39 -0.83,2.75 c -14.98,-4.51 -25.88,-18.4 -25.89,-34.85 0.01,-18.47 13.76,-33.69 31.59,-36.05 l 0.38,2.85 -2.42,1.54 c -3.59,-5.63 -5.7,-12.32 -5.7,-19.49 0.01,-20.11 16.3,-36.4 36.4,-36.4 4.02,-0.01 7.87,0.67 11.47,1.86 l -0.91,2.73 0.62,-2.8 c 10.58,2.31 19.7,9.14 24.86,18.7 l -2.53,1.36 -2.1,-1.95 c 5.43,-5.85 13.2,-9.54 21.82,-9.53 6.3,-0.01 12.16,1.97 16.98,5.31 l -1.64,2.36 -2.8,-0.63 c 3.49,-15.74 17.16,-27.59 33.75,-28.39 l 0.14,2.86 -2.87,-0.15 c 0.54,-10.11 8.43,-18.52 18.82,-19.33 l 1.59,-0.06 c 10.62,0 19.58,8.18 20.42,18.93 v 0 l 0.06,1.56 c 0,6.12 -2.76,11.66 -7.08,15.43 l -1.89,-2.17 2.35,-1.65 c 2.79,3.97 4.83,8.53 5.85,13.46 l -2.81,0.59 -0.98,-2.7 c 3.42,-1.24 7.13,-1.97 11.02,-1.97 12.58,0 23.44,7.22 28.76,17.7 l -2.56,1.3 -0.21,-2.86 2.11,-0.08 c 3.45,0 6.79,0.64 9.9,1.79 l -1,2.69 -2.4,-1.57 c 3.95,-6.08 10.81,-10.15 18.63,-10.15 12.27,0 22.23,9.94 22.23,22.22 0,6.45 -2.8,12.22 -7.15,16.26 l -1.95,-2.11 -0.06,-2.87 h 0.8 c 19.77,-0.01 37.27,14.03 40.8,34.07 0.41,2.39 0.62,4.77 0.62,7.12 0,19.73 -14.25,37.17 -34.43,40.72 l -0.5,-2.83 -0.49,-2.83 c 17.42,-3.04 29.68,-18.12 29.68,-35.06 0,-2.02 -0.18,-4.07 -0.54,-6.13 -3.01,-17.22 -18.09,-29.32 -35.14,-29.32 h -0.69 l -7.52,0.14 5.52,-5.11 c 3.26,-3.04 5.31,-7.28 5.31,-12.05 -0.02,-9.1 -7.39,-16.47 -16.49,-16.48 -5.8,0 -10.86,3 -13.82,7.54 l -1.25,1.93 -2.16,-0.8 c -2.49,-0.93 -5.15,-1.43 -7.9,-1.43 l -1.68,0.06 -1.91,0.15 -0.87,-1.71 c -4.39,-8.64 -13.31,-14.56 -23.64,-14.56 -3.18,0 -6.21,0.59 -9.06,1.62 l -3.12,1.13 -0.67,-3.24 c -0.85,-4.14 -2.56,-7.96 -4.93,-11.33 l -1.48,-2.11 1.94,-1.7 c 3.15,-2.75 5.12,-6.72 5.12,-11.1 l -0.05,-1.12 v -0.09 0.09 c -0.59,-7.74 -7.06,-13.63 -14.69,-13.63 l -1.15,0.04 c -7.46,0.58 -13.13,6.62 -13.53,13.92 l -0.14,2.59 -2.58,0.12 c -13.98,0.67 -25.49,10.67 -28.43,23.91 l -0.93,4.17 -3.51,-2.44 c -3.9,-2.7 -8.59,-4.28 -13.7,-4.28 -6.97,0 -13.2,2.96 -17.62,7.7 l -2.72,2.93 -1.91,-3.52 c -4.35,-8.08 -12.08,-13.87 -21.03,-15.83 l -0.15,-0.03 -0.14,-0.05 c -3.06,-1.01 -6.29,-1.57 -9.66,-1.57 -16.93,0.03 -30.62,13.72 -30.66,30.66 0.01,6.04 1.77,11.65 4.8,16.41 l 2.42,3.79 -4.46,0.59 c -15.01,1.99 -26.61,14.81 -26.61,30.36 0,13.85 9.2,25.55 21.81,29.35 l 2.34,0.7 -0.33,2.43 c -0.19,1.41 -0.31,2.79 -0.31,4.16 0.03,16.93 13.72,30.63 30.65,30.66 6.52,0 12.53,-2.04 17.5,-5.51 l 4.16,-2.89 0.35,5.05 c 1.15,17.45 17.44,31.68 37.79,31.69 13.8,0.01 25.76,-6.59 32.37,-16.25 l 1.43,-2.09 2.25,1.16 c 4.74,2.43 10.05,3.79 15.59,3.79 1.95,0 3.92,-0.17 5.9,-0.52 12.22,-2.14 21.73,-10.52 25.9,-21.25 l 1.26,-3.24 2.95,1.85 c 4.23,2.67 9.2,4.19 14.41,4.19 1.54,0 3.11,-0.13 4.68,-0.41 10.75,-1.88 18.87,-9.84 21.46,-19.68 l 0.33,-1.23 2.55,-1.32 1.38,-0.71 1.36,0.77 c 5.28,3 11.35,4.69 17.7,4.69 2.06,0 4.16,-0.18 6.27,-0.55 l 0.49,2.83"
       style="fill:#1a1417;fill-opacity:1;fill-rule:nonzero;stroke:none"
       transform="matrix(0.03527778,0,0,-0.03527778,-27.209186,257.12655)"
       clip-path="url(#clipPath108)" />
    <path
       id="path109"
       d="m 2735.83,4331.51 c -6.06,11.35 0.1,27.98 13.47,32.57 13.42,4.51 29.19,-4.7 32.02,-19 l -5.3,-0.83 c -0.55,3.68 0.74,7.34 2.84,10.04 2.13,2.73 5.09,4.79 8.55,5.64 6.88,1.5 13.54,-1.29 18.19,-5.56 l -4.28,-2.97 c -4.97,13.08 1.22,28.73 13.53,34.6 12.25,5.91 27.77,0.68 33.85,-10.31 -7.66,9.87 -22.16,12.49 -32.1,6.94 -9.83,-5.68 -14.49,-19.09 -10.31,-29.26 l 4.38,-10.66 -8.66,7.7 c -3.69,3.28 -8.89,5.08 -13.27,3.94 -4.21,-0.87 -7.99,-5.33 -7.41,-9.37 l -5.29,-0.84 c -1.76,10.86 -14.57,19.13 -25.62,16.27 -11.05,-2.99 -18.8,-16.84 -14.59,-28.9"
       style="fill:#1a1417;fill-opacity:1;fill-rule:nonzero;stroke:none"
       transform="matrix(0.03527778,0,0,-0.03527778,-27.209186,257.12655)"
       clip-path="url(#clipPath110)" />
    <path
       id="path111"
       d="m 2844,4337.86 c -0.49,6.65 1.1,13.64 5.08,19.36 3.85,5.82 10.82,9.68 18.07,9.7 7.33,0.39 14.77,-4.32 17.92,-11.01 3.39,-6.6 3.66,-13.87 3.49,-20.69 l -5.12,0.13 c -0.01,4.65 1.14,9.65 4.46,13.62 3.27,3.86 8.74,6.36 14.26,4.84 5.41,-1.6 8.81,-6.12 10.3,-10.76 1.5,-4.66 1.44,-9.29 1.41,-13.53 l -5.38,0.41 c 1.36,8.21 4.93,16.52 11.72,22.14 6.72,5.7 16.75,7.24 24.68,3.12 8.16,-4.26 11.18,-14.24 9.16,-22.23 -1.98,-8.22 -8.03,-14.53 -14.86,-18.41 6.24,4.75 11.46,11.33 12.5,18.86 1.06,7.32 -2.01,15.46 -8.55,18.29 -6.42,2.95 -14.51,1.09 -19.74,-3.43 -5.45,-4.65 -8.5,-11.88 -9.56,-19.16 l -5.38,0.41 c -0.03,4.23 -0.14,8.27 -1.35,11.73 -1.16,3.32 -3.59,6.33 -6.5,7.19 -2.82,0.92 -6.45,-0.44 -8.65,-2.97 -2.26,-2.56 -3.35,-6.34 -3.4,-10.13 l -5.11,0.13 c 0.36,6.39 -0.1,12.91 -2.51,18.43 -2.34,5.56 -7.63,9.43 -13.82,9.55 -6.14,0.24 -12.33,-2.54 -16.42,-7.48 -4.14,-4.92 -6.3,-11.47 -6.7,-18.11"
       style="fill:#1a1417;fill-opacity:1;fill-rule:nonzero;stroke:none"
       transform="matrix(0.03527778,0,0,-0.03527778,-27.209186,257.12655)"
       clip-path="url(#clipPath112)" />
    <path
       id="path113"
       d="m 2827.45,4282.07 c -5.23,4.57 -7,12.39 -5.86,19.44 1.12,7.05 6.45,14.32 14.33,15.96 7.96,1.82 15.88,-2.16 20.59,-8.05 4.87,-6.04 6.41,-13.85 5.87,-21.06 l -5.14,1.34 c 1.86,3.61 4.05,7.63 7.92,10.43 3.89,2.68 9.43,3.6 13.71,0.57 4.14,-3.28 4.47,-8.45 3.76,-12.45 -0.72,-4.16 -2.67,-8.05 -5.6,-10.85 2.18,3.39 3.43,7.24 3.45,11.05 0.04,3.74 -1.01,7.73 -3.65,9.27 -2.57,1.56 -6.43,0.67 -8.79,-1.41 -2.58,-2.11 -4.34,-5.39 -5.92,-8.95 l -5.87,-13.25 0.73,14.59 c 0.31,6.22 -1.27,12.53 -4.9,17.18 -3.6,4.6 -9.59,7.64 -15.15,6.67 -5.73,-0.93 -10.57,-5.6 -12.2,-11.77 -1.59,-5.97 -1.35,-13.24 2.72,-18.71"
       style="fill:#1a1417;fill-opacity:1;fill-rule:nonzero;stroke:none"
       transform="matrix(0.03527778,0,0,-0.03527778,-27.209186,257.12655)"
       clip-path="url(#clipPath114)" />
    <path
       id="path115"
       d="m 91.060277,107.78195 h -0.08361 c 0,4.8066 -1.947687,9.15705 -5.09764,12.30701 -3.149953,3.1496 -7.500408,5.09763 -12.306653,5.09763 -4.806598,0 -9.157053,-1.94803 -12.307006,-5.09763 -3.149601,-3.14996 -5.097287,-7.50041 -5.097287,-12.30701 0,-4.80625 1.947686,-9.156702 5.097287,-12.306655 3.149953,-3.1496 7.500408,-5.097639 12.307006,-5.097639 4.806245,0 9.1567,1.948039 12.306653,5.097639 3.149601,3.149953 5.09764,7.500405 5.09764,12.306655 h 0.08361 0.08361 C 91.143535,98.077737 83.27659,90.210792 73.572378,90.210792 c -9.704565,0 -17.57151,7.866945 -17.57151,17.571158 0,9.70456 7.866945,17.57151 17.57151,17.57151 9.704212,0 17.571157,-7.86695 17.571509,-17.57151 h -0.08361"
       style="fill:#1a1417;fill-opacity:1;fill-rule:nonzero;stroke:none;stroke-width:0.0352778" />
    <path
       id="path116"
       d="m 87.042843,102.31601 0.359481,0.45156 0.576086,-0.0395 -0.318911,0.48119 0.2159,0.53552 -0.556331,-0.15452 -0.442383,0.37077 -0.0254,-0.57679 -0.48895,-0.30621 0.540456,-0.20179 0.140052,-0.56021"
       style="fill:#1a1417;fill-opacity:1;fill-rule:nonzero;stroke:none;stroke-width:0.0352778" />
    <path
       id="path117"
       d="m 82.638765,117.07447 0.492478,0.30162 0.527403,-0.23459 -0.134408,0.56127 0.385939,0.42933 -0.575381,0.0455 -0.288925,0.49988 -0.221192,-0.5334 -0.564444,-0.1203 0.438855,-0.375 -0.06032,-0.57432"
       style="fill:#1a1417;fill-opacity:1;fill-rule:nonzero;stroke:none;stroke-width:0.0352778" />
    <path
       id="path118"
       d="m 84.883491,114.75672 0.522816,0.24483 0.498122,-0.2921 -0.07091,0.57291 0.431095,0.38347 -0.566562,0.10936 -0.231422,0.52917 -0.2794,-0.50554 -0.573969,-0.0564 0.394053,-0.42192 -0.123825,-0.56374"
       style="fill:#1a1417;fill-opacity:1;fill-rule:nonzero;stroke:none;stroke-width:0.0352778" />
    <path
       id="path119"
       d="m 86.470991,111.96484 0.564444,0.12065 0.419453,-0.39688 0.05962,0.57397 0.507295,0.27622 -0.527403,0.2346 -0.106186,0.56727 -0.385939,-0.42933 -0.572558,0.0744 0.288925,-0.49953 -0.24765,-0.5214"
       style="fill:#1a1417;fill-opacity:1;fill-rule:nonzero;stroke:none;stroke-width:0.0352778" />
    <path
       id="path120"
       d="m 87.016385,108.82335 0.576086,0.0416 0.360186,-0.45121 0.138642,0.56057 0.540456,0.20355 -0.490009,0.30515 -0.02681,0.57644 -0.441678,-0.37183 -0.556683,0.15311 0.217311,-0.53516 -0.3175,-0.48225"
       style="fill:#1a1417;fill-opacity:1;fill-rule:nonzero;stroke:none;stroke-width:0.0352778" />
    <path
       id="path121"
       d="m 65.560792,117.6054 -0.492478,0.30127 -0.527403,-0.2346 0.134762,0.56163 -0.386292,0.42897 0.575733,0.0455 0.288572,0.49989 0.221192,-0.5334 0.564445,-0.1203 -0.438856,-0.375 0.06033,-0.57397"
       style="fill:#1a1417;fill-opacity:1;fill-rule:nonzero;stroke:none;stroke-width:0.0352778" />
    <path
       id="path122"
       d="m 63.316067,115.28765 -0.522817,0.24447 -0.498122,-0.2921 0.07126,0.57292 -0.431447,0.38347 0.566561,0.10936 0.231422,0.52916 0.2794,-0.50553 0.574322,-0.0564 -0.394405,-0.42157 0.123825,-0.56374"
       style="fill:#1a1417;fill-opacity:1;fill-rule:nonzero;stroke:none;stroke-width:0.0352778" />
    <path
       id="path123"
       d="m 61.728567,112.49541 -0.564445,0.12065 -0.419452,-0.39687 -0.05962,0.57432 -0.507294,0.27623 0.527755,0.23424 0.106186,0.56762 0.385939,-0.42933 0.572559,0.0744 -0.289278,-0.49988 0.24765,-0.52141"
       style="fill:#1a1417;fill-opacity:1;fill-rule:nonzero;stroke:none;stroke-width:0.0352778" />
    <path
       id="path124"
       d="m 61.183172,109.35428 -0.575733,0.0413 -0.360539,-0.45085 -0.138642,0.56057 -0.540455,0.2032 0.490361,0.30515 0.02646,0.57679 0.441678,-0.37182 0.556683,0.15275 -0.217311,-0.53481 0.3175,-0.48225"
       style="fill:#1a1417;fill-opacity:1;fill-rule:nonzero;stroke:none;stroke-width:0.0352778" />
  </g>
</svg>
