<?xml version="1.0" encoding="UTF-8" standalone="no"?>
<!-- Created with Inkscape (http://www.inkscape.org/) -->

<svg
   width="22.696312mm"
   height="22.220421mm"
   viewBox="0 0 22.696312 22.220421"
   version="1.1"
   id="svg1"
   inkscape:version="1.3.2 (091e20ef0f, 2023-11-25, custom)"
   sodipodi:docname="favicon.svg"
   xmlns:inkscape="http://www.inkscape.org/namespaces/inkscape"
   xmlns:sodipodi="http://sodipodi.sourceforge.net/DTD/sodipodi-0.dtd"
   xmlns="http://www.w3.org/2000/svg"
   xmlns:svg="http://www.w3.org/2000/svg">
  <sodipodi:namedview
     id="namedview1"
     pagecolor="#ffffff"
     bordercolor="#000000"
     borderopacity="0.25"
     inkscape:showpageshadow="2"
     inkscape:pageopacity="0.0"
     inkscape:pagecheckerboard="0"
     inkscape:deskcolor="#d1d1d1"
     inkscape:document-units="mm"
     inkscape:zoom="3.025267"
     inkscape:cx="27.435595"
     inkscape:cy="72.390304"
     inkscape:window-width="1456"
     inkscape:window-height="784"
     inkscape:window-x="0"
     inkscape:window-y="0"
     inkscape:window-maximized="1"
     inkscape:current-layer="layer1" />
  <defs
     id="defs1">
    <clipPath
       clipPathUnits="userSpaceOnUse"
       id="clipPath214">
      <path
         d="m 4271.72,3213.73 c 173.14,0.35 313.76,-135.58 314.51,-304.03 0.76,-171.95 -140.08,-310.14 -315.85,-309.93 -169.65,0.22 -310.59,138.16 -311.4,304.76 -0.83,171.02 138.58,308.84 312.74,309.2"
         id="path214" />
    </clipPath>
    <clipPath
       clipPathUnits="userSpaceOnUse"
       id="clipPath216">
      <path
         d="m 4271.72,3213.73 c 173.14,0.35 313.76,-135.58 314.51,-304.03 0.76,-171.95 -140.08,-310.14 -315.85,-309.93 -169.65,0.22 -310.59,138.16 -311.4,304.76 -0.83,171.02 138.58,308.84 312.74,309.2"
         id="path216" />
    </clipPath>
    <clipPath
       clipPathUnits="userSpaceOnUse"
       id="clipPath218">
      <path
         d="m 4271.72,3213.73 c 173.14,0.35 313.76,-135.58 314.51,-304.03 0.76,-171.95 -140.08,-310.14 -315.85,-309.93 -169.65,0.22 -310.59,138.16 -311.4,304.76 -0.83,171.02 138.58,308.84 312.74,309.2"
         id="path218" />
    </clipPath>
    <clipPath
       clipPathUnits="userSpaceOnUse"
       id="clipPath220">
      <path
         d="m 4271.72,3213.73 c 173.14,0.35 313.76,-135.58 314.51,-304.03 0.76,-171.95 -140.08,-310.14 -315.85,-309.93 -169.65,0.22 -310.59,138.16 -311.4,304.76 -0.83,171.02 138.58,308.84 312.74,309.2"
         id="path220" />
    </clipPath>
    <clipPath
       clipPathUnits="userSpaceOnUse"
       id="clipPath222">
      <path
         d="m 4271.72,3213.73 c 173.14,0.35 313.76,-135.58 314.51,-304.03 0.76,-171.95 -140.08,-310.14 -315.85,-309.93 -169.65,0.22 -310.59,138.16 -311.4,304.76 -0.83,171.02 138.58,308.84 312.74,309.2"
         id="path222" />
    </clipPath>
    <clipPath
       clipPathUnits="userSpaceOnUse"
       id="clipPath224">
      <path
         d="m 4271.72,3213.73 c 173.14,0.35 313.76,-135.58 314.51,-304.03 0.76,-171.95 -140.08,-310.14 -315.85,-309.93 -169.65,0.22 -310.59,138.16 -311.4,304.76 -0.83,171.02 138.58,308.84 312.74,309.2"
         id="path224" />
    </clipPath>
    <clipPath
       clipPathUnits="userSpaceOnUse"
       id="clipPath226">
      <path
         d="m 4271.72,3213.73 c 173.14,0.35 313.76,-135.58 314.51,-304.03 0.76,-171.95 -140.08,-310.14 -315.85,-309.93 -169.65,0.22 -310.59,138.16 -311.4,304.76 -0.83,171.02 138.58,308.84 312.74,309.2"
         id="path226" />
    </clipPath>
    <clipPath
       clipPathUnits="userSpaceOnUse"
       id="clipPath228">
      <path
         d="m 4271.72,3213.73 c 173.14,0.35 313.76,-135.58 314.51,-304.03 0.76,-171.95 -140.08,-310.14 -315.85,-309.93 -169.65,0.22 -310.59,138.16 -311.4,304.76 -0.83,171.02 138.58,308.84 312.74,309.2"
         id="path228" />
    </clipPath>
    <clipPath
       clipPathUnits="userSpaceOnUse"
       id="clipPath230">
      <path
         d="m 4271.72,3213.73 c 173.14,0.35 313.76,-135.58 314.51,-304.03 0.76,-171.95 -140.08,-310.14 -315.85,-309.93 -169.65,0.22 -310.59,138.16 -311.4,304.76 -0.83,171.02 138.58,308.84 312.74,309.2"
         id="path230" />
    </clipPath>
    <clipPath
       clipPathUnits="userSpaceOnUse"
       id="clipPath232">
      <path
         d="m 4271.72,3213.73 c 173.14,0.35 313.76,-135.58 314.51,-304.03 0.76,-171.95 -140.08,-310.14 -315.85,-309.93 -169.65,0.22 -310.59,138.16 -311.4,304.76 -0.83,171.02 138.58,308.84 312.74,309.2"
         id="path232" />
    </clipPath>
    <clipPath
       clipPathUnits="userSpaceOnUse"
       id="clipPath234">
      <path
         d="m 4271.72,3213.73 c 173.14,0.35 313.76,-135.58 314.51,-304.03 0.76,-171.95 -140.08,-310.14 -315.85,-309.93 -169.65,0.22 -310.59,138.16 -311.4,304.76 -0.83,171.02 138.58,308.84 312.74,309.2"
         id="path234" />
    </clipPath>
    <clipPath
       clipPathUnits="userSpaceOnUse"
       id="clipPath236">
      <path
         d="m 4271.72,3213.73 c 173.14,0.35 313.76,-135.58 314.51,-304.03 0.76,-171.95 -140.08,-310.14 -315.85,-309.93 -169.65,0.22 -310.59,138.16 -311.4,304.76 -0.83,171.02 138.58,308.84 312.74,309.2"
         id="path236" />
    </clipPath>
  </defs>
  <g
     inkscape:label="Layer 1"
     inkscape:groupmode="layer"
     id="layer1"
     transform="translate(-64.785191,-121.2306)">
    <path
       id="path210"
       d="m 76.093926,121.31597 c 6.224602,-0.0129 11.280432,4.91408 11.307021,11.01966 0.02733,6.23211 -5.035974,11.24125 -11.355234,11.23303 -6.099111,-0.007 -11.166282,-5.00698 -11.19535,-11.04575 -0.02977,-6.19852 4.982092,-11.19407 11.243563,-11.20694"
       style="fill:#1a1417;fill-opacity:1;fill-rule:nonzero;stroke:none;stroke-width:0.0355939" />
    <g
       id="g1"
       transform="matrix(1.03232,0,0,1.03232,-2.0691564,-4.2270701)">
      <path
         id="path213"
         d="m 4405.21,2986.74 c 0,0 27.6,-85.87 -3.06,-174.19 -20.01,-57.63 -74.84,-179.1 -41.71,-291.97 18.4,-42.93 34.35,-71.15 9.81,-80.96 -24.54,-9.81 -121.44,-29.44 -180.33,9.81 -7.36,13.5 17.18,46.62 24.53,77.29 7.37,30.67 -2.45,176.65 -45.39,268.65 -42.93,92.01 -12.26,190.15 -12.26,190.15 l 248.41,1.22"
         style="fill:#ffffff;fill-opacity:1;fill-rule:nonzero;stroke:none"
         transform="matrix(0.03864927,0,0,-0.03864927,-89.476276,243.66605)"
         clip-path="url(#clipPath214)" />
      <path
         id="path215"
         d="m 4390.22,2922.95 c 0,0 11.93,-44.8 -34.69,-174.95 -17.68,-49.35 -23.94,-180.55 -19.02,-219.15 4.23,-33.14 -1.23,-35.74 -1.23,-35.74 0,0 -34.96,-42.11 -108.56,-1.91 9.21,82.3 12.55,177.58 -8.28,238.61 -20.24,59.34 -59.8,125.06 -39.56,192.05 60.72,-9.57 156.4,-15.31 211.34,1.09"
         style="fill:#fab20f;fill-opacity:1;fill-rule:nonzero;stroke:none"
         transform="matrix(0.03864927,0,0,-0.03864927,-89.476276,243.66605)"
         clip-path="url(#clipPath216)" />
      <path
         id="path217"
         d="m 4358.44,2946.57 c 0,0 14.72,-33.89 -4.07,-133.23 -8.29,-34.83 -18.3,-82.7 -18.3,-82.7 0,0 53.75,127.69 43.62,208.1 -0.5,6.11 -21.25,7.83 -21.25,7.83"
         style="fill:#ffffff;fill-opacity:1;fill-rule:nonzero;stroke:none"
         transform="matrix(0.03864927,0,0,-0.03864927,-89.476276,243.66605)"
         clip-path="url(#clipPath218)" />
      <path
         id="path219"
         d="m 4199.12,2826.66 c 0,0 17.18,-41.1 33.13,-92.01 13.14,-41.97 21.76,-152.43 6.43,-256.08 22.08,-6.13 22.08,-6.13 22.08,-6.13 0,0 9.2,171.12 -10.12,243.81 -16.34,61.48 -51.52,110.41 -51.52,110.41"
         style="fill:#ffffff;fill-opacity:1;fill-rule:nonzero;stroke:none"
         transform="matrix(0.03864927,0,0,-0.03864927,-89.476276,243.66605)"
         clip-path="url(#clipPath220)" />
      <path
         id="path221"
         d="m 4383.7,3049.63 c -3.1,0 -6.04,-0.59 -8.89,-1.42 -2.96,13.12 -15.34,22.17 -28.98,20.48 -5.85,-0.72 -10.97,-3.36 -14.94,-7.13 l -0.33,0.02 c -1,9.5 -6.73,18.27 -16.06,22.52 -10.9,4.98 -23.27,2.28 -31.27,-5.74 -5.5,18.41 -23.58,30.73 -43.28,28.29 -21.72,-2.68 -37.19,-22.26 -34.93,-43.93 -2.63,3.24 -5.93,5.99 -9.97,7.84 -14.01,6.4 -30.57,0.22 -36.96,-13.79 -3.86,-8.46 -3.08,-17.8 1.18,-25.32 -12.06,-4.44 -20.72,-15.93 -20.72,-29.54 0,-14.87 10.31,-27.25 24.15,-30.6 -3.07,-5.43 -4.97,-11.61 -4.97,-18.29 0,-20.67 16.76,-37.43 37.44,-37.43 20.66,0 37.42,16.76 37.42,37.43 v 0.04 l 1.04,-0.62 c 12.06,-5.51 25.96,-1.66 33.69,8.44 2.89,-2.36 6.1,-4.43 9.65,-6.05 16.74,-7.64 35.74,-4.08 48.56,7.53 5.59,-6.48 14.2,-10.15 23.34,-9.02 14.53,1.8 24.86,15.03 23.06,29.57 -0.29,2.41 -1,4.64 -1.88,6.79 4.14,-2.01 8.74,-3.23 13.65,-3.23 17.44,0 31.58,14.14 31.58,31.58 0,17.44 -14.14,31.58 -31.58,31.58"
         style="fill:#ffffff;fill-opacity:1;fill-rule:nonzero;stroke:none"
         transform="matrix(0.03864927,0,0,-0.03864927,-89.476276,243.66605)"
         clip-path="url(#clipPath222)" />
      <path
         id="path223"
         d="m 4383.7,3049.63 v 2.6 c -3.44,0 -6.63,-0.65 -9.62,-1.53 l 0.73,-2.49 2.54,0.57 c -3,13.24 -14.72,22.71 -28.26,22.71 -1.18,0 -2.38,-0.07 -3.58,-0.22 -6.44,-0.79 -12.07,-3.71 -16.41,-7.83 l 1.79,-1.88 0.19,2.59 -0.33,0.02 -0.19,-2.59 2.58,0.27 c -1.08,10.35 -7.35,19.96 -17.56,24.61 -4.07,1.86 -8.35,2.75 -12.55,2.75 -8.08,-0.01 -15.89,-3.25 -21.64,-9.01 l 1.84,-1.84 2.49,0.75 c -5.36,17.94 -21.94,30.44 -40.82,30.45 -1.74,0 -3.5,-0.11 -5.27,-0.33 -21.62,-2.67 -37.43,-21.06 -37.43,-42.31 0,-1.48 0.08,-2.97 0.24,-4.47 l 2.58,0.27 2.02,1.64 c -2.84,3.5 -6.46,6.53 -10.91,8.56 -4.1,1.87 -8.41,2.77 -12.65,2.77 -11.57,0 -22.64,-6.63 -27.76,-17.84 -1.85,-4.07 -2.73,-8.33 -2.73,-12.53 0,-5.34 1.42,-10.56 4.02,-15.15 l 2.26,1.28 -0.9,2.44 c -13.04,-4.8 -22.41,-17.24 -22.41,-31.98 0,-16.1 11.15,-29.5 26.12,-33.13 l 0.62,2.53 -2.27,1.27 c -3.25,-5.76 -5.29,-12.39 -5.29,-19.56 0,-22.11 17.92,-40.03 40.03,-40.03 22.1,0 40.01,17.92 40.01,40.03 v 0.04 h -2.59 l -1.32,-2.24 1.05,-0.62 0.11,-0.07 0.12,-0.05 c 4.09,-1.87 8.38,-2.75 12.6,-2.75 9.38,0 18.4,4.36 24.24,11.97 l -2.07,1.58 -1.64,-2.01 c 3.04,-2.49 6.44,-4.68 10.22,-6.41 6.35,-2.9 13.02,-4.27 19.59,-4.27 11.71,0 23.08,4.37 31.78,12.25 l -1.74,1.92 -1.97,-1.7 c 5.4,-6.25 13.35,-10.12 22.03,-10.12 1.19,0 2.39,0.07 3.59,0.22 14.75,1.83 25.55,14.36 25.55,28.86 0,1.19 -0.07,2.4 -0.22,3.61 -0.33,2.71 -1.13,5.18 -2.06,7.45 l -2.4,-0.98 -1.13,-2.34 c 4.44,-2.16 9.44,-3.48 14.78,-3.48 18.88,0 34.18,15.29 34.18,34.17 0,18.88 -15.3,34.18 -34.18,34.18 v -2.6 -2.59 c 16.01,-0.03 28.96,-12.98 28.99,-28.99 -0.03,-16.01 -12.98,-28.95 -28.99,-28.98 -4.48,0 -8.68,1.11 -12.52,2.96 l -6.11,2.96 2.58,-6.28 c 0.82,-2.01 1.45,-4.02 1.71,-6.12 0.12,-1 0.18,-1.99 0.18,-2.97 0,-11.89 -8.88,-22.21 -20.99,-23.7 -1,-0.13 -1.99,-0.19 -2.96,-0.19 -7.11,0 -13.65,3.18 -18.1,8.33 l -1.74,2.01 -1.97,-1.78 c -7.73,-7.01 -17.87,-10.91 -28.29,-10.91 -5.84,0 -11.77,1.22 -17.44,3.81 -3.33,1.52 -6.34,3.46 -9.08,5.7 l -2.08,1.69 -1.63,-2.12 c -4.83,-6.32 -12.34,-9.94 -20.11,-9.94 -3.49,0 -7.04,0.73 -10.44,2.28 l -1.08,-2.36 1.32,2.24 -1.04,0.61 -3.92,2.31 v -4.58 c -0.03,-19.24 -15.6,-34.8 -34.82,-34.83 -19.24,0.03 -34.8,15.59 -34.84,34.83 0,6.18 1.75,11.91 4.63,17.01 l 1.69,2.99 -3.34,0.81 c -12.71,3.08 -22.16,14.45 -22.16,28.08 0,12.48 7.93,23.02 19.02,27.11 l 2.86,1.05 -1.5,2.66 c -2.17,3.83 -3.34,8.17 -3.34,12.59 0,3.48 0.72,6.99 2.26,10.37 4.24,9.31 13.42,14.8 23.03,14.8 3.51,0 7.08,-0.73 10.49,-2.29 3.64,-1.66 6.62,-4.14 9.03,-7.11 l 5.52,-6.8 -0.92,8.7 c -0.14,1.32 -0.2,2.63 -0.2,3.93 0,18.65 13.88,34.82 32.87,37.16 1.56,0.19 3.1,0.28 4.63,0.28 16.55,0.01 31.14,-10.99 35.84,-26.74 l 1.25,-4.18 3.08,3.09 c 4.77,4.78 11.28,7.48 17.96,7.48 3.48,0 7.01,-0.72 10.39,-2.27 8.45,-3.85 13.64,-11.78 14.55,-20.43 l 0.23,-2.16 2.5,-0.18 1.14,-0.09 0.84,0.79 c 3.61,3.43 8.21,5.8 13.47,6.45 0.99,0.12 1.97,0.18 2.94,0.18 11.08,0 20.73,-7.77 23.19,-18.67 l 0.61,-2.69 2.66,0.77 c 2.69,0.8 5.38,1.33 8.15,1.33 v 2.59"
         style="fill:#1a1417;fill-opacity:1;fill-rule:nonzero;stroke:none"
         transform="matrix(0.03864927,0,0,-0.03864927,-89.476276,243.66605)"
         clip-path="url(#clipPath224)" />
      <path
         id="path225"
         d="m 4188,3003.22 c -5.84,10.94 0.1,26.96 12.98,31.38 12.94,4.35 28.13,-4.52 30.86,-18.3 l -5.11,-0.81 c -0.88,7.3 4.47,13.46 10.98,15.11 6.63,1.45 13.05,-1.24 17.52,-5.35 l -4.12,-2.86 c -4.78,12.6 1.18,27.68 13.05,33.35 11.81,5.68 26.76,0.65 32.62,-9.95 -7.39,9.52 -21.36,12.04 -30.93,6.69 -9.48,-5.47 -13.97,-18.4 -9.94,-28.19 l 4.22,-10.28 -8.35,7.42 c -3.56,3.17 -8.57,4.9 -12.79,3.8 -4.06,-0.84 -7.7,-5.14 -7.13,-9.04 l -5.11,-0.8 c -1.69,10.47 -14.04,18.44 -24.69,15.68 -10.65,-2.89 -18.11,-16.23 -14.06,-27.85"
         style="fill:#1a1417;fill-opacity:1;fill-rule:nonzero;stroke:none"
         transform="matrix(0.03864927,0,0,-0.03864927,-89.476276,243.66605)"
         clip-path="url(#clipPath226)" />
      <path
         id="path227"
         d="m 4289.02,2989.96 c -5.04,4.41 -6.73,11.95 -5.64,18.74 1.07,6.8 6.22,13.8 13.81,15.38 7.67,1.76 15.31,-2.08 19.84,-7.75 4.7,-5.82 6.17,-13.35 5.67,-20.3 l -4.97,1.29 c 1.8,3.48 3.91,7.36 7.64,10.05 3.75,2.58 9.08,3.47 13.2,0.55 4,-3.16 4.32,-8.14 3.63,-12 -0.69,-4.01 -2.56,-7.76 -5.38,-10.45 2.09,3.26 3.3,6.97 3.32,10.65 0.03,3.6 -0.98,7.45 -3.53,8.94 -2.48,1.49 -6.19,0.63 -8.47,-1.37 -2.49,-2.03 -4.18,-5.2 -5.7,-8.62 l -5.66,-12.77 0.7,14.06 c 0.3,5.99 -1.21,12.07 -4.72,16.55 -3.46,4.44 -9.24,7.37 -14.6,6.43 -5.52,-0.89 -10.18,-5.4 -11.75,-11.34 -1.54,-5.75 -1.3,-12.76 2.61,-18.04"
         style="fill:#1a1417;fill-opacity:1;fill-rule:nonzero;stroke:none"
         transform="matrix(0.03864927,0,0,-0.03864927,-89.476276,243.66605)"
         clip-path="url(#clipPath228)" />
      <path
         id="path229"
         d="m 4306.64,2828.04 c 10.26,0 10.28,15.94 0,15.94 -10.26,0 -10.28,-15.94 0,-15.94"
         style="fill:#ffffff;fill-opacity:1;fill-rule:nonzero;stroke:none"
         transform="matrix(0.03864927,0,0,-0.03864927,-89.476276,243.66605)"
         clip-path="url(#clipPath230)" />
      <path
         id="path231"
         d="m 4292.98,2700.24 v 1.36 l -0.34,1.53 -0.82,1.28 -1.29,0.83 -1.54,0.34 -1.06,-0.14 -1.76,-1.03 -0.62,-0.8 -0.54,-2.01 v -1.36 l 0.34,-1.54 0.82,-1.28 1.29,-0.83 1.53,-0.34 1.07,0.14 1.76,1.03 0.62,0.8 0.54,2.02"
         style="fill:#ffffff;fill-opacity:1;fill-rule:nonzero;stroke:none"
         transform="matrix(0.03864927,0,0,-0.03864927,-89.476276,243.66605)"
         clip-path="url(#clipPath232)" />
      <path
         id="path233"
         d="m 4231.97,2849.67 c 5.13,0 5.14,7.97 0,7.97 -5.13,0 -5.14,-7.97 0,-7.97"
         style="fill:#ffffff;fill-opacity:1;fill-rule:nonzero;stroke:none"
         transform="matrix(0.03864927,0,0,-0.03864927,-89.476276,243.66605)"
         clip-path="url(#clipPath234)" />
      <path
         id="path235"
         d="m 4340.59,2884.97 c 5.13,0 5.13,7.98 0,7.98 -5.14,0 -5.14,-7.98 0,-7.98"
         style="fill:#ffffff;fill-opacity:1;fill-rule:nonzero;stroke:none"
         transform="matrix(0.03864927,0,0,-0.03864927,-89.476276,243.66605)"
         clip-path="url(#clipPath236)" />
    </g>
  </g>
</svg>
