<?xml version="1.0" encoding="UTF-8" standalone="no"?>
<!-- Created with Inkscape (http://www.inkscape.org/) -->

<svg
   width="39.25613mm"
   height="39.232327mm"
   viewBox="0 0 39.25613 39.232327"
   version="1.1"
   id="svg1"
   inkscape:version="1.3.1 (91b66b0783, 2023-11-16, custom)"
   sodipodi:docname="award_3.svg"
   xmlns:inkscape="http://www.inkscape.org/namespaces/inkscape"
   xmlns:sodipodi="http://sodipodi.sourceforge.net/DTD/sodipodi-0.dtd"
   xmlns="http://www.w3.org/2000/svg"
   xmlns:svg="http://www.w3.org/2000/svg">
  <sodipodi:namedview
     id="namedview1"
     pagecolor="#ffffff"
     bordercolor="#000000"
     borderopacity="0.25"
     inkscape:showpageshadow="2"
     inkscape:pageopacity="0.0"
     inkscape:pagecheckerboard="0"
     inkscape:deskcolor="#d1d1d1"
     inkscape:document-units="mm"
     inkscape:zoom="3.2375212"
     inkscape:cx="87.721434"
     inkscape:cy="58.995753"
     inkscape:window-width="1456"
     inkscape:window-height="784"
     inkscape:window-x="0"
     inkscape:window-y="0"
     inkscape:window-maximized="1"
     inkscape:current-layer="layer1" />
  <defs
     id="defs1" />
  <g
     inkscape:label="Layer 1"
     inkscape:groupmode="layer"
     id="layer1"
     transform="translate(-153.9875,-102.12916)">
    <path
       id="path183"
       d="m 173.57623,102.12917 c -10.8532,0.0113 -19.61116,8.76617 -19.58869,19.58269 0.0224,10.88214 8.86107,19.69982 19.69629,19.64941 10.71492,-0.0495 19.54178,-8.8798 19.55977,-19.56827 0.0183,-10.87331 -8.78523,-19.67512 -19.66737,-19.66383"
       style="fill:#f79517;fill-opacity:1;fill-rule:nonzero;stroke:none;stroke-width:0.0352778" />
    <path
       id="path184"
       d="m 156.7644,121.71645 c 0.0556,9.36907 7.59551,16.90511 16.86122,16.8522 9.37895,-0.0533 16.90088,-7.66481 16.83139,-17.03317 -0.0688,-9.26466 -7.7022,-16.70262 -17.07374,-16.63665 -9.18352,0.0646 -16.67317,7.64363 -16.61887,16.81762 z m 35.04022,0.0325 c 0.007,10.02524 -8.19397,18.18428 -18.26754,18.17409 -9.95292,-0.0102 -18.20708,-8.26068 -18.17635,-18.16774 0.0311,-10.05735 8.18568,-18.22168 18.2335,-18.25626 10.00195,-0.0335 18.20298,8.1848 18.21039,18.24991"
       style="fill:#ffffff;fill-opacity:1;fill-rule:nonzero;stroke:none;stroke-width:0.0352778" />
    <path
       id="path185"
       d="m 173.58258,137.95905 c 8.96515,0.008 16.22884,-7.22736 16.25918,-16.19674 0.0303,-8.9415 -7.25452,-16.28634 -16.16851,-16.30221 -8.95632,-0.0159 -16.33351,7.27569 -16.34204,16.15228 -0.009,9.04064 7.24637,16.33855 16.25137,16.34667 z m -16.81818,-16.2426 c -0.0543,-9.17399 7.43535,-16.75306 16.61887,-16.81762 9.37154,-0.066 17.00494,7.37199 17.07374,16.63665 0.0695,9.36836 -7.45244,16.9799 -16.83139,17.03317 -9.26571,0.0529 -16.80566,-7.48313 -16.86122,-16.8522"
       style="fill:#231f20;fill-opacity:1;fill-rule:nonzero;stroke:none;stroke-width:0.0352778" />
    <path
       id="path186"
       d="m 167.52757,118.73504 c -0.0289,-0.36794 -0.10335,-0.59945 -0.28525,-0.83509 -0.32246,-0.42995 -0.8475,-0.66973 -1.48002,-0.66973 -1.19475,0 -1.93476,0.85576 -1.93476,2.22415 0,1.36013 0.73587,2.20762 1.91409,2.20762 1.0542,0 1.74873,-0.60771 1.80248,-1.5751 h -0.8475 c -0.0579,0.53744 -0.39274,0.84336 -0.93431,0.84336 -0.66972,0 -1.0666,-0.54157 -1.0666,-1.46347 0,-0.93431 0.41341,-1.49242 1.09554,-1.49242 0.50437,0 0.78962,0.24391 0.90537,0.76068 z m 1.19476,1.12034 h 0.99632 c 0.37621,0 0.53744,0.14883 0.53744,0.4961 v 0.17363 c -0.004,0.11162 -0.004,0.21497 -0.004,0.28112 0,0.39687 0.0248,0.5209 0.12816,0.72347 h 0.93431 v -0.1571 c -0.13229,-0.0744 -0.18604,-0.16123 -0.18604,-0.34726 -0.0248,-1.24851 -0.0455,-1.30638 -0.58704,-1.53789 0.47542,-0.18604 0.7152,-0.52917 0.7152,-1.0418 0,-0.339 -0.11575,-0.64492 -0.31832,-0.85576 -0.19431,-0.19431 -0.45889,-0.28939 -0.81856,-0.28939 h -2.26963 v 4.2292 h 0.8723 z m 0,-0.7276 v -1.09968 h 1.05007 c 0.24804,0 0.34726,0.0207 0.45475,0.10749 0.10748,0.0868 0.15709,0.23151 0.15709,0.42995 0,0.20257 -0.0496,0.3638 -0.15709,0.45475 -0.0951,0.0785 -0.20671,0.10749 -0.45475,0.10749 z m 5.75159,1.55029 0.27698,0.85163 h 0.89297 l -1.45934,-4.2292 h -0.96325 l -1.50482,4.2292 h 0.88884 l 0.28525,-0.85163 z m -0.23978,-0.7276 h -1.09968 l 0.54984,-1.64951 z m 2.70164,-0.24392 h 1.85209 v -0.72347 h -1.85209 v -0.95498 h 2.10013 v -0.7276 h -2.96829 v 4.2292 h 0.86816 z m 4.54133,-1.67845 h 1.2361 v -0.7276 h -3.38584 v 0.7276 h 1.28157 v 3.5016 h 0.86817 z m -14.77429,10.46035 h 1.90169 c 0.48782,0 0.81442,-0.0909 1.0666,-0.30593 0.25631,-0.21497 0.41755,-0.5705 0.41755,-0.91364 0,-0.41754 -0.21911,-0.74827 -0.69867,-1.02526 0.41755,-0.26458 0.57878,-0.50849 0.57878,-0.86816 0,-0.29766 -0.1447,-0.59945 -0.38448,-0.80615 -0.24804,-0.21498 -0.5457,-0.31006 -0.99632,-0.31006 h -1.88515 z m 0.86816,-3.5016 h 0.94671 c 0.40514,0 0.61598,0.16123 0.61598,0.47543 0,0.31832 -0.21084,0.47955 -0.61598,0.47955 h -0.94671 z m 0,1.67845 h 1.0418 c 0.42168,0 0.64078,0.18604 0.64078,0.55397 0,0.35967 -0.2191,0.54571 -0.64078,0.54571 h -1.0418 z m 4.16925,0 h 2.02572 v -0.72347 h -2.02572 v -0.95498 h 2.18695 v -0.7276 h -3.05511 v 4.2292 h 3.15846 v -0.72347 h -2.2903 z m 3.86747,0 h 2.02571 v -0.72347 h -2.02571 v -0.95498 h 2.18694 v -0.7276 h -3.05511 v 4.2292 h 3.15847 v -0.72347 h -2.2903 z m 3.87676,0.14883 h 0.99633 c 0.3762,0 0.53743,0.14883 0.53743,0.49609 v 0.17364 c -0.004,0.11162 -0.004,0.21497 -0.004,0.28112 0,0.39687 0.0248,0.5209 0.12815,0.72347 h 0.93431 v -0.1571 c -0.13229,-0.0744 -0.18603,-0.16123 -0.18603,-0.34726 -0.0248,-1.24851 -0.0455,-1.30638 -0.58705,-1.53789 0.47543,-0.18604 0.71521,-0.52917 0.71521,-1.0418 0,-0.339 -0.11576,-0.64492 -0.31833,-0.85576 -0.1943,-0.19431 -0.45889,-0.28939 -0.81856,-0.28939 h -2.26962 v 4.2292 h 0.87229 z m 0,-0.7276 v -1.09968 h 1.05007 c 0.24805,0 0.34726,0.0207 0.45475,0.10749 0.10749,0.0868 0.1571,0.23151 0.1571,0.42995 0,0.20257 -0.0496,0.3638 -0.1571,0.45475 -0.0951,0.0786 -0.2067,0.10749 -0.45475,0.10749 z m 0,0"
       style="fill:#040606;fill-opacity:1;fill-rule:nonzero;stroke:none;stroke-width:0.352778"
       aria-label="CRAFT &#10;BEER" />
    <path
       id="path187"
       d="m 173.98828,109.24187 0.96908,1.96357 2.16711,0.31503 -1.56809,1.52858 0.37006,2.15865 -1.93816,-1.01917 -1.93851,1.01917 0.37006,-2.15865 -1.5681,-1.52858 2.16712,-0.31503 0.96943,-1.96357"
       style="fill:#ffffff;fill-opacity:1;fill-rule:nonzero;stroke:none;stroke-width:0.0352778" />
    <path
       id="path188"
       d="m 168.61336,111.94662 0.48048,0.97296 1.07421,0.15628 -0.77752,0.75777 0.18344,1.06998 -0.96061,-0.50518 -0.96097,0.50518 0.18344,-1.06998 -0.77716,-0.75777 1.0742,-0.15628 0.48049,-0.97296"
       style="fill:#ffffff;fill-opacity:1;fill-rule:nonzero;stroke:none;stroke-width:0.0352778" />
    <path
       id="path189"
       d="m 179.18011,112.16393 0.48048,0.97367 1.07456,0.15593 -0.77752,0.75741 0.18345,1.07033 -0.96097,-0.50518 -0.96097,0.50518 0.1838,-1.07033 -0.77752,-0.75741 1.07456,-0.15593 0.48013,-0.97367"
       style="fill:#ffffff;fill-opacity:1;fill-rule:nonzero;stroke:none;stroke-width:0.0352778" />
    <path
       id="path190"
       d="m 165.45317,130.61315 h 17.40599 v -0.34671 h -17.40599 z"
       style="fill:#ffffff;fill-opacity:1;fill-rule:nonzero;stroke:none;stroke-width:0.0352778" />
    <path
       id="path191"
       d="m 166.27938,131.79425 h 16.16675 v -0.25989 h -16.16675 z"
       style="fill:#ffffff;fill-opacity:1;fill-rule:nonzero;stroke:none;stroke-width:0.0352778" />
    <path
       id="path192"
       d="m 167.40756,133.04062 h 14.03558 v -0.26004 h -14.03558 z"
       style="fill:#ffffff;fill-opacity:1;fill-rule:nonzero;stroke:none;stroke-width:0.0352778" />
    <path
       id="path193"
       d="m 188.2592,122.6372 v 0 c -0.013,0.19156 0.13159,0.35736 0.32314,0.37042 0.19156,0.013 0.35737,-0.13159 0.37042,-0.32315 v 0 c 0.013,-0.19156 -0.13159,-0.35771 -0.32314,-0.37077 -0.19156,-0.013 -0.35737,0.13194 -0.37042,0.3235 z m -0.10442,1.01318 v 0 c -0.0261,0.19015 0.10689,0.36583 0.29704,0.39193 0.19014,0.0261 0.36583,-0.10689 0.39193,-0.29703 v 0 c 0.0261,-0.19015 -0.10654,-0.36583 -0.29704,-0.39194 -0.19014,-0.0261 -0.36547,0.10689 -0.39193,0.29704 z m -0.17392,1.00365 v 0 c -0.0392,0.18768 0.0811,0.37218 0.26917,0.41134 0.18803,0.0395 0.37218,-0.0811 0.41169,-0.26917 v 0 c 0.0392,-0.18803 -0.0811,-0.37218 -0.26917,-0.41134 -0.18803,-0.0395 -0.37218,0.0811 -0.41169,0.26917 z m -0.24307,0.98884 v 0 c -0.0522,0.18485 0.055,0.37676 0.23989,0.42933 0.18486,0.0522 0.37712,-0.055 0.42933,-0.23989 0.0522,-0.18486 -0.055,-0.37712 -0.23989,-0.42933 -0.18485,-0.0522 -0.37711,0.055 -0.42933,0.23989 z m -0.31115,0.96978 v 0 c -0.0653,0.18063 0.0286,0.37959 0.2092,0.44486 0.18062,0.0649 0.37994,-0.0289 0.44521,-0.20955 h -3.6e-4 c 0.0653,-0.18063 -0.0286,-0.37995 -0.20919,-0.44486 -0.18063,-0.0649 -0.37994,0.0286 -0.44486,0.20955 z m -0.37853,0.94686 v 0 c -0.0776,0.17568 0.002,0.38065 0.1778,0.45826 0.17569,0.0776 0.381,-0.002 0.45826,-0.1778 v 0 c 0.0776,-0.17569 -0.002,-0.381 -0.1778,-0.45861 -0.17568,-0.0773 -0.381,0.002 -0.45826,0.17815 z m -0.44344,0.91793 v 0 c -0.0896,0.17004 -0.0243,0.38029 0.1457,0.46954 0.16969,0.0896 0.37994,0.0243 0.46955,-0.14569 v 0 c 0.0896,-0.16969 0.0243,-0.37994 -0.1457,-0.46955 -0.17004,-0.0896 -0.3803,-0.0243 -0.46955,0.1457 z m -0.50588,0.88512 v 0 c -0.10125,0.16333 -0.0508,0.37747 0.11253,0.47836 0.16334,0.10125 0.37783,0.0508 0.47872,-0.11253 v 0 c 0.10125,-0.16334 0.0504,-0.37783 -0.11288,-0.47872 -0.16334,-0.10125 -0.37748,-0.0505 -0.47837,0.11289 z m -0.56586,0.84772 v 0 c -0.11218,0.15593 -0.0765,0.37324 0.0794,0.48507 0.15628,0.11218 0.37324,0.0765 0.48542,-0.0794 v 0 c 0.11218,-0.15593 0.0765,-0.37324 -0.0794,-0.48543 -0.15629,-0.11183 -0.37324,-0.0762 -0.48543,0.0797 z m -0.62265,0.8068 v 0 c -0.12277,0.14782 -0.10195,0.36689 0.0459,0.48966 0.14782,0.12241 0.36724,0.10195 0.48966,-0.0462 v 0 c 0.12241,-0.14782 0.10195,-0.36689 -0.0459,-0.48966 -0.14817,-0.12241 -0.36725,-0.1016 -0.48966,0.0462 z m -0.67663,0.762 v 0 c -0.13264,0.139 -0.127,0.35913 0.012,0.49142 0.13934,0.1323 0.35948,0.127 0.49177,-0.0123 0.13229,-0.139 0.127,-0.35913 -0.0123,-0.49142 -0.13899,-0.13229 -0.35913,-0.127 -0.49142,0.0123 z m -0.72743,0.71332 v 0 c -0.14146,0.12982 -0.15134,0.34996 -0.0215,0.49142 0.12983,0.14146 0.34961,0.15134 0.49142,0.0215 v 0 c 0.14147,-0.12982 0.15135,-0.3496 0.0215,-0.49142 -0.12982,-0.14146 -0.3496,-0.15099 -0.49142,-0.0215 z m -0.77434,0.66181 v 0 c -0.14993,0.11995 -0.17498,0.33867 -0.055,0.48895 0.1196,0.14993 0.33832,0.17463 0.4886,0.055 v 0 c 0.15028,-0.1196 0.17498,-0.33832 0.055,-0.4886 -0.11959,-0.15028 -0.33831,-0.17498 -0.48859,-0.0554 z m -0.81774,0.60713 v 0 c -0.15805,0.10901 -0.19756,0.32562 -0.0885,0.48366 0.10901,0.15805 0.32561,0.19791 0.48366,0.0885 v 0 c 0.15804,-0.10901 0.19755,-0.32562 0.0885,-0.48366 -0.10901,-0.15804 -0.32562,-0.19756 -0.48366,-0.0885 z m -0.85725,0.54893 v 0 c -0.16545,0.0981 -0.21978,0.31115 -0.12206,0.4766 0.0981,0.1651 0.3115,0.21978 0.4766,0.12171 v 0 c 0.1651,-0.0981 0.21978,-0.31115 0.12171,-0.47661 -0.0977,-0.1651 -0.31115,-0.21942 -0.47625,-0.1217 z m -0.89324,0.48824 v 0 c -0.17145,0.0864 -0.24059,0.29527 -0.15416,0.46708 0.0861,0.17145 0.29528,0.24059 0.46673,0.15451 v 0 c 0.17145,-0.0864 0.24059,-0.29527 0.15451,-0.46707 -0.0864,-0.17145 -0.29527,-0.2406 -0.46708,-0.15452 z m -0.92427,0.42545 v 0 c -0.1771,0.0741 -0.26035,0.27764 -0.18627,0.45473 0.0741,0.17745 0.27799,0.2607 0.45508,0.18662 v 0 c 0.1771,-0.0741 0.26035,-0.27799 0.18627,-0.45508 -0.0741,-0.1771 -0.27764,-0.26071 -0.45508,-0.18627 z m -0.95109,0.35983 v 0 c -0.18168,0.0614 -0.2794,0.25894 -0.21767,0.44098 0.0617,0.18168 0.2593,0.27904 0.44098,0.21766 v 0 c 0.18203,-0.0617 0.2794,-0.25929 0.21766,-0.44097 -0.0617,-0.18204 -0.25894,-0.2794 -0.44097,-0.21767 z m -0.97508,0.29316 v 0 c -0.18591,0.0487 -0.29669,0.23883 -0.248,0.42475 0.049,0.18556 0.23918,0.29668 0.42474,0.24765 v 0 c 0.18592,-0.0487 0.29669,-0.23883 0.248,-0.42475 -0.049,-0.18556 -0.23918,-0.29668 -0.42474,-0.24765 z m -0.99342,0.22472 v 0 c -0.18874,0.0356 -0.31256,0.21766 -0.27658,0.4064 0.0356,0.18874 0.21766,0.31256 0.4064,0.27693 0.18874,-0.036 0.31256,-0.21802 0.27658,-0.40675 -0.0356,-0.18874 -0.21767,-0.31256 -0.4064,-0.27658 z m -1.00648,0.15522 v 0 c -0.1905,0.0226 -0.32702,0.19579 -0.30409,0.38629 0.0226,0.19086 0.19579,0.32703 0.38629,0.3041 v 3.5e-4 c 0.19085,-0.0229 0.32703,-0.19579 0.30409,-0.38664 -0.0226,-0.1905 -0.19543,-0.32667 -0.38629,-0.3041 z m -1.01494,0.0857 v 0 c -0.19191,0.01 -0.33972,0.17251 -0.32985,0.36442 0.01,0.19191 0.17251,0.33972 0.36442,0.32984 v 0 c 0.19191,-0.01 0.33973,-0.1725 0.32985,-0.36441 -0.01,-0.19192 -0.17251,-0.33973 -0.36442,-0.32985 z m -1.01917,0.0159 v 0 c -0.19192,-0.004 -0.35031,0.14958 -0.35384,0.34149 -0.004,0.19191 0.14922,0.35031 0.34114,0.35384 v 0 c 0.19226,0.004 0.35066,-0.14923 0.35418,-0.34114 0.004,-0.19226 -0.14957,-0.35066 -0.34148,-0.35419 z m -1.01742,-0.0529 v 0 c -0.1912,-0.0166 -0.35983,0.12488 -0.37641,0.31644 -0.0166,0.1912 0.12524,0.35983 0.31644,0.37641 v 0 c 0.19156,0.0166 0.35984,-0.12523 0.37642,-0.31644 0.0166,-0.19156 -0.12489,-0.35983 -0.31645,-0.37641 z m -1.01106,-0.12277 v 0 c -0.18979,-0.03 -0.36759,0.0998 -0.39722,0.28963 -0.0296,0.18979 0.0998,0.36759 0.28963,0.39723 0.18979,0.0296 0.36759,-0.0998 0.39722,-0.28963 0.03,-0.1898 -0.0998,-0.3676 -0.28963,-0.39723 z m -1.00012,-0.19262 v 0 c -0.18697,-0.0427 -0.37359,0.0741 -0.41628,0.26141 -0.043,0.18733 0.0741,0.37359 0.26141,0.41663 0.18697,0.0427 0.37359,-0.0744 0.41628,-0.26141 0.043,-0.18732 -0.0741,-0.37394 -0.26141,-0.41663 z m -0.98425,-0.26141 v 0 c -0.1838,-0.0557 -0.37783,0.048 -0.43357,0.23178 -0.0557,0.1838 0.048,0.37782 0.23178,0.43356 0.1838,0.0557 0.37782,-0.048 0.43356,-0.23177 0.0557,-0.1838 -0.048,-0.37783 -0.23177,-0.43357 z m -0.96485,-0.32984 v 0 c -0.17956,-0.0684 -0.38065,0.0215 -0.44908,0.20108 -0.0684,0.17921 0.0219,0.3803 0.20108,0.44873 0.17956,0.0684 0.38065,-0.0215 0.44873,-0.20108 0.0684,-0.17956 -0.0215,-0.38029 -0.20073,-0.44873 z m -0.9398,-0.39617 v 0 c -0.17427,-0.0808 -0.381,-0.005 -0.46178,0.16933 -0.0804,0.17427 -0.005,0.381 0.16968,0.46179 v 0 c 0.17392,0.0804 0.38065,0.005 0.46143,-0.16934 0.0808,-0.17427 0.005,-0.381 -0.16933,-0.46178 z m -0.90946,-0.46038 v 0 c -0.16828,-0.0928 -0.37994,-0.0314 -0.47237,0.13688 -0.0928,0.16828 -0.0314,0.37959 0.13688,0.47237 0.16827,0.0924 0.37959,0.0314 0.47237,-0.13688 0.0924,-0.16827 0.0314,-0.37994 -0.13688,-0.47237 z m -0.87559,-0.52211 v 0 c -0.16122,-0.10407 -0.37642,-0.0575 -0.48049,0.10372 -0.10407,0.16157 -0.0575,0.37677 0.10372,0.48083 v 0 c 0.16157,0.10372 0.37677,0.0575 0.48083,-0.10406 0.10407,-0.16158 0.0575,-0.37677 -0.10406,-0.48049 z m -0.83715,-0.58138 v 0 c -0.15381,-0.115 -0.37182,-0.0832 -0.48648,0.0706 -0.115,0.15381 -0.0836,0.37183 0.0706,0.48648 0.15381,0.11501 0.37147,0.0833 0.48648,-0.0706 0.115,-0.15381 0.0833,-0.37182 -0.0706,-0.48648 z m -0.79516,-0.63747 v 0 c -0.14569,-0.12523 -0.36512,-0.10865 -0.49036,0.0367 -0.12523,0.1457 -0.10865,0.36513 0.037,0.49036 0.1457,0.12524 0.36513,0.10866 0.49036,-0.0367 0.12524,-0.1457 0.10866,-0.36513 -0.037,-0.49037 z m -0.7493,-0.69073 v 0 c -0.13652,-0.13477 -0.35666,-0.13335 -0.49177,0.003 -0.13476,0.13688 -0.13335,0.35701 0.003,0.49177 v 0 c 0.13687,0.13512 0.35701,0.13371 0.49177,-0.003 0.13511,-0.13653 0.1337,-0.35666 -0.003,-0.49177 z m -0.69991,-0.74013 v 0 c -0.127,-0.14394 -0.34678,-0.15769 -0.49071,-0.0307 -0.14429,0.12735 -0.15769,0.34678 -0.0307,0.49106 0.127,0.14394 0.34678,0.15769 0.49071,0.0303 0.14393,-0.127 0.15769,-0.34678 0.0307,-0.49071 z m -0.64735,-0.78634 v 0 c -0.11712,-0.1524 -0.33549,-0.18098 -0.48753,-0.0642 -0.1524,0.11677 -0.18133,0.33514 -0.0646,0.48754 0.11712,0.1524 0.33549,0.18097 0.48754,0.0642 0.1524,-0.11677 0.18132,-0.33514 0.0645,-0.48754 z m -0.59196,-0.82868 v 0 c -0.10618,-0.16016 -0.32173,-0.2039 -0.48189,-0.0977 -0.16016,0.10619 -0.20355,0.32173 -0.0977,0.4819 v 0 c 0.10619,0.16016 0.32209,0.2039 0.48225,0.0977 0.1598,-0.10619 0.20355,-0.32209 0.0974,-0.4819 z m -0.53304,-0.86748 v 0 c -0.0945,-0.16686 -0.30692,-0.22542 -0.47378,-0.13053 -0.16722,0.0949 -0.22578,0.30692 -0.13089,0.47414 v 0 c 0.0949,0.16686 0.30727,0.22542 0.47414,0.13052 0.16686,-0.0949 0.22542,-0.30727 0.13053,-0.47413 z m -0.47132,-0.9017 v 0 c -0.0833,-0.17321 -0.29104,-0.24624 -0.4639,-0.16334 -0.17321,0.0833 -0.24624,0.29105 -0.16333,0.46391 0.0832,0.17321 0.29068,0.24624 0.4639,0.16333 0.17321,-0.0832 0.24624,-0.29069 0.16333,-0.4639 z m -0.40816,-0.93204 v 0 c -0.0705,-0.1785 -0.2727,-0.26564 -0.4512,-0.19473 -0.17851,0.0705 -0.266,0.2727 -0.19509,0.4512 v 0 c 0.0709,0.17851 0.27305,0.266 0.45156,0.19509 0.1785,-0.0709 0.26564,-0.27305 0.19473,-0.45156 z m -0.34219,-0.9592 v 0 c -0.0586,-0.18274 -0.254,-0.28399 -0.4371,-0.22578 -0.18273,0.0582 -0.28398,0.254 -0.22577,0.43674 0.0582,0.18309 0.254,0.28434 0.43674,0.22613 0.18309,-0.0582 0.28433,-0.254 0.22613,-0.43709 z m -0.27517,-0.98037 v 0 c -0.0452,-0.18662 -0.23319,-0.30127 -0.41981,-0.25576 -0.18662,0.0455 -0.30127,0.23353 -0.25576,0.42015 0.0452,0.18662 0.23319,0.30092 0.41981,0.25577 0.18662,-0.0455 0.30127,-0.23354 0.25576,-0.42016 z m -0.20602,-0.9973 v 0 c -0.0321,-0.18945 -0.21202,-0.31645 -0.40111,-0.28434 -0.18944,0.0325 -0.3168,0.21202 -0.28434,0.40146 0.0325,0.18909 0.21202,0.31644 0.40111,0.28398 0.18944,-0.0321 0.31679,-0.21201 0.28434,-0.4011 z m -0.13653,-1.0093 v 0 c -0.019,-0.19121 -0.18944,-0.33055 -0.38064,-0.31115 -0.19121,0.019 -0.33056,0.18944 -0.31115,0.38065 v 0 c 0.019,0.19085 0.18944,0.3302 0.38064,0.31115 0.19086,-0.0191 0.3302,-0.18945 0.31115,-0.38065 z m -0.0667,-1.01635 v 0 c -0.006,-0.19227 -0.16651,-0.3429 -0.35842,-0.33691 -0.19227,0.006 -0.3429,0.16687 -0.33691,0.35878 0.006,0.19191 0.16651,0.34255 0.35878,0.33655 0.19191,-0.006 0.34254,-0.16651 0.33655,-0.35842 z m 0.002,-1.01918 v 0 c 0.007,-0.19191 -0.14288,-0.35313 -0.33479,-0.36019 -0.19191,-0.007 -0.35313,0.14288 -0.36019,0.33479 v 0 c -0.007,0.19191 0.14288,0.35313 0.33479,0.36019 0.19191,0.007 0.35313,-0.14288 0.36019,-0.33479 z m 0.072,-1.01635 v 0 c 0.0201,-0.19085 -0.11853,-0.36195 -0.30938,-0.38206 -0.19121,-0.0201 -0.36231,0.11818 -0.38241,0.30939 v 0 c -0.0201,0.19085 0.11853,0.36195 0.30938,0.38205 0.19086,0.0201 0.36195,-0.11818 0.38241,-0.30938 z m 0.14147,-1.00859 v 0 c 0.0332,-0.18909 -0.0931,-0.36936 -0.28222,-0.40252 -0.18909,-0.0335 -0.36936,0.0931 -0.40288,0.28222 -0.0332,0.18909 0.0931,0.36936 0.28223,0.40252 0.18908,0.0335 0.36971,-0.0931 0.40287,-0.28222 z m 0.21096,-0.99625 v 0 c 0.0466,-0.18626 -0.067,-0.375 -0.25365,-0.42121 -0.18627,-0.0462 -0.375,0.067 -0.42122,0.25364 v 0 c -0.0462,0.18627 0.0674,0.37501 0.25365,0.42122 0.18627,0.0462 0.375,-0.0674 0.42122,-0.25365 z m 0.2801,-0.97931 v 0 c 0.0589,-0.18239 -0.0413,-0.37853 -0.22366,-0.4378 -0.18274,-0.0593 -0.37888,0.0409 -0.43815,0.22366 v 0 c -0.0593,0.18274 0.0409,0.37889 0.22366,0.4378 0.18274,0.0593 0.37889,-0.0409 0.43815,-0.22366 z m 0.34784,-0.9585 v 0 c 0.0716,-0.17815 -0.0145,-0.38064 -0.19261,-0.45261 -0.17816,-0.0716 -0.381,0.0145 -0.45262,0.19262 v 0 c -0.0716,0.17815 0.0145,0.38064 0.19262,0.45261 0.17815,0.0716 0.38065,-0.0145 0.45261,-0.19262 z m 0.41346,-0.93204 v 0 c 0.084,-0.1725 0.012,-0.38064 -0.16052,-0.4646 -0.17286,-0.084 -0.381,-0.012 -0.46496,0.16051 v 0 c -0.084,0.17286 -0.012,0.381 0.16087,0.46496 0.17251,0.084 0.38065,0.012 0.46461,-0.16087 z m 0.47731,-0.90064 v 0 c 0.0956,-0.16651 0.0384,-0.37923 -0.12806,-0.47484 -0.16651,-0.096 -0.37888,-0.0384 -0.47484,0.12806 v 0 c -0.0956,0.16651 -0.0385,0.37889 0.12806,0.47484 0.16651,0.0956 0.37923,0.0385 0.47484,-0.12806 z m 0.53834,-0.86571 v 0 c 0.10689,-0.15946 0.0645,-0.37536 -0.0949,-0.4826 -0.15946,-0.1069 -0.37536,-0.0642 -0.4826,0.0952 v 0 c -0.10689,0.15945 -0.0646,0.37535 0.0949,0.48224 0.1598,0.10725 0.3757,0.0646 0.4826,-0.0949 z m 0.5969,-0.82621 v 0 c 0.11747,-0.15169 0.09,-0.37006 -0.0617,-0.48789 -0.15169,-0.11783 -0.37006,-0.0903 -0.48789,0.0614 v 3.5e-4 c -0.11748,0.1517 -0.09,0.37007 0.0617,0.48754 0.1517,0.11783 0.37007,0.0903 0.4879,-0.0614 z m 0.65193,-0.78317 v 0 c 0.12806,-0.14322 0.11536,-0.363 -0.0279,-0.49106 -0.14323,-0.12771 -0.36301,-0.11536 -0.49107,0.0279 v 0 c -0.1277,0.14322 -0.11536,0.36336 0.0279,0.49106 0.14358,0.12806 0.36336,0.11536 0.49107,-0.0279 z m 0.70414,-0.73624 v 0 c 0.13759,-0.13441 0.14006,-0.35455 0.006,-0.49178 -0.13405,-0.13758 -0.35419,-0.14005 -0.49177,-0.006 v 0 c -0.13723,0.13405 -0.14005,0.35419 -0.006,0.49177 0.13441,0.13723 0.35454,0.14005 0.49177,0.006 z m 0.75318,-0.68651 v 0 c 0.14605,-0.12418 0.16405,-0.3436 0.0395,-0.49001 -0.12454,-0.1464 -0.34396,-0.16404 -0.49001,-0.0395 v 0 c -0.14641,0.12418 -0.16404,0.34361 -0.0399,0.49001 0.12453,0.1464 0.34396,0.16404 0.49036,0.0395 z m 0.79799,-0.63253 v 0 c 0.15451,-0.11395 0.18732,-0.33196 0.0734,-0.48648 -0.1143,-0.15416 -0.33197,-0.18697 -0.48649,-0.073 -0.15451,0.11395 -0.18732,0.33162 -0.073,0.48613 0.11395,0.15452 0.33161,0.18733 0.48613,0.0734 z m 0.83961,-0.57609 v 0 c 0.16192,-0.10336 0.20955,-0.3182 0.10654,-0.48013 -0.10301,-0.16192 -0.31821,-0.2099 -0.48013,-0.10654 v 0 c -0.16193,0.10302 -0.20955,0.31786 -0.10654,0.48014 0.10336,0.16192 0.3182,0.20955 0.48013,0.10653 z m 0.877,-0.51682 v 0 c 0.16863,-0.0917 0.23107,-0.30303 0.13935,-0.47166 -0.0917,-0.16863 -0.30268,-0.23107 -0.47131,-0.13935 v 0 c -0.16898,0.0917 -0.23142,0.30269 -0.1397,0.47167 0.0917,0.16863 0.30304,0.23107 0.47166,0.13934 z m 0.91017,-0.45473 v 0 c 0.17498,-0.0797 0.25188,-0.2861 0.1718,-0.46072 -0.0797,-0.17463 -0.2861,-0.25153 -0.46072,-0.17181 -0.17463,0.0797 -0.25153,0.28611 -0.17181,0.46073 0.0801,0.17463 0.28611,0.25153 0.46073,0.1718 z m 0.93945,-0.39052 v 0 c 0.17992,-0.0674 0.27093,-0.26776 0.2032,-0.44768 -0.0674,-0.17956 -0.26776,-0.27058 -0.44768,-0.2032 v 0 c -0.17956,0.0674 -0.27093,0.26776 -0.2032,0.44768 0.0674,0.17992 0.26776,0.27093 0.44768,0.2032 z m 0.9652,-0.3242 v 0 c 0.18415,-0.055 0.28892,-0.24871 0.23424,-0.43251 -0.055,-0.18415 -0.24871,-0.28892 -0.4325,-0.23424 v 0 c -0.18415,0.055 -0.28893,0.2487 -0.23425,0.4325 0.055,0.18415 0.24871,0.28893 0.43251,0.23425 z m 0.98566,-0.25683 v 0 c 0.18732,-0.0416 0.30551,-0.22754 0.26352,-0.41486 -0.042,-0.18768 -0.22789,-0.30551 -0.41521,-0.26353 -0.18733,0.0416 -0.30551,0.22754 -0.26353,0.41487 0.042,0.18768 0.22789,0.3055 0.41522,0.26352 z m 1.00083,-0.18732 v 0 c 0.19015,-0.0289 0.32068,-0.20602 0.29175,-0.39582 -0.0286,-0.18979 -0.20602,-0.32067 -0.39582,-0.29174 v 0 c -0.18979,0.0289 -0.32032,0.20602 -0.29175,0.39581 0.0289,0.1898 0.20603,0.32068 0.39582,0.29175 z m 1.01177,-0.11783 v 0 c 0.19156,-0.0155 0.33408,-0.18344 0.3182,-0.375 -0.0155,-0.19121 -0.18344,-0.33373 -0.37465,-0.31821 -0.19156,0.0159 -0.33408,0.18345 -0.31856,0.37501 0.0159,0.1912 0.1838,0.33372 0.37501,0.3182 z m 1.01776,-0.048 v 0 c 0.19191,-0.003 0.34572,-0.16051 0.34325,-0.35242 -0.003,-0.19191 -0.16051,-0.34572 -0.35242,-0.34325 v 0 c -0.19191,0.003 -0.34572,0.16051 -0.34325,0.35242 0.003,0.19191 0.16051,0.34572 0.35242,0.34325 z m 1.01882,0.0208 v 0 c 0.19156,0.0106 0.3556,-0.13653 0.36619,-0.32809 0.0106,-0.19191 -0.13653,-0.3556 -0.32809,-0.36618 -0.19191,-0.0106 -0.35595,0.13653 -0.36618,0.32808 -0.0106,0.19192 0.13617,0.3556 0.32808,0.36619 z m 1.01459,0.0907 v 0 c 0.1905,0.0236 0.36407,-0.11183 0.38771,-0.30233 0.0236,-0.1905 -0.11148,-0.36407 -0.30198,-0.3877 v 0 c -0.19086,-0.0236 -0.36442,0.11148 -0.38806,0.30198 -0.0236,0.19085 0.11183,0.36442 0.30233,0.38805 z m 1.00577,0.16016 v 0 c 0.18839,0.037 0.37112,-0.0861 0.40781,-0.27446 0.0367,-0.18873 -0.0861,-0.37112 -0.27481,-0.40816 v 0 c -0.18838,-0.0367 -0.37077,0.0864 -0.40781,0.27481 -0.0367,0.18838 0.0864,0.37112 0.27481,0.40781 z m 0.99201,0.22966 v 0 c 0.18556,0.0497 0.37642,-0.06 0.42616,-0.24553 0.0497,-0.18556 -0.0603,-0.37642 -0.24589,-0.42616 v 0 c -0.18521,-0.0497 -0.37606,0.0603 -0.4258,0.24589 -0.0497,0.18521 0.0603,0.37606 0.24553,0.4258 z m 0.97402,0.2981 v 0 c 0.18133,0.0628 0.37924,-0.0339 0.44203,-0.2152 0.0624,-0.18168 -0.0339,-0.37959 -0.21554,-0.44203 v 0 c -0.18168,-0.0628 -0.37959,0.0339 -0.44203,0.2152 -0.0624,0.18168 0.0339,0.37959 0.21554,0.44203 z m 0.9518,0.36583 v 0 c 0.17674,0.0751 0.381,-0.007 0.45614,-0.18415 0.0751,-0.17674 -0.007,-0.381 -0.18415,-0.45614 v 0 c -0.17674,-0.0748 -0.381,0.007 -0.45614,0.18415 -0.0748,0.17674 0.007,0.381 0.18415,0.45614 z m 0.92427,0.43074 v 0 c 0.1711,0.0871 0.3803,0.0194 0.46744,-0.15205 0.0871,-0.17109 0.019,-0.38029 -0.15205,-0.46743 -0.1711,-0.0871 -0.3803,-0.019 -0.46743,0.15205 -0.0871,0.1711 -0.0194,0.38029 0.15204,0.46743 z m 0.89147,0.49389 v 0 c 0.16475,0.0988 0.37853,0.0455 0.47731,-0.11924 0.0988,-0.16439 0.0452,-0.37818 -0.11924,-0.47696 v 0 c -0.16474,-0.0988 -0.37853,-0.0455 -0.4773,0.11924 -0.0988,0.16475 -0.0452,0.37818 0.11923,0.47696 z m 0.85549,0.55457 v 0 c 0.15769,0.10971 0.3743,0.0713 0.48436,-0.0861 0.10972,-0.15769 0.0713,-0.3743 -0.0861,-0.48437 v 0 c -0.1577,-0.10971 -0.3743,-0.0713 -0.48437,0.0861 -0.10971,0.15769 -0.0713,0.3743 0.0861,0.48437 z m 0.81527,0.61171 v 0 c 0.14922,0.12065 0.3683,0.097 0.48895,-0.0526 0.1203,-0.14958 0.097,-0.3683 -0.0526,-0.48895 v 0 c -0.14958,-0.1203 -0.36866,-0.097 -0.48895,0.0526 -0.12065,0.14958 -0.097,0.3683 0.0526,0.48895 z m 0.77082,0.6664 v 0 c 0.14076,0.13053 0.36089,0.12206 0.49142,-0.0187 0.13053,-0.14111 0.12206,-0.36089 -0.0187,-0.49142 -0.14111,-0.13052 -0.36089,-0.12206 -0.49142,0.0187 -0.13053,0.14076 -0.12206,0.36089 0.0187,0.49142 z m 0.72319,0.71755 v 0 c 0.13159,0.14005 0.35172,0.14676 0.49178,0.0152 0.1397,-0.13194 0.1464,-0.35172 0.0148,-0.49177 v 0 c -0.13158,-0.1397 -0.35172,-0.14641 -0.49142,-0.0148 -0.14005,0.13159 -0.14675,0.35172 -0.0152,0.49142 z m 0.6724,0.76553 v 0 c 0.12171,0.14852 0.34078,0.17039 0.4893,0.0487 0.14852,-0.12171 0.17039,-0.34078 0.0487,-0.4893 v 0 c -0.1217,-0.14852 -0.34078,-0.17039 -0.4893,-0.0487 -0.14852,0.12171 -0.17039,0.34079 -0.0487,0.48931 z m 0.61771,0.80962 v 0 c 0.11113,0.15664 0.32844,0.19333 0.48507,0.0822 0.15628,-0.11112 0.19332,-0.32844 0.0822,-0.48472 v -3.5e-4 c -0.11148,-0.15628 -0.32844,-0.19332 -0.48507,-0.0822 -0.15663,0.11148 -0.19332,0.32844 -0.0822,0.48507 z m 0.56057,0.84984 v 0 c 0.10019,0.16405 0.31432,0.21555 0.47801,0.11536 0.16404,-0.0998 0.21555,-0.31397 0.11536,-0.47801 v 0 c -0.0998,-0.16369 -0.31397,-0.21555 -0.47802,-0.11536 -0.16368,0.10019 -0.21554,0.31433 -0.11535,0.47801 z m 0.50059,0.88654 v 0 c 0.0885,0.17039 0.29845,0.23671 0.46884,0.14816 0.17039,-0.0885 0.23671,-0.29845 0.14817,-0.46884 v 0 c -0.0885,-0.17039 -0.29845,-0.23707 -0.46885,-0.14817 -0.17039,0.0885 -0.23706,0.29845 -0.14816,0.46885 z m 0.43744,0.91828 v 0 c 0.0766,0.17638 0.28152,0.25682 0.45756,0.18027 0.17603,-0.0766 0.25682,-0.28117 0.18026,-0.4572 v 0 c -0.0765,-0.17639 -0.28116,-0.25683 -0.45755,-0.18027 -0.17603,0.0762 -0.25682,0.28116 -0.18027,0.4572 z m 0.37289,0.9465 v 0 c 0.0642,0.18097 0.26282,0.27552 0.44379,0.21167 0.18098,-0.0642 0.27588,-0.26282 0.21167,-0.44415 v 0 c -0.0642,-0.18098 -0.26282,-0.27552 -0.44379,-0.21132 -0.18098,0.0639 -0.27588,0.26282 -0.21167,0.4438 z m 0.30621,0.9712 v 0 c 0.0515,0.18485 0.24306,0.29315 0.42827,0.242 0.18486,-0.0515 0.29351,-0.24306 0.24201,-0.42827 v 0 c -0.0515,-0.18486 -0.24307,-0.29316 -0.42792,-0.24201 -0.18521,0.0515 -0.29351,0.24307 -0.24236,0.42828 z m 0.23812,0.98989 v 0 c 0.0385,0.18838 0.22225,0.30974 0.41029,0.27129 0.18838,-0.0385 0.30973,-0.2219 0.27128,-0.41028 v 0 c -0.0385,-0.18803 -0.2219,-0.30939 -0.41028,-0.27094 -0.18803,0.0381 -0.30939,0.2219 -0.27129,0.40993 z m 0.16899,1.00436 v 0 c 0.0254,0.1905 0.20002,0.3242 0.39052,0.29915 0.1905,-0.0254 0.3242,-0.20002 0.2988,-0.39052 -0.025,-0.1905 -0.20002,-0.3242 -0.39017,-0.2988 -0.1905,0.025 -0.3242,0.20002 -0.29915,0.39017 z m 0.0991,1.01388 v 0 c 0.0123,0.19156 0.17744,0.33726 0.369,0.32491 0.19156,-0.012 0.33726,-0.17709 0.32526,-0.36901 -0.0123,-0.19155 -0.17744,-0.3369 -0.369,-0.3249 -0.19191,0.012 -0.33726,0.17744 -0.32526,0.369 z m 0.03,0.94509 v 0 c 0,0.19192 0.15558,0.34749 0.34749,0.34749 0.19226,0 0.34784,-0.15557 0.34784,-0.34749 0,-0.19226 -0.15558,-0.34783 -0.34784,-0.34783 -0.19191,0 -0.34749,0.15557 -0.34749,0.34783"
       style="fill:#ffffff;fill-opacity:1;fill-rule:nonzero;stroke:none;stroke-width:0.0352778" />
  </g>
</svg>
