<?xml version="1.0" encoding="UTF-8" standalone="no"?>
<!-- Uploaded to: SVG Repo, www.svgrepo.com, Generator: SVG Repo Mixer Tools -->

<svg
   version="1.1"
   width="800px"
   height="800px"
   viewBox="0 0 96 96"
   xml:space="preserve"
   id="svg14"
   sodipodi:docname="features_barley.svg"
   inkscape:version="1.3 (0e150ed6c4, 2023-07-21)"
   xmlns:inkscape="http://www.inkscape.org/namespaces/inkscape"
   xmlns:sodipodi="http://sodipodi.sourceforge.net/DTD/sodipodi-0.dtd"
   xmlns="http://www.w3.org/2000/svg"
   xmlns:svg="http://www.w3.org/2000/svg"><defs
   id="defs14" /><sodipodi:namedview
   id="namedview14"
   pagecolor="#ffffff"
   bordercolor="#000000"
   borderopacity="0.25"
   inkscape:showpageshadow="2"
   inkscape:pageopacity="0.0"
   inkscape:pagecheckerboard="0"
   inkscape:deskcolor="#d1d1d1"
   inkscape:zoom="0.68680959"
   inkscape:cx="108.47257"
   inkscape:cy="374.19396"
   inkscape:window-width="1456"
   inkscape:window-height="784"
   inkscape:window-x="0"
   inkscape:window-y="0"
   inkscape:window-maximized="1"
   inkscape:current-layer="Barley" />&#10;<style
   type="text/css"
   id="style1">&#10;	.st0{fill:#353535;}&#10;	.st1{fill:#FFFFFF;}&#10;	.st2{fill:#FFBD1A;}&#10;	.st3{fill:none;stroke:#353535;stroke-width:6;stroke-linecap:round;stroke-miterlimit:10;}&#10;	.st4{fill:none;stroke:#353535;stroke-width:6;stroke-linecap:round;stroke-linejoin:round;stroke-miterlimit:10;}&#10;	.st5{fill:#FFBD1A;stroke:#353535;stroke-width:6;stroke-linecap:round;stroke-miterlimit:10;}&#10;</style>&#10;<g
   id="guides_1_">&#10;</g>&#10;<g
   id="Mug">&#10;</g>&#10;<g
   id="Mug_2">&#10;</g>&#10;<g
   id="Can">&#10;</g>&#10;<g
   id="Beer_Cap">&#10;</g>&#10;<g
   id="Hop">&#10;</g>&#10;<g
   id="Barley">&#10;	<path
   class="st3"
   d="M21.7,3.2c-0.4-0.3-1-0.3-1.4,0c0,0-6.3,4.8-6.3,10.7c0,6.4,6.3,10.9,6.3,10.9c0.4,0.3,1,0.2,1.4-0.1   c0,0,6.3-4.4,6.3-10.8C28,8,21.7,3.2,21.7,3.2z"
   id="path1"
   style="stroke:#bfbfbf;stroke-opacity:1" />&#10;	<path
   class="st3"
   d="M38.9,27.1c-0.1-0.4-0.5-0.9-0.9-0.9c0,0-7.6-1.1-11.7,3c-4.4,4.4-3.1,11.8-3.1,11.8c0.1,0.4,0.5,0.8,1,0.9   c0,0,7.3,1.3,11.7-3.1C39.9,34.7,38.9,27.1,38.9,27.1z"
   id="path2"
   style="stroke:#bfbfbf;stroke-opacity:1" />&#10;	<path
   class="st3"
   d="M3.1,27.1c0.1-0.4,0.5-0.9,0.9-0.9c0,0,7.6-1.1,11.7,3c4.4,4.4,3.1,11.8,3.1,11.8c-0.1,0.4-0.5,0.8-1,0.9   c0,0-7.3,1.3-11.7-3.1C2.1,34.7,3.1,27.1,3.1,27.1z"
   id="path3"
   style="stroke:#bfbfbf;stroke-opacity:1" />&#10;	<path
   class="st3"
   d="M 38.9,49.1 C 38.8,48.7 35.916989,47.995756 35.516989,47.995756 35.516989,47.995756 30.4,47.1 26.3,51.2 21.9,55.6 23.2,63 23.2,63 c 0.1,0.4 0.5,0.8 1,0.9 0,0 7.3,1.3 11.7,-3.1 4,-4.1 3,-11.7 3,-11.7 z"
   id="path4"
   style="stroke:#bfbfbf;stroke-opacity:1"
   sodipodi:nodetypes="ccscccc" />&#10;	<path
   class="st3"
   d="M3.1,49.1c0.1-0.4,0.5-0.9,0.9-0.9c0,0,7.6-1.1,11.7,3c4.4,4.4,3.1,11.8,3.1,11.8c-0.1,0.4-0.5,0.8-1,0.9   c0,0-7.3,1.3-11.7-3.1C2.1,56.7,3.1,49.1,3.1,49.1z"
   id="path5"
   style="stroke:#bfbfbf;stroke-opacity:1" />&#10;	<path
   class="st3"
   d="M38.9,71.1c-0.1-0.4-0.5-0.9-0.9-0.9c0,0-7.6-1.1-11.7,3c-4.4,4.4-3.1,11.8-3.1,11.8c0.1,0.4,0.5,0.8,1,0.9   c0,0,7.3,1.3,11.7-3.1C39.9,78.7,38.9,71.1,38.9,71.1z"
   id="path6"
   style="stroke:#bfbfbf;stroke-opacity:1" />&#10;	<path
   class="st3"
   d="M3.1,71.1c0.1-0.4,0.5-0.9,0.9-0.9c0,0,7.6-1.1,11.7,3c4.4,4.4,3.1,11.8,3.1,11.8c-0.1,0.4-0.5,0.8-1,0.9   c0,0-7.3,1.3-11.7-3.1C2.1,78.7,3.1,71.1,3.1,71.1z"
   id="path7"
   style="stroke:#bfbfbf;stroke-opacity:1" />&#10;	<line
   class="st3"
   x1="21"
   y1="25"
   x2="21"
   y2="93"
   id="line7"
   style="stroke:#bfbfbf;stroke-opacity:1" />&#10;	<path
   class="st5"
   d="M75.7,3.2c-0.4-0.3-1-0.3-1.4,0c0,0-6.3,4.8-6.3,10.7c0,6.4,6.3,10.9,6.3,10.9c0.4,0.3,1,0.2,1.4-0.1   c0,0,6.3-4.4,6.3-10.8C82,8,75.7,3.2,75.7,3.2z"
   id="path8"
   style="stroke:#4d4d4d;stroke-opacity:1" />&#10;	<path
   class="st5"
   d="M92.9,27.1c-0.1-0.4-0.5-0.9-0.9-0.9c0,0-7.6-1.1-11.7,3c-4.4,4.4-3.1,11.8-3.1,11.8c0.1,0.4,0.5,0.8,1,0.9   c0,0,7.3,1.3,11.7-3.1C93.9,34.7,92.9,27.1,92.9,27.1z"
   id="path9"
   style="stroke:#4d4d4d;stroke-opacity:1" />&#10;	<path
   class="st5"
   d="M57.1,27.1c0.1-0.4,0.5-0.9,0.9-0.9c0,0,7.6-1.1,11.7,3c4.4,4.4,3.1,11.8,3.1,11.8c-0.1,0.4-0.5,0.8-1,0.9   c0,0-7.3,1.3-11.7-3.1C56.1,34.7,57.1,27.1,57.1,27.1z"
   id="path10"
   style="stroke:#4d4d4d;stroke-opacity:1" />&#10;	<path
   class="st5"
   d="M92.9,49.1c-0.1-0.4-0.5-0.9-0.9-0.9c0,0-7.6-1.1-11.7,3c-4.4,4.4-3.1,11.8-3.1,11.8c0.1,0.4,0.5,0.8,1,0.9   c0,0,7.3,1.3,11.7-3.1C93.9,56.7,92.9,49.1,92.9,49.1z"
   id="path11"
   style="stroke:#4d4d4d;stroke-opacity:1" />&#10;	<path
   class="st5"
   d="M57.1,49.1c0.1-0.4,0.5-0.9,0.9-0.9c0,0,7.6-1.1,11.7,3c4.4,4.4,3.1,11.8,3.1,11.8c-0.1,0.4-0.5,0.8-1,0.9   c0,0-7.3,1.3-11.7-3.1C56.1,56.7,57.1,49.1,57.1,49.1z"
   id="path12"
   style="stroke:#4d4d4d;stroke-opacity:1" />&#10;	<path
   class="st5"
   d="M92.9,71.1c-0.1-0.4-0.5-0.9-0.9-0.9c0,0-7.6-1.1-11.7,3c-4.4,4.4-3.1,11.8-3.1,11.8c0.1,0.4,0.5,0.8,1,0.9   c0,0,7.3,1.3,11.7-3.1C93.9,78.7,92.9,71.1,92.9,71.1z"
   id="path13"
   style="stroke:#4d4d4d;stroke-opacity:1" />&#10;	<path
   class="st5"
   d="M57.1,71.1c0.1-0.4,0.5-0.9,0.9-0.9c0,0,7.6-1.1,11.7,3c4.4,4.4,3.1,11.8,3.1,11.8c-0.1,0.4-0.5,0.8-1,0.9   c0,0-7.3,1.3-11.7-3.1C56.1,78.7,57.1,71.1,57.1,71.1z"
   id="path14"
   style="stroke:#4d4d4d;stroke-opacity:1" />&#10;	<line
   class="st3"
   x1="75"
   y1="25"
   x2="75"
   y2="93"
   id="line14"
   style="stroke:#4d4d4d;stroke-opacity:1" />&#10;</g>&#10;</svg>
