<?xml version="1.0" encoding="UTF-8" standalone="no"?>
<!-- Uploaded to: SVG Repo, www.svgrepo.com, Generator: SVG Repo Mixer Tools -->

<svg
   version="1.1"
   width="800px"
   height="800px"
   viewBox="0 0 96 96"
   xml:space="preserve"
   id="svg3"
   sodipodi:docname="features_beer.svg"
   inkscape:version="1.3 (0e150ed6c4, 2023-07-21)"
   xmlns:inkscape="http://www.inkscape.org/namespaces/inkscape"
   xmlns:sodipodi="http://sodipodi.sourceforge.net/DTD/sodipodi-0.dtd"
   xmlns="http://www.w3.org/2000/svg"
   xmlns:svg="http://www.w3.org/2000/svg"><defs
   id="defs3" /><sodipodi:namedview
   id="namedview3"
   pagecolor="#ffffff"
   bordercolor="#000000"
   borderopacity="0.25"
   inkscape:showpageshadow="2"
   inkscape:pageopacity="0.0"
   inkscape:pagecheckerboard="0"
   inkscape:deskcolor="#d1d1d1"
   inkscape:zoom="0.29807389"
   inkscape:cx="630.71609"
   inkscape:cy="872.26693"
   inkscape:window-width="1456"
   inkscape:window-height="784"
   inkscape:window-x="0"
   inkscape:window-y="0"
   inkscape:window-maximized="1"
   inkscape:current-layer="Mug" />&#10;<style
   type="text/css"
   id="style1">&#10;	.st0{fill:#353535;}&#10;	.st1{fill:#FFFFFF;}&#10;	.st2{fill:#FFBD1A;}&#10;	.st3{fill:none;stroke:#353535;stroke-width:6;stroke-linecap:round;stroke-miterlimit:10;}&#10;	.st4{fill:none;stroke:#353535;stroke-width:6;stroke-linecap:round;stroke-linejoin:round;stroke-miterlimit:10;}&#10;	.st5{fill:#FFBD1A;stroke:#353535;stroke-width:6;stroke-linecap:round;stroke-miterlimit:10;}&#10;</style>&#10;<g
   id="guides_1_">&#10;</g>&#10;<g
   id="Mug">&#10;	<path
   class="st3"
   d="M71,82h11c6.1,0,11-4.9,11-11V49c0-6.1-4.9-11-11-11H71"
   id="path1"
   style="stroke:#bfbfbf;stroke-opacity:1" />&#10;	<line
   class="st3"
   x1="3"
   y1="37"
   x2="37"
   y2="37"
   id="line1"
   style="stroke:#bfbfbf;stroke-opacity:1" />&#10;	<line
   class="st3"
   x1="45"
   y1="37"
   x2="51"
   y2="37"
   id="line2"
   style="stroke:#bfbfbf;stroke-opacity:1" />&#10;	<path
   class="st4"
   d="M37,24c0-6.1,4.9-11,11-11s11,4.9,11,11v2h10c1.1,0,2,0.9,2,2v54c0,6.1-4.9,11-11,11H14C7.9,93,3,88.1,3,82V20   c0-9.4,7.6-17,17-17s17,7.6,17,17v6"
   id="path2"
   style="stroke:#bfbfbf;stroke-opacity:1" />&#10;	<path
   class="st2"
   d="M58,48H16c-1.1,0-2,0.9-2,2v2v2v24c0,2.2,1.8,4,4,4h38c2.2,0,4-1.8,4-4V54v-2v-2C60,48.9,59.1,48,58,48z    M27,72.5c0,1.7-1.3,3-3,3s-3-1.3-3-3v-15c0-1.7,1.3-3,3-3s3,1.3,3,3V72.5z M40,72.5c0,1.7-1.3,3-3,3s-3-1.3-3-3v-15   c0-1.7,1.3-3,3-3s3,1.3,3,3V72.5z M53,72.5c0,1.7-1.3,3-3,3s-3-1.3-3-3v-15c0-1.7,1.3-3,3-3s3,1.3,3,3V72.5z"
   id="path3" />&#10;</g>&#10;<g
   id="Mug_2">&#10;</g>&#10;<g
   id="Can">&#10;</g>&#10;<g
   id="Beer_Cap">&#10;</g>&#10;<g
   id="Hop">&#10;</g>&#10;<g
   id="Barley">&#10;</g>&#10;</svg>
