<?xml version="1.0" encoding="UTF-8" standalone="no"?>
<!-- Created with Inkscape (http://www.inkscape.org/) -->

<svg
   width="47.569874mm"
   height="44.608265mm"
   viewBox="0 0 47.569874 44.608265"
   version="1.1"
   id="svg1"
   inkscape:version="1.3 (0e150ed6c4, 2023-07-21)"
   sodipodi:docname="logo.svg"
   xmlns:inkscape="http://www.inkscape.org/namespaces/inkscape"
   xmlns:sodipodi="http://sodipodi.sourceforge.net/DTD/sodipodi-0.dtd"
   xmlns="http://www.w3.org/2000/svg"
   xmlns:svg="http://www.w3.org/2000/svg">
  <sodipodi:namedview
     id="namedview1"
     pagecolor="#ffffff"
     bordercolor="#000000"
     borderopacity="0.25"
     inkscape:showpageshadow="2"
     inkscape:pageopacity="0.0"
     inkscape:pagecheckerboard="0"
     inkscape:deskcolor="#d1d1d1"
     inkscape:document-units="mm"
     inkscape:zoom="2.3759017"
     inkscape:cx="27.147587"
     inkscape:cy="72.18312"
     inkscape:window-width="1920"
     inkscape:window-height="1053"
     inkscape:window-x="0"
     inkscape:window-y="27"
     inkscape:window-maximized="1"
     inkscape:current-layer="layer1" />
  <defs
     id="defs1" />
  <g
     inkscape:label="Layer 1"
     inkscape:groupmode="layer"
     id="layer1"
     transform="translate(-49.741674,-74.083323)">
    <path
       d="m 84.177147,81.740721 c 0,-0.05821 -0.01976,-0.132292 -0.05997,-0.218722 l -0.0021,-0.0021 c -0.110772,-0.233186 -0.373945,-0.554919 -0.82797,-0.906639 -1.342672,-1.042811 -4.339519,-2.347383 -9.8806,-2.347383 -5.795787,0.347486 -8.394701,1.394883 -9.556398,2.3114 l -0.0018,0.0021 c -0.329847,0.259292 -0.542572,0.51047 -0.681214,0.729192 -0.301978,0.478367 -0.243417,0.818092 -0.243417,0.818092 0,0 -0.415925,4.855633 10.646129,4.855633 C 84.229694,86.588242 84.17713,82.23708 84.17713,81.740722"
       style="fill:#ffd700;fill-opacity:1;fill-rule:nonzero;stroke:none;stroke-width:0.0352778"
       id="path980" />
    <path
       d="m 83.928086,85.611399 c -0.757767,0.683683 -1.730728,1.252361 -2.910064,1.702506 1.939219,5.368219 4.919839,17.350315 -2.457803,26.849215 1.219552,-0.30374 2.265186,-0.74613 2.986264,-1.3455 10.719859,-8.69174 7.91457,-22.583421 3.907014,-29.352521 -0.307622,0.783872 -0.823384,1.515533 -1.525411,2.1463"
       style="fill:#ffd700;fill-opacity:1;fill-rule:nonzero;stroke:none;stroke-width:0.0352778"
       id="path982" />
    <path
       d="m 65.639026,87.364352 c -1.230136,-0.496711 -2.216856,-1.149703 -2.95275,-1.951567 -0.576439,-0.629356 -0.914047,-1.264356 -1.109134,-1.812925 -3.987447,6.837539 -6.760986,20.59623 3.871031,29.21776 0.576792,0.45297 1.448859,0.83291 2.5019,1.1303 -7.144456,-9.43469 -4.234391,-21.229812 -2.311047,-26.583568"
       style="fill:#ffd700;fill-opacity:1;fill-rule:nonzero;stroke:none;stroke-width:0.0352778"
       id="path984" />
    <path
       d="m 79.050227,87.915038 c -1.44145,0.345722 -3.10127,0.562328 -4.978048,0.652992 0.228953,5.520972 0.705203,19.03448 0.261409,26.10485 0.867833,-0.0176 1.728258,-0.0801 2.544233,-0.19297 6.523567,-10.05275 3.886553,-21.494397 2.172406,-26.564872"
       style="fill:#ffd700;fill-opacity:1;fill-rule:nonzero;stroke:none;stroke-width:0.0352778"
       id="path986" />
    <path
       d="m 72.478329,88.574027 c -1.851025,-0.05397 -3.482975,-0.253295 -4.891969,-0.59055 -1.708503,5.078589 -4.276726,16.379123 2.102202,26.351793 0.890412,0.15311 1.847145,0.25753 2.819753,0.30727 -1.093611,-9.62236 -0.415572,-21.130329 -0.02999,-26.068513"
       style="fill:#ffd700;fill-opacity:1;fill-rule:nonzero;stroke:none;stroke-width:0.0352778"
       id="path988" />
    <path
       d="m 55.719267,89.820038 c 0.135467,-0.818092 0.339725,-1.628775 0.5969,-2.422878 0.452614,-0.0187 2.274359,-0.232128 2.990145,-2.451806 0,0 -1.363839,-0.53728 -2.350559,0.739423 0.218017,-0.517173 0.451556,-1.022703 0.697089,-1.513064 0.599723,-0.0021 2.357967,-0.192617 3.033537,-2.287412 0,0 -0.897467,-0.395816 -1.780117,0.03422 0.220486,-0.360892 0.440619,-0.706261 0.658283,-1.035756 0.631825,0.08326 2.291998,0.09772 3.254375,-1.805869 0,0 1.225903,-1.299281 2.061634,-1.724025 0,0 -0.988484,0.399697 -2.211211,1.641828 -0.316442,-0.155928 -1.092201,-0.441678 -1.897239,-0.02469 0.320322,-0.479425 0.917927,-1.313392 1.694744,-2.124428 0,0 -1.3843,1.104195 -1.964619,1.969206 0.135113,-0.949325 -0.437092,-1.638653 -0.699912,-1.899003 0.05574,-0.0575 1.266473,-1.299281 2.082801,-1.714147 0,0 -0.963437,0.319264 -2.20839,1.599494 -1.761066,1.823509 -0.571147,3.77825 -0.443794,3.974748 -0.390525,0.539044 -0.742244,1.068211 -1.058333,1.585383 0.329847,-1.528586 -0.944739,-2.316692 -0.944739,-2.316692 -1.440745,2.052814 -0.158398,3.80612 0.0049,4.014259 -0.210962,0.424744 -0.400403,0.837494 -0.566914,1.23578 -0.02364,-1.3843 -1.252714,-1.933222 -1.252714,-1.933222 -1.140884,2.199922 0.313266,3.75532 0.53093,3.969809 -0.135114,0.463903 -0.240594,0.893939 -0.32138,1.282347 -0.347839,-1.192389 -1.526117,-1.483783 -1.526117,-1.483783 -0.790928,2.551641 1.255536,3.833989 1.255536,3.833989 l 0.217311,0.0053 c 0,0 2.389011,-0.361597 2.678995,-3.018014 0,0 -1.967442,-0.331258 -2.531181,1.869017"
       style="fill:#ffd700;fill-opacity:1;fill-rule:nonzero;stroke:none;stroke-width:0.0352778"
       id="path990" />
    <path
       d="m 60.669445,77.188829 0.1143,0.131586 c 0,0 1.070681,-1.038225 1.516945,-1.342319 0,0 -1.364192,0.89535 -1.631245,1.210733"
       style="fill:#ffd700;fill-opacity:1;fill-rule:nonzero;stroke:none;stroke-width:0.0352778"
       id="path992" />
    <path
       d="m 62.075618,78.178018 0.1143,0.131939 c 0,0 1.07068,-1.038578 1.516944,-1.343378 0,0 -1.364192,0.896056 -1.631244,1.211439"
       style="fill:#ffd700;fill-opacity:1;fill-rule:nonzero;stroke:none;stroke-width:0.0352778"
       id="path994" />
    <path
       d="m 92.954611,87.129755 c 0,0 -1.177925,0.291394 -1.526469,1.483783 -0.08008,-0.388056 -0.185914,-0.818444 -0.321028,-1.282347 0.216958,-0.214489 1.671814,-1.769887 0.530578,-3.969809 0,0 -1.228373,0.548922 -1.252714,1.93287 -0.166159,-0.397934 -0.3556,-0.810684 -0.566209,-1.235428 0.162984,-0.207786 1.445684,-1.961445 0.0046,-4.014259 0,0 -1.274233,0.788106 -0.944386,2.317045 -0.316441,-0.517525 -0.668161,-1.046692 -1.058333,-1.585736 0.126647,-0.19685 1.316919,-2.151239 -0.444147,-3.974748 -1.244953,-1.28023 -2.208389,-1.599494 -2.208389,-1.599494 0.817033,0.414866 2.027766,1.657702 2.082447,1.714147 -0.26282,0.260703 -0.834672,0.949678 -0.699558,1.899003 -0.58032,-0.865011 -1.963914,-1.969206 -1.963914,-1.969206 0.776111,0.811036 1.373363,1.645003 1.693686,2.124428 -0.805039,-0.416983 -1.580092,-0.131233 -1.897239,0.02469 -1.222023,-1.242131 -2.210506,-1.641828 -2.210506,-1.641828 0.835731,0.424744 2.061281,1.724025 2.061281,1.724025 0.962025,1.903589 2.62255,1.889125 3.254375,1.805869 0.218017,0.329495 0.437444,0.674864 0.658283,1.035756 -0.88265,-0.430036 -1.779764,-0.03422 -1.779764,-0.03422 0.675923,2.094795 2.433462,2.285295 3.032478,2.287412 0.245534,0.490361 0.479778,0.995891 0.698148,1.513064 -0.987073,-1.276703 -2.350912,-0.739423 -2.350912,-0.739423 0.716139,2.219678 2.537531,2.433109 2.989792,2.451806 0.257528,0.794103 0.462139,1.604786 0.597958,2.423231 -0.564091,-2.200628 -2.53118,-1.86937 -2.53118,-1.86937 0.289278,2.656417 2.678994,3.018014 2.678994,3.018014 l 0.216253,-0.0053 c 0,0 2.04717,-1.282348 1.255889,-3.833989"
       style="fill:#ffd700;fill-opacity:1;fill-rule:nonzero;stroke:none;stroke-width:0.0352778"
       id="path996" />
    <path
       d="m 86.383419,77.188829 c -0.2667,-0.315383 -1.630892,-1.210733 -1.630892,-1.210733 0.446264,0.304094 1.516945,1.342319 1.516945,1.342319 l 0.113947,-0.131586"
       style="fill:#ffd700;fill-opacity:1;fill-rule:nonzero;stroke:none;stroke-width:0.0352778"
       id="path998" />
    <path
       d="m 83.346355,76.966579 c 0.446264,0.3048 1.516945,1.343378 1.516945,1.343378 l 0.1143,-0.131939 c -0.267053,-0.315383 -1.631245,-1.211439 -1.631245,-1.211439"
       style="fill:#ffd700;fill-opacity:1;fill-rule:nonzero;stroke:none;stroke-width:0.0352778"
       id="path1000" />
    <path
       d="M 70.180335,77.192357 V 74.452684 H 69.91046 v -0.360186 h 0.616303 v 3.099859 h -0.346428"
       style="fill:#ffd700;fill-opacity:1;fill-rule:nonzero;stroke:none;stroke-width:0.0352778"
       id="path1002" />
    <path
       d="m 72.523838,74.907062 c 0,-0.111125 -0.0099,-0.198261 -0.03104,-0.261055 -0.02081,-0.06315 -0.05362,-0.11042 -0.09666,-0.141817 -0.04374,-0.0314 -0.09842,-0.05115 -0.164394,-0.05856 -0.06562,-0.0074 -0.143581,-0.01129 -0.233892,-0.01129 -0.08961,0 -0.166864,0.0039 -0.231775,0.01129 -0.06421,0.0074 -0.118181,0.02716 -0.161572,0.05856 -0.0441,0.0314 -0.0762,0.07867 -0.09737,0.141817 -0.02046,0.06279 -0.03104,0.14993 -0.03104,0.261055 0,0.125942 0.01411,0.22225 0.04304,0.289983 0.02822,0.06738 0.06562,0.117476 0.112184,0.150637 0.04692,0.03281 0.101247,0.05256 0.164394,0.05856 0.06315,0.006 0.130175,0.0092 0.202142,0.0092 0.07161,0 0.140758,-0.0032 0.204964,-0.0092 0.06456,-0.006 0.119944,-0.02575 0.165805,-0.05856 0.04727,-0.03316 0.08431,-0.08326 0.112889,-0.150637 0.02822,-0.06773 0.04233,-0.164041 0.04233,-0.289983 z m -0.525992,1.956859 c 0.113594,0 0.211314,-0.0067 0.292453,-0.02046 0.08114,-0.0134 0.147461,-0.04269 0.200025,-0.08749 0.05292,-0.04516 0.09102,-0.11042 0.114653,-0.195792 0.02469,-0.08573 0.03634,-0.201789 0.03634,-0.348897 0,-0.155928 -0.04762,-0.272698 -0.144286,-0.350661 -0.09525,-0.07796 -0.262114,-0.117123 -0.499181,-0.117123 -0.233539,0 -0.398639,0.03916 -0.494947,0.117123 -0.09596,0.07796 -0.143934,0.194733 -0.143934,0.350661 0,0.147108 0.01199,0.263172 0.03634,0.348897 0.02399,0.08537 0.06174,0.150636 0.1143,0.195792 0.05256,0.0448 0.118534,0.07408 0.198262,0.08749 0.07937,0.01376 0.176036,0.02046 0.289983,0.02046 z M 71.12966,74.879545 c 0,-0.194733 0.02258,-0.345369 0.06738,-0.451908 0.0448,-0.106539 0.106539,-0.185208 0.184503,-0.236361 0.07796,-0.0508 0.169333,-0.08149 0.274461,-0.09208 0.104775,-0.01058 0.218722,-0.01587 0.341842,-0.01587 0.123472,0 0.238125,0.0053 0.344311,0.01587 0.106539,0.01058 0.198614,0.04128 0.276225,0.09208 0.07867,0.05115 0.140053,0.129822 0.184503,0.236361 0.04551,0.106539 0.06809,0.257175 0.06809,0.451908 0,0.189089 -0.0254,0.335492 -0.07479,0.438856 -0.04974,0.103364 -0.126294,0.188383 -0.231422,0.254 0.125942,0.02434 0.231069,0.100189 0.314678,0.227189 0.08396,0.128058 0.126294,0.286103 0.126294,0.475192 0,0.191911 -0.02328,0.348191 -0.06985,0.4699 -0.04657,0.121355 -0.113242,0.217311 -0.200025,0.287866 -0.08714,0.07056 -0.192617,0.119239 -0.317853,0.146403 -0.123825,0.02681 -0.26423,0.04022 -0.420158,0.04022 -0.155575,0 -0.295628,-0.01341 -0.418042,-0.04022 -0.123472,-0.02716 -0.228247,-0.07585 -0.315383,-0.146403 -0.08678,-0.07055 -0.153811,-0.166511 -0.200025,-0.287866 -0.04657,-0.121709 -0.06985,-0.277989 -0.06985,-0.4699 0,-0.189089 0.04198,-0.347134 0.125942,-0.475192 0.08396,-0.127 0.189088,-0.202847 0.314677,-0.227189 -0.107597,-0.06562 -0.185914,-0.150636 -0.233539,-0.254 -0.04798,-0.103364 -0.07197,-0.249767 -0.07197,-0.438856"
       style="fill:#ffd700;fill-opacity:1;fill-rule:nonzero;stroke:none;stroke-width:0.0352778"
       id="path1004" />
    <path
       d="m 73.721165,77.192357 c 0.01164,-0.117122 0.02364,-0.233186 0.03563,-0.348898 0.01199,-0.115358 0.02752,-0.233891 0.04516,-0.354894 0.01799,-0.121708 0.04022,-0.246239 0.06526,-0.373944 0.02575,-0.127353 0.05962,-0.261409 0.101248,-0.40252 0.08714,-0.290689 0.1905,-0.53975 0.310444,-0.746831 0.120297,-0.20708 0.230717,-0.376413 0.333022,-0.508352 H 73.31159 v -0.3556 h 1.668639 v 0.45473 c -0.131586,0.122767 -0.250472,0.280459 -0.357363,0.47237 -0.106187,0.191911 -0.196145,0.40393 -0.269523,0.636764 -0.07373,0.232127 -0.129822,0.479425 -0.16898,0.742244 -0.03916,0.262114 -0.05891,0.523875 -0.05891,0.784931 h -0.404284"
       style="fill:#ffd700;fill-opacity:1;fill-rule:nonzero;stroke:none;stroke-width:0.0352778"
       id="path1006" />
    <path
       d="m 76.312671,76.855101 c 0.155928,0 0.277989,-0.02646 0.366536,-0.07902 0.08855,-0.05221 0.155223,-0.129822 0.200378,-0.231775 0.0448,-0.1016 0.07232,-0.2286 0.0829,-0.379942 0.01058,-0.151694 0.01588,-0.325966 0.01588,-0.524228 0,-0.197908 -0.0053,-0.372533 -0.01588,-0.524227 -0.01058,-0.151342 -0.0381,-0.277284 -0.0829,-0.377825 -0.04516,-0.100542 -0.11183,-0.176037 -0.200378,-0.227189 -0.08855,-0.0508 -0.210608,-0.07655 -0.366536,-0.07655 -0.153105,0 -0.276225,0.02575 -0.369005,0.07655 -0.09313,0.05115 -0.163336,0.126647 -0.211667,0.227189 -0.04762,0.100541 -0.07973,0.226483 -0.09454,0.377825 -0.01517,0.151694 -0.02223,0.326319 -0.02223,0.524227 0,0.198262 0.0071,0.372534 0.02223,0.524228 0.01482,0.151342 0.04692,0.278342 0.09454,0.379942 0.04833,0.101953 0.118181,0.179564 0.20955,0.231775 0.09137,0.05256 0.215194,0.07902 0.371122,0.07902 z m 0,-2.771775 c 0.206728,0 0.375356,0.02787 0.506236,0.08326 0.130175,0.05574 0.231775,0.145697 0.305506,0.270227 0.07338,0.124531 0.12453,0.28575 0.153458,0.483306 0.02822,0.198261 0.04233,0.43815 0.04233,0.720019 0,0.285045 -0.01094,0.526345 -0.03387,0.724606 -0.02223,0.197556 -0.06879,0.359833 -0.139347,0.485422 -0.0702,0.125942 -0.172509,0.217664 -0.305859,0.274814 -0.13335,0.0568 -0.309739,0.08537 -0.528461,0.08537 -0.219075,0 -0.396875,-0.0314 -0.5334,-0.0949 -0.136172,-0.06244 -0.242005,-0.159103 -0.317147,-0.289983 -0.07514,-0.130528 -0.124883,-0.293511 -0.150989,-0.490361 -0.02505,-0.196145 -0.03775,-0.42792 -0.03775,-0.694973 0,-0.269875 0.01552,-0.503061 0.04692,-0.699558 0.03175,-0.196497 0.08608,-0.357717 0.164747,-0.483658 0.07761,-0.126295 0.184503,-0.219781 0.318559,-0.281164 0.135467,-0.06138 0.3048,-0.09243 0.509058,-0.09243"
       style="fill:#ffd700;fill-opacity:1;fill-rule:nonzero;stroke:none;stroke-width:0.0352778"
       id="path1008" />
    <path
       d="m 68.550148,75.475034 c 0,0.347487 -0.282222,0.629356 -0.629708,0.629356 -0.347839,0 -0.629355,-0.281869 -0.629355,-0.629356 0,-0.347839 0.281516,-0.629355 0.629355,-0.629355 0.347486,0 0.629708,0.281516 0.629708,0.629355"
       style="fill:#ffd700;fill-opacity:1;fill-rule:nonzero;stroke:none;stroke-width:0.0352778"
       id="path1010" />
    <path
       d="m 79.762133,75.475034 c 0,0.347487 -0.282223,0.629356 -0.629356,0.629356 -0.347839,0 -0.629356,-0.281869 -0.629356,-0.629356 0,-0.347839 0.281517,-0.629355 0.629356,-0.629355 0.347133,0 0.629356,0.281516 0.629356,0.629355"
       style="fill:#ffd700;fill-opacity:1;fill-rule:nonzero;stroke:none;stroke-width:0.0352778"
       id="path1012" />
    <path
       d="m 92.865358,107.27443 c -12.60087,-3.87703 -26.076276,-3.87703 -38.677499,0 0.231069,-2.27189 0.548922,-4.55225 0.951794,-6.83296 -1.476375,-1.785759 -3.031067,-3.530951 -4.663017,-5.229576 15.019515,-4.620684 31.08043,-4.620684 46.099945,0 -1.631245,1.698625 -3.186642,3.443817 -4.663017,5.229576 0.402872,2.28071 0.720372,4.56107 0.951794,6.83296"
       style="fill:#f9a716;fill-opacity:1;fill-rule:nonzero;stroke:none;stroke-width:0.0352778"
       id="path1014" />
    <path
       d="m 92.865358,108.00926 c -0.07267,0 -0.144991,-0.0109 -0.215547,-0.0328 -6.200775,-1.90747 -12.63509,-2.87478 -19.123732,-2.87478 -6.487231,0 -12.921192,0.96731 -19.12232,2.87478 -0.07056,0.0219 -0.143581,0.0328 -0.2159,0.0328 -0.168275,0 -0.333023,-0.0579 -0.46602,-0.16722 -0.190853,-0.15557 -0.290336,-0.39722 -0.264936,-0.64205 0.221545,-2.17558 0.524228,-4.37656 0.900995,-6.55144 -1.402645,-1.682747 -2.885017,-3.339039 -4.411134,-4.926892 -0.176742,-0.184503 -0.245533,-0.44697 -0.181681,-0.693914 0.06421,-0.246944 0.251531,-0.443089 0.495653,-0.518231 7.544859,-2.321278 15.372646,-3.497792 23.265343,-3.497792 7.893756,0 15.722249,1.176514 23.266402,3.497792 0.243769,0.07514 0.4318,0.271287 0.495653,0.518231 0.06385,0.246944 -0.0049,0.509411 -0.181681,0.693914 -1.525411,1.587853 -3.008136,3.244145 -4.410781,4.926892 0.376061,2.17488 0.679098,4.37586 0.901348,6.55144 0.02434,0.24483 -0.07479,0.48648 -0.265289,0.64205 -0.13335,0.10937 -0.297745,0.16722 -0.466373,0.16722"
       style="fill:#ffd700;fill-opacity:1;fill-rule:nonzero;stroke:none;stroke-width:0.0352778"
       id="path1016" />
    <path
       d="m 92.865358,107.27443 c -12.60087,-3.87703 -26.076276,-3.87703 -38.677499,0 0.231069,-2.27189 0.548922,-4.55225 0.951794,-6.83296 -1.476375,-1.785759 -3.031067,-3.530951 -4.663017,-5.229576 15.019515,-4.620684 31.08043,-4.620684 46.099945,0 -1.631245,1.698625 -3.186642,3.443817 -4.663017,5.229576 0.402872,2.28071 0.720372,4.56107 0.951794,6.83296"
       style="fill:#ffffff;fill-opacity:1;fill-rule:nonzero;stroke:none;stroke-width:0.0352778"
       id="path1018" />
    <path
       d="m 55.036995,106.25384 c 0.216605,-1.89406 0.493536,-3.80118 0.826558,-5.68466 0.03775,-0.21237 -0.02011,-0.42969 -0.157339,-0.595844 -1.23578,-1.495425 -2.535766,-2.971447 -3.873853,-4.399845 7.051676,-2.052461 14.343946,-3.092097 21.693718,-3.092097 7.350831,0 14.643454,1.039636 21.69513,3.092097 -1.338792,1.428398 -2.638073,2.90442 -3.874206,4.399845 -0.137584,0.166154 -0.194734,0.383474 -0.157692,0.595844 0.333728,1.88348 0.610658,3.7906 0.826911,5.68466 -6.011686,-1.74096 -12.225514,-2.62185 -18.490143,-2.62185 -6.263217,0 -12.477398,0.88089 -18.489084,2.62185"
       style="fill:#ffd700;fill-opacity:1;fill-rule:nonzero;stroke:none;stroke-width:0.0352778"
       id="path1020" />
    <path
       d="m 62.411462,97.968147 c -0.436739,0.100894 -0.8763,0.207786 -1.31445,0.319617 l -0.450145,-1.696509 c 0.366537,-0.09419 0.730956,-0.183797 1.089026,-0.267758 0.129116,-0.02999 0.256469,-0.04516 0.377825,-0.04516 0.554566,0 0.903816,0.310445 0.962377,0.617714 0.09596,0.504472 -0.259291,0.897467 -0.664633,1.072092 z m -0.32385,4.033313 c -0.190147,-0.70979 -0.379942,-1.42099 -0.569383,-2.131841 0.482247,-0.123472 0.968375,-0.240241 1.449564,-0.348897 0.0896,-0.0194 0.1778,-0.02893 0.263525,-0.02893 0.564444,0 0.947208,0.434975 1.020586,0.845608 0.128764,0.71861 -0.394759,1.24284 -0.951442,1.37054 -0.403931,0.0917 -0.810331,0.19015 -1.21285,0.29352 z m 2.38372,-3.836463 c 0.316794,-0.450145 0.420863,-0.988131 0.312208,-1.59632 -0.166158,-0.96273 -1.109133,-1.937455 -2.590095,-1.937455 -0.269169,0 -0.547511,0.03316 -0.827616,0.09807 -0.779287,0.182386 -1.567745,0.386292 -2.344914,0.606778 -0.280106,0.07867 -0.442737,0.370064 -0.364773,0.650169 0.70097,2.509662 1.406173,5.018621 2.115962,7.526161 0.03845,0.13441 0.128763,0.24942 0.250825,0.31715 0.07937,0.0448 0.168627,0.0674 0.25788,0.0674 0.04868,0 0.09701,-0.007 0.144286,-0.0201 0.741539,-0.21025 1.497895,-0.40322 2.250017,-0.57432 1.293989,-0.2981 2.518481,-1.54481 2.238375,-3.26708 -0.154516,-0.948617 -0.79763,-1.551514 -1.442155,-1.870425"
       style="fill:#ffffff;fill-opacity:1;fill-rule:nonzero;stroke:none;stroke-width:0.0352778"
       id="path1022" />
    <path
       d="m 72.557704,100.74486 c -0.1016,-0.0963 -0.239183,-0.14429 -0.377472,-0.1457 -1.007886,0.0254 -2.026003,0.0843 -3.033183,0.17886 -0.07585,-0.73307 -0.150989,-1.464026 -0.226131,-2.195687 0.696736,-0.06562 1.398058,-0.114653 2.090208,-0.148519 0.291395,-0.01376 0.516114,-0.260703 0.502356,-0.552098 l -0.02611,-0.578202 c -0.0063,-0.140406 -0.06809,-0.272698 -0.172155,-0.366537 -0.10407,-0.09525 -0.240947,-0.149577 -0.381353,-0.137583 -0.722136,0.03492 -1.452386,0.08678 -2.178756,0.154164 -0.05927,-0.582083 -0.117827,-1.16452 -0.176741,-1.74625 0.992364,-0.09278 1.996369,-0.157339 2.992967,-0.191206 0.291041,-0.01023 0.518583,-0.274461 0.509411,-0.565855 l -0.01658,-0.5588 c -0.0042,-0.140053 -0.06456,-0.27305 -0.167569,-0.369006 -0.1016,-0.0956 -0.238125,-0.149225 -0.378531,-0.142522 -1.444625,0.04939 -2.904772,0.159808 -4.339167,0.329142 -0.289278,0.03387 -0.496005,0.294922 -0.46355,0.584905 0.295628,2.588684 0.595136,5.177367 0.898878,7.766054 0.01623,0.13864 0.08749,0.26564 0.197203,0.35277 0.09384,0.0741 0.20955,0.1136 0.32773,0.1136 0.02117,0 0.04127,-3.5e-4 0.06209,-0.004 1.326445,-0.15593 2.677937,-0.2533 4.019551,-0.28681 0.291394,-0.007 0.521758,-0.24977 0.515055,-0.54151 l -0.01376,-0.57962 c -0.0042,-0.1397 -0.06279,-0.2727 -0.164395,-0.36971"
       style="fill:#ffffff;fill-opacity:1;fill-rule:nonzero;stroke:none;stroke-width:0.0352778"
       id="path1024" />
    <path
       d="m 79.247783,93.688599 c -1.431573,-0.163336 -2.889603,-0.269522 -4.33317,-0.314325 -0.282928,-0.01446 -0.534811,0.219075 -0.544336,0.510117 -0.09102,2.604206 -0.176742,5.208412 -0.257528,7.814029 -0.0046,0.14005 0.04692,0.27622 0.143228,0.37818 0.09631,0.1016 0.229305,0.16192 0.3683,0.1658 1.337028,0.0416 2.687108,0.14464 4.011083,0.30904 0.02222,0.002 0.04375,0.004 0.06526,0.004 0.117475,0 0.231775,-0.0388 0.325261,-0.11254 0.110067,-0.0861 0.182386,-0.21202 0.19932,-0.35137 l 0.07161,-0.57397 c 0.01764,-0.14005 -0.02081,-0.27975 -0.107245,-0.39123 -0.08643,-0.11042 -0.21343,-0.18203 -0.352072,-0.19932 -0.999067,-0.12417 -2.012245,-0.21484 -3.021895,-0.27128 0.03316,-0.734485 0.06703,-1.469321 0.100542,-2.20451 0.693914,0.0388 1.393825,0.09278 2.084917,0.161572 0.28963,0.02716 0.548922,-0.182033 0.57785,-0.471664 l 0.05997,-0.577144 c 0.01411,-0.138995 -0.02752,-0.279048 -0.116417,-0.38735 -0.0889,-0.109362 -0.217311,-0.1778 -0.356658,-0.191912 -0.716845,-0.07197 -1.445331,-0.128763 -2.173464,-0.168275 0.02752,-0.584905 0.05539,-1.169458 0.08361,-1.753305 0.996245,0.05397 1.997428,0.138994 2.983442,0.25153 0.285397,0.03034 0.550686,-0.173566 0.584906,-0.462491 l 0.06809,-0.575028 c 0.01658,-0.140053 -0.02258,-0.280459 -0.109361,-0.390525 -0.08784,-0.11042 -0.2159,-0.181328 -0.355247,-0.197909"
       style="fill:#ffffff;fill-opacity:1;fill-rule:nonzero;stroke:none;stroke-width:0.0352778"
       id="path1026" />
    <path
       d="m 83.512513,96.026105 c 0.531636,0.109361 1.066448,0.229306 1.59632,0.355953 0.684036,0.165453 1.017764,0.532694 1.177572,0.811036 0.172861,0.301625 0.224014,0.655461 0.136525,0.946503 -0.230717,0.771878 -0.940505,1.045986 -1.527175,1.045986 -0.148519,0 -0.293864,-0.01587 -0.432858,-0.04939 -0.493536,-0.118886 -0.996598,-0.230716 -1.500011,-0.33408 0.183091,-0.926042 0.365477,-1.850673 0.549627,-2.776008 z m 4.310592,0.423686 c -0.458964,-0.816328 -1.285522,-1.405114 -2.329039,-1.658055 -0.948972,-0.228248 -1.918758,-0.432506 -2.882194,-0.606778 -0.285045,-0.05115 -0.560564,0.138641 -0.613834,0.424039 -0.474133,2.562578 -0.943328,5.126214 -1.407936,7.690203 -0.05327,0.28716 0.138289,0.56233 0.425097,0.61419 0.193675,0.0346 0.388056,0.0713 0.582084,0.10865 0.28328,0.0543 0.563033,-0.13017 0.619477,-0.41733 0.153812,-0.79023 0.309387,-1.58045 0.464962,-2.37067 0.846314,1.18498 1.630891,2.40771 2.337505,3.6456 0.09807,0.16934 0.275873,0.26635 0.45967,0.26635 0.0829,0 0.167922,-0.0198 0.246591,-0.0614 0.171098,-0.0903 0.342548,-0.17957 0.515409,-0.26811 0.128411,-0.0656 0.224719,-0.17992 0.265994,-0.31786 0.04198,-0.13793 0.02505,-0.2868 -0.04551,-0.41204 -0.432153,-0.76764 -0.893939,-1.53282 -1.378656,-2.28459 1.350434,0.0169 2.589742,-0.869244 2.998259,-2.158999 0.224719,-0.705203 0.130528,-1.50495 -0.257881,-2.19322"
       style="fill:#ffffff;fill-opacity:1;fill-rule:nonzero;stroke:none;stroke-width:0.0352778"
       id="path1028" />
    <path
       d="m 57.079578,98.520244 0.540456,0.625475 0.822325,-0.08996 -0.42792,0.707319 0.339726,0.753182 -0.804687,-0.18803 -0.611364,0.55704 -0.0702,-0.82409 -0.718256,-0.410638 0.762353,-0.320322 0.167569,-0.809978"
       style="fill:#ffffff;fill-opacity:1;fill-rule:nonzero;stroke:none;stroke-width:0.0352778"
       id="path1030" />
    <path
       d="m 90.029025,98.520244 -0.540456,0.625475 -0.821972,-0.08996 0.428272,0.707319 -0.34043,0.753182 0.804686,-0.18803 0.612069,0.55704 0.06985,-0.82409 0.717903,-0.410638 L 90.1973,99.33022 90.029025,98.520242"
       style="fill:#ffffff;fill-opacity:1;fill-rule:nonzero;stroke:none;stroke-width:0.0352778"
       id="path1032" />
    <path
       d="m 69.425037,118.52486 -0.273402,-0.0254 0.110772,-1.19838 -1.198386,-0.10937 -0.109714,1.19804 -0.27305,-0.0254 0.230364,-2.50472 0.272697,0.0254 -0.09807,1.06997 1.198033,0.10971 0.09807,-1.06997 0.272698,0.0254 -0.230012,2.50472"
       style="fill:#ffd700;fill-opacity:1;fill-rule:nonzero;stroke:none;stroke-width:0.0352778"
       id="path1034" />
    <path
       d="m 70.60014,117.35152 c -0.01975,0.53517 0.238125,1.06716 0.749653,1.08691 0.518583,0.0191 0.811389,-0.4759 0.832909,-1.05022 0.0194,-0.50518 -0.207787,-1.06927 -0.746126,-1.08902 -0.555272,-0.0215 -0.81668,0.51787 -0.836436,1.05233 z m 1.870428,0.0339 c -0.03316,0.88547 -0.544689,1.30281 -1.139119,1.28094 -0.624417,-0.0236 -1.048456,-0.53305 -1.019175,-1.31833 0.03104,-0.8188 0.515408,-1.30034 1.146175,-1.27671 0.643819,0.024 1.040341,0.55457 1.012119,1.3141"
       style="fill:#ffd700;fill-opacity:1;fill-rule:nonzero;stroke:none;stroke-width:0.0352778"
       id="path1036" />
    <path
       d="m 74.993282,117.62316 c 0.01411,0.75777 -0.370769,1.05869 -0.873478,1.06821 -0.4699,0.009 -0.84843,-0.25858 -0.862894,-1.01952 l -0.02858,-1.52154 0.274461,-0.005 0.02857,1.52506 c 0.01129,0.57221 0.267053,0.7994 0.5969,0.79269 0.36442,-0.006 0.601486,-0.25541 0.591256,-0.81456 l -0.02858,-1.52506 0.274108,-0.005 0.02822,1.5053"
       style="fill:#ffd700;fill-opacity:1;fill-rule:nonzero;stroke:none;stroke-width:0.0352778"
       id="path1038" />
    <path
       d="m 76.970955,116.30695 c -0.0762,-0.0409 -0.238478,-0.0995 -0.450145,-0.0857 -0.349955,0.0222 -0.468489,0.24624 -0.456142,0.42792 0.01623,0.24765 0.176742,0.36266 0.52317,0.4826 0.416983,0.14429 0.639233,0.33937 0.663222,0.69886 0.02646,0.39899 -0.243769,0.72601 -0.785636,0.76235 -0.227894,0.0148 -0.480131,-0.0381 -0.611011,-0.11924 l 0.06068,-0.23283 c 0.141464,0.0801 0.347133,0.13299 0.551391,0.11959 0.337256,-0.0226 0.52317,-0.21731 0.505178,-0.48789 -0.01623,-0.2473 -0.161925,-0.39088 -0.497769,-0.5013 -0.388761,-0.11607 -0.660753,-0.32068 -0.684036,-0.66746 -0.0254,-0.38347 0.2667,-0.68439 0.725663,-0.71472 0.23742,-0.0159 0.422628,0.0318 0.522817,0.085 l -0.06738,0.23284"
       style="fill:#ffd700;fill-opacity:1;fill-rule:nonzero;stroke:none;stroke-width:0.0352778"
       id="path1040" />
    <path
       d="m 79.458744,118.27862 -1.321153,0.14394 -0.272697,-2.50331 1.264708,-0.13759 0.02469,0.22931 -0.991658,0.1083 0.09207,0.84737 0.933803,-0.1023 0.02434,0.22754 -0.932744,0.10195 0.105481,0.96908 1.04775,-0.1143 0.0254,0.23001"
       style="fill:#ffd700;fill-opacity:1;fill-rule:nonzero;stroke:none;stroke-width:0.0352778"
       id="path1042" />
    <path
       d="m 80.145249,116.57929 c 0,0 3.769431,-1.03223 4.786842,-1.85526 0,0 -1.899708,1.54305 -4.678539,2.27189 l -0.108303,-0.41663"
       style="fill:#ffd700;fill-opacity:1;fill-rule:nonzero;stroke:none;stroke-width:0.0352778"
       id="path1044" />
    <path
       d="m 66.962648,116.71511 c 0,0 -3.799064,-0.91722 -4.841875,-1.70921 0,0 1.946275,1.48449 4.74592,2.12937 l 0.09596,-0.42016"
       style="fill:#ffd700;fill-opacity:1;fill-rule:nonzero;stroke:none;stroke-width:0.0352778"
       id="path1046" />
  </g>
</svg>
